<?xml version="1.0" encoding="utf-8"?>
<!-- Generator: Adobe Illustrator 23.0.0, SVG Export Plug-In . SVG Version: 6.00 Build 0)  -->
<svg version="1.1" id="Capa_1" xmlns="http://www.w3.org/2000/svg" xmlns:xlink="http://www.w3.org/1999/xlink" x="0px" y="0px"
	 viewBox="0 0 917.3 917.3" style="enable-background:new 0 0 917.3 917.3;" xml:space="preserve">
<style type="text/css">
	.st0{fill:url(#SVGID_1_);}
	.st1{fill:url(#SVGID_2_);}
	.st2{fill:url(#SVGID_3_);}
	.st3{fill:url(#SVGID_4_);}
</style>
<g>
	<g>
		
			<image style="overflow:visible;opacity:0.7;enable-background:new    ;" width="725" height="725" xlink:href="4F0BEE57.png"  transform="matrix(1.2652 0 0 1.2652 -0.2859 -0.3321)">
		</image>
		<g>
			<g>
				<g>
					<g>
						<g>
							
								<linearGradient id="SVGID_1_" gradientUnits="userSpaceOnUse" x1="140.3993" y1="519.9678" x2="701.7922" y2="519.9678" gradientTransform="matrix(1 0 0 -1 0 920)">
								<stop  offset="0" style="stop-color:#B07515"/>
								<stop  offset="9.430000e-02" style="stop-color:#E1BA60"/>
								<stop  offset="0.1398" style="stop-color:#F5D77F"/>
								<stop  offset="0.2581" style="stop-color:#FFFFD7"/>
								<stop  offset="0.3602" style="stop-color:#F5D77F"/>
								<stop  offset="0.4892" style="stop-color:#B07515"/>
								<stop  offset="0.5727" style="stop-color:#E1BA60"/>
								<stop  offset="0.6129" style="stop-color:#F5D77F"/>
								<stop  offset="0.7366" style="stop-color:#FFFFD7"/>
								<stop  offset="0.8387" style="stop-color:#F5D77F"/>
								<stop  offset="1" style="stop-color:#B07515"/>
							</linearGradient>
							<path class="st0" d="M421.1,680.7c-154.8,0-280.7-125.9-280.7-280.7s126-280.7,280.7-280.7c154.8,0,280.7,125.9,280.7,280.7
								S575.9,680.7,421.1,680.7z M421.1,148.9C282.6,148.9,170,261.5,170,400s112.6,251.1,251.1,251.1S672.2,538.5,672.2,400
								S559.6,148.9,421.1,148.9z"/>
							
								<linearGradient id="SVGID_2_" gradientUnits="userSpaceOnUse" x1="221.336" y1="320.1451" x2="620.9186" y2="719.7273" gradientTransform="matrix(1 0 0 -1 0 920)">
								<stop  offset="0" style="stop-color:#B07515"/>
								<stop  offset="9.430000e-02" style="stop-color:#E1BA60"/>
								<stop  offset="0.1398" style="stop-color:#F5D77F"/>
								<stop  offset="0.2581" style="stop-color:#FFFFD7"/>
								<stop  offset="0.3602" style="stop-color:#F5D77F"/>
								<stop  offset="0.4892" style="stop-color:#B07515"/>
								<stop  offset="0.5727" style="stop-color:#E1BA60"/>
								<stop  offset="0.6129" style="stop-color:#F5D77F"/>
								<stop  offset="0.7366" style="stop-color:#FFFFD7"/>
								<stop  offset="0.8387" style="stop-color:#F5D77F"/>
								<stop  offset="1" style="stop-color:#B07515"/>
							</linearGradient>
							<path class="st1" d="M421.1,682.7c-155.9,0-282.7-126.8-282.7-282.7s126.8-282.7,282.7-282.7s282.7,126.8,282.7,282.7
								S577,682.7,421.1,682.7z M421.1,121.4c-153.7,0-278.7,125-278.7,278.7s125,278.7,278.7,278.7s278.7-125,278.7-278.7
								S574.8,121.4,421.1,121.4z M421.1,653.2C281.5,653.2,168,539.6,168,400.1s113.5-253.1,253.1-253.1s253.1,113.5,253.1,253.1
								C674.3,539.6,560.7,653.2,421.1,653.2z M421.1,150.9C283.8,150.9,172,262.7,172,400.1s111.8,249.1,249.1,249.1
								s249.1-111.8,249.1-249.1C670.3,262.6,558.5,150.9,421.1,150.9z"/>
						</g>
					</g>
				</g>
			</g>
		</g>
	</g>
	<g>
		
			<linearGradient id="SVGID_3_" gradientUnits="userSpaceOnUse" x1="336.9294" y1="407.1662" x2="479.6423" y2="654.3518" gradientTransform="matrix(1 0 0 -1 0 920)">
			<stop  offset="0" style="stop-color:#B07515"/>
			<stop  offset="0.1625" style="stop-color:#E1BA60"/>
			<stop  offset="0.2409" style="stop-color:#F5D77F"/>
			<stop  offset="0.5019" style="stop-color:#FFFFD7"/>
			<stop  offset="0.7563" style="stop-color:#F5D77F"/>
			<stop  offset="1" style="stop-color:#B07515"/>
		</linearGradient>
		<path class="st2" d="M537.8,364c-2.2-63.9-54.6-115-119.1-115c-65.8,0-119.2,53.4-119.2,119.2c0,0.3,0,0.6,0,1
			c-0.1,2.8,0,5.7,0.2,8.6c0.3,9.5,1.9,18.9,5,28.3c3.1,10.4,7.7,20.1,13.4,29.1c4.9,9,11.3,19.5,19.6,31.2
			c7.6,11,15.6,21.8,23.5,32.6c12.9,15,25.5,30.2,38.7,44.9c9.1,10.2,13.8,15.1,18.6,15.1l0,0l0,0c4.7-0.1,9.4-4.9,18.4-14.6
			c8.9-9.6,17.4-19.5,25.7-29.6c57.7-63.4,69.7-103.8,72-115.4c2.2-9.2,3.2-18.3,3.1-27.1c0-0.3,0-0.6,0-1
			C538,368.8,538,366.4,537.8,364z M418.9,420.4c-29.5,0-54-24.1-53.8-53c0.1-29.6,23.6-52.8,53.5-52.9c29.9-0.1,53.5,22.9,54,52.6
			C473.1,395.5,448,420.4,418.9,420.4z"/>
		
			<linearGradient id="SVGID_4_" gradientUnits="userSpaceOnUse" x1="298.2038" y1="516.1405" x2="539.4126" y2="516.1405" gradientTransform="matrix(1 0 0 -1 0 920)">
			<stop  offset="0" style="stop-color:#B07515"/>
			<stop  offset="9.430000e-02" style="stop-color:#E1BA60"/>
			<stop  offset="0.1398" style="stop-color:#F5D77F"/>
			<stop  offset="0.2581" style="stop-color:#FFFFD7"/>
			<stop  offset="0.3602" style="stop-color:#F5D77F"/>
			<stop  offset="0.4892" style="stop-color:#B07515"/>
			<stop  offset="0.5727" style="stop-color:#E1BA60"/>
			<stop  offset="0.6129" style="stop-color:#F5D77F"/>
			<stop  offset="0.7366" style="stop-color:#FFFFD7"/>
			<stop  offset="0.8387" style="stop-color:#F5D77F"/>
			<stop  offset="1" style="stop-color:#B07515"/>
		</linearGradient>
		<path class="st3" d="M416.2,559.8c-4.5-1.3-9.1-6.3-17.1-15.2c-9.1-10.2-18.1-20.7-26.8-30.9c-4-4.7-7.9-9.3-11.9-13.9l-4.3-5.9
			c-6.4-8.7-13-17.8-19.3-26.8c-7.6-10.7-14.2-21.3-19.7-31.3c-5.8-9.1-10.4-19-13.6-29.4c-3.1-9.1-4.8-18.8-5.1-28.7
			c-0.2-2.8-0.3-5.7-0.2-8.7v-1c0-66.4,54.1-120.5,120.5-120.5c65.3,0,118.2,51.1,120.4,116.3c0.2,2.4,0.3,4.8,0.3,7.3v1
			c0.2,9-0.9,18.2-3.1,27.4c-2.2,11-14.1,52-72.3,116c-9.6,11.6-17.8,21.1-25.7,29.6c-9.2,9.9-14,14.7-19,15 M418.4,557.5l0.4,0.2
			c4.1-0.1,8.8-4.9,17.4-14.2c8-8.6,16.1-17.9,25.7-29.6c57.8-63.5,69.5-103.9,71.8-114.8c2.2-9,3.2-18,3.1-26.8v-1
			c0-2.4-0.1-4.8-0.2-7.2V364c-2.2-63.8-53.9-113.8-117.7-113.8c-65,0-117.8,52.9-117.8,117.8v1c-0.1,2.9,0,5.7,0.2,8.5
			c0.3,9.6,2,19,5,28c3.1,10.2,7.5,19.8,13.3,28.9c5.4,10,12,20.5,19.6,31.2c6.3,9,12.9,18.1,19.2,26.8l4.3,5.8
			c3.9,4.6,7.9,9.2,11.9,13.9c8.7,10.2,17.6,20.8,26.7,30.9c8.3,9.3,13,14.3,17.1,14.6L418.4,557.5z M418.9,421.7L418.9,421.7
			L418.9,421.7c-14.8,0-28.8-5.8-39.4-16.4c-10.3-10.3-15.9-23.8-15.8-37.9c0.1-30.3,24.2-54.1,54.9-54.2
			c30.6-0.1,54.8,23.5,55.3,53.9c0.3,13.6-5.4,27.4-15.6,37.7C447.7,415.6,433.3,421.7,418.9,421.7z M418.9,419L418.9,419
			c13.8,0,27.4-5.8,37.5-16.1c9.7-9.8,15.1-22.9,14.8-35.8c-0.5-28.8-23.5-51.3-52.5-51.3c-0.1,0-0.1,0-0.2,0
			c-29.2,0.1-52.1,22.8-52.2,51.6c-0.1,13.4,5.3,26.2,15,36C391.5,413.5,404.7,419,418.9,419L418.9,419z"/>
	</g>
</g>
</svg>
