<svg id="Capa_1" data-name="Capa 1" xmlns="http://www.w3.org/2000/svg" viewBox="0 0 306.98 306.98"><defs><style>.cls-1{fill:#fff;}</style></defs><title>Mesa de trabajo 1</title><path class="cls-1" d="M230.88,145A22.21,22.21,0,0,1,227,128.17l2.06-12-8.73-8.51-.38-.4C153.18,163,145.58,252.31,146.31,296.17a3.14,3.14,0,0,0,6.21.57C170.94,207,205.8,164.57,230.88,145Z"/><path class="cls-1" d="M99.86,85,79.7,89.53,72,108.7c-.14.35-.3.68-.46,1,31.47,44.52,47.86,135.4,54.41,181.18a2.08,2.08,0,0,0,4.13-.28c.79-98.74-14.31-164.63-29.56-205.77Z"/><path class="cls-1" d="M237.74,244.9,234.89,241a22.35,22.35,0,0,1-4.14-10.52c-22,5.87-55.07,20.88-65.64,58.84a4.36,4.36,0,0,0,7.78,3.64c11.54-16.73,32.27-38.82,63.19-43.3l0-.15Z"/><path class="cls-1" d="M80.48,206.57a22.37,22.37,0,0,1-7.91,6.85l-4.3,2.24-.6,4.82a22.56,22.56,0,0,1-.94,4.21C85.19,245.55,98.8,274.2,107,294.77a2.9,2.9,0,0,0,5.56-1.57C105.3,250.21,92.57,223.29,80.48,206.57Z"/><path class="cls-1" d="M250.59,109.17l-3.84,22.38a2.38,2.38,0,0,0,.94,2.32,2.4,2.4,0,0,0,1.4.45,2.35,2.35,0,0,0,1.1-.27l20.1-10.57,20.1,10.57a2.42,2.42,0,0,0,1.11.27,2.35,2.35,0,0,0,1.39-.45,2.38,2.38,0,0,0,.95-2.32L290,109.17l16.26-15.85a2.4,2.4,0,0,0,.6-2.44,2.36,2.36,0,0,0-1.92-1.61L282.47,86,272.42,65.64a2.37,2.37,0,0,0-4.25,0L258.12,86l-22.48,3.27a2.37,2.37,0,0,0-1.31,4Z"/><path class="cls-1" d="M95.49,65.5a2.36,2.36,0,0,0,1.79-1.76,2.39,2.39,0,0,0-.78-2.38l-23.91-20,2.92-31a2.37,2.37,0,0,0-3.62-2.23L45.48,24.65,16.86,12.27a2.36,2.36,0,0,0-.94-.19A2.36,2.36,0,0,0,13.62,15L21.2,45.27.59,68.66a2.37,2.37,0,0,0,1.62,3.93l31.1,2.13,15.88,26.83a2.37,2.37,0,0,0,2,1.17h.18a2.39,2.39,0,0,0,2-1.48L65.07,72.31Z"/><path class="cls-1" d="M302.25,235.51a2.37,2.37,0,0,0-1.61-1.91L286,228.85l-4.38-14.73a2.4,2.4,0,0,0-1.88-1.67,2.69,2.69,0,0,0-.4,0,2.38,2.38,0,0,0-1.92,1l-9,12.44L253,225.45H253a2.37,2.37,0,0,0-1.91,3.77l9,12.43L255,256.14a2.36,2.36,0,0,0,.54,2.45,2.34,2.34,0,0,0,2.43.6l14.62-4.75,12.2,9.34a2.32,2.32,0,0,0,1.44.49,2.37,2.37,0,0,0,2.38-2.37V246.53l12.66-8.72A2.4,2.4,0,0,0,302.25,235.51Z"/><path class="cls-1" d="M63.35,195.68a2.38,2.38,0,0,0-.09-4.26l-13.93-6.51L46.8,169.75a2.36,2.36,0,0,0-2.34-2,2.34,2.34,0,0,0-1.73.75l-10.5,11.23L17,177.48a2.07,2.07,0,0,0-.35,0,2.36,2.36,0,0,0-1.95,1,2.4,2.4,0,0,0-.13,2.5L22,194.42l-6.86,13.76a2.37,2.37,0,0,0,2.12,3.43,2.28,2.28,0,0,0,.45,0l15.09-2.92,11,10.78a2.42,2.42,0,0,0,1.67.68A2.36,2.36,0,0,0,47.82,218l1.89-15.26Z"/><path class="cls-1" d="M164.22,67l-1.84-4.5-4.75-1A22.5,22.5,0,0,1,148.2,57c-7.65,20.35-13,51.83-7.37,99.17a2.14,2.14,0,0,0,4.26,0c2.08-22,7.45-57.48,21.16-85.27A22.86,22.86,0,0,1,164.22,67Z"/><path class="cls-1" d="M171,12.59l1.55,15.29-11.71,10a2.37,2.37,0,0,0,1,4.13l15,3.25,5.84,14.22a2.39,2.39,0,0,0,2,1.46h.16A2.38,2.38,0,0,0,187,59.72l7.73-13.28L210,45.28a2.38,2.38,0,0,0,1.59-4L201.38,29.87,205,14.93a2.36,2.36,0,0,0-.78-2.38A2.41,2.41,0,0,0,202.7,12a2.25,2.25,0,0,0-.95.2l-14.07,6.2L174.6,10.33a2.32,2.32,0,0,0-1.25-.35,2.41,2.41,0,0,0-1.26.36A2.38,2.38,0,0,0,171,12.59Z"/></svg>