<svg id="Capa_1" data-name="Capa 1" xmlns="http://www.w3.org/2000/svg" viewBox="0 0 512 512"><defs><style>.cls-1{fill:#fff;}</style></defs><title>Mesa de trabajo 1</title><path class="cls-1" d="M498.68,435.33,297.92,234.56,63.36,0H45L41.28,9.51c-9.88,25.1-14.1,50.78-12.2,74.25,2.16,26.75,12.32,49.91,29.39,67L241.58,333.85l24.15-24.15L435,499c16.84,16.84,45.82,17.84,63.66,0A45,45,0,0,0,498.68,435.33Z"/><path class="cls-1" d="M156.73,291.44,13.32,434.85a45.08,45.08,0,0,0,0,63.67c16.67,16.67,45.52,18.14,63.66,0L220.39,355.11Z"/><path class="cls-1" d="M490.25,85.25,408.9,166.6l-21.22-21.22L469,64,447.81,42.8l-81.35,81.35-21.22-21.22,81.35-81.35L405.37.36,299.26,106.47A74.89,74.89,0,0,0,277.43,155a43.13,43.13,0,0,1-3.08,13.54l68.93,68.93a43.24,43.24,0,0,1,13.55-3.07,74.89,74.89,0,0,0,48.54-21.83L511.48,106.47Z"/></svg>