<?xml version="1.0" encoding="utf-8"?>
<!-- Generator: Adobe Illustrator 23.0.0, SVG Export Plug-In . SVG Version: 6.00 Build 0)  -->
<svg version="1.1" id="Capa_1" xmlns="http://www.w3.org/2000/svg" xmlns:xlink="http://www.w3.org/1999/xlink" x="0px" y="0px"
	 viewBox="0 0 100 100" style="enable-background:new 0 0 100 100;" xml:space="preserve">
<style type="text/css">
	.st0{fill:url(#SVGID_1_);stroke:url(#SVGID_2_);stroke-width:0.75;stroke-miterlimit:10;}
	.st1{fill:url(#SVGID_3_);stroke:url(#SVGID_4_);stroke-width:0.5;stroke-miterlimit:10;}
	.st2{fill:url(#SVGID_5_);stroke:url(#SVGID_6_);stroke-width:0.5;stroke-miterlimit:10;}
	.st3{fill:url(#SVGID_7_);stroke:url(#SVGID_8_);stroke-width:0.5;stroke-miterlimit:10;}
</style>
<g>
	
		<image style="overflow:visible;opacity:0.7;" width="168" height="168" xlink:href="359A0A32.png"  transform="matrix(1 0 0 1 -27 -23)">
	</image>
	<g>
		<g>
			<g>
				<g>
					<linearGradient id="SVGID_1_" gradientUnits="userSpaceOnUse" x1="-1.125983e-02" y1="50.2448" x2="99.9887" y2="50.2448">
						<stop  offset="0" style="stop-color:#9F7425"/>
						<stop  offset="9.047072e-02" style="stop-color:#D3B664"/>
						<stop  offset="0.1398" style="stop-color:#EBD582"/>
						<stop  offset="0.2581" style="stop-color:#FFFFD7"/>
						<stop  offset="0.3602" style="stop-color:#EBD582"/>
						<stop  offset="0.4892" style="stop-color:#9F7425"/>
						<stop  offset="0.5693" style="stop-color:#D3B664"/>
						<stop  offset="0.6129" style="stop-color:#EBD582"/>
						<stop  offset="0.7366" style="stop-color:#FFFFD7"/>
						<stop  offset="0.8387" style="stop-color:#EBD582"/>
						<stop  offset="1" style="stop-color:#9F7425"/>
					</linearGradient>
					<linearGradient id="SVGID_2_" gradientUnits="userSpaceOnUse" x1="14.3849" y1="85.8487" x2="85.5927" y2="14.6409">
						<stop  offset="0" style="stop-color:#9F7425"/>
						<stop  offset="9.047072e-02" style="stop-color:#D3B664"/>
						<stop  offset="0.1398" style="stop-color:#EBD582"/>
						<stop  offset="0.2581" style="stop-color:#FFFFD7"/>
						<stop  offset="0.3602" style="stop-color:#EBD582"/>
						<stop  offset="0.4892" style="stop-color:#9F7425"/>
						<stop  offset="0.5693" style="stop-color:#D3B664"/>
						<stop  offset="0.6129" style="stop-color:#EBD582"/>
						<stop  offset="0.7366" style="stop-color:#FFFFD7"/>
						<stop  offset="0.8387" style="stop-color:#EBD582"/>
						<stop  offset="1" style="stop-color:#9F7425"/>
					</linearGradient>
					<path class="st0" d="M50,100.2c-27.6,0-50-22.4-50-50s22.4-50,50-50c27.6,0,50,22.4,50,50S77.6,100.2,50,100.2z M50,5.5
						C25.3,5.5,5.3,25.6,5.3,50.2S25.3,95,50,95c24.7,0,44.7-20.1,44.7-44.7S74.7,5.5,50,5.5z"/>
				</g>
			</g>
			<g>
				<linearGradient id="SVGID_3_" gradientUnits="userSpaceOnUse" x1="27.6108" y1="72.6228" x2="72.3667" y2="27.8668">
					<stop  offset="0" style="stop-color:#9F7425"/>
					<stop  offset="0.1559" style="stop-color:#D3B664"/>
					<stop  offset="0.2409" style="stop-color:#EBD582"/>
					<stop  offset="0.5019" style="stop-color:#FFFFD7"/>
					<stop  offset="0.7563" style="stop-color:#EBD582"/>
					<stop  offset="1" style="stop-color:#9F7425"/>
				</linearGradient>
				<linearGradient id="SVGID_4_" gradientUnits="userSpaceOnUse" x1="23.0513" y1="50.2448" x2="76.9261" y2="50.2448">
					<stop  offset="0" style="stop-color:#9F7425"/>
					<stop  offset="9.047072e-02" style="stop-color:#D3B664"/>
					<stop  offset="0.1398" style="stop-color:#EBD582"/>
					<stop  offset="0.2581" style="stop-color:#FFFFD7"/>
					<stop  offset="0.3602" style="stop-color:#EBD582"/>
					<stop  offset="0.4892" style="stop-color:#9F7425"/>
					<stop  offset="0.5693" style="stop-color:#D3B664"/>
					<stop  offset="0.6129" style="stop-color:#EBD582"/>
					<stop  offset="0.7366" style="stop-color:#FFFFD7"/>
					<stop  offset="0.8387" style="stop-color:#EBD582"/>
					<stop  offset="1" style="stop-color:#9F7425"/>
				</linearGradient>
				<path class="st1" d="M62,23.6H38c-8.1,0-14.7,6.6-14.7,14.7v23.9c0,8.1,6.6,14.7,14.7,14.7H62c8.1,0,14.7-6.6,14.7-14.7V38.3
					C76.7,30.1,70.1,23.6,62,23.6z M72.4,62.2c0,5.8-4.7,10.5-10.5,10.5H38.1c-5.8,0-10.5-4.7-10.5-10.5V38.3
					c0-5.8,4.7-10.5,10.5-10.5h23.8c5.8,0,10.5,4.7,10.5,10.5V62.2z"/>
				<linearGradient id="SVGID_5_" gradientUnits="userSpaceOnUse" x1="40.0427" y1="60.1908" x2="59.9348" y2="40.2988">
					<stop  offset="0" style="stop-color:#9F7425"/>
					<stop  offset="0.1559" style="stop-color:#D3B664"/>
					<stop  offset="0.2409" style="stop-color:#EBD582"/>
					<stop  offset="0.5019" style="stop-color:#FFFFD7"/>
					<stop  offset="0.7563" style="stop-color:#EBD582"/>
					<stop  offset="1" style="stop-color:#9F7425"/>
				</linearGradient>
				<linearGradient id="SVGID_6_" gradientUnits="userSpaceOnUse" x1="35.6729" y1="50.2448" x2="64.3045" y2="50.2448">
					<stop  offset="0" style="stop-color:#9F7425"/>
					<stop  offset="9.047072e-02" style="stop-color:#D3B664"/>
					<stop  offset="0.1398" style="stop-color:#EBD582"/>
					<stop  offset="0.2581" style="stop-color:#FFFFD7"/>
					<stop  offset="0.3602" style="stop-color:#EBD582"/>
					<stop  offset="0.4892" style="stop-color:#9F7425"/>
					<stop  offset="0.5693" style="stop-color:#D3B664"/>
					<stop  offset="0.6129" style="stop-color:#EBD582"/>
					<stop  offset="0.7366" style="stop-color:#FFFFD7"/>
					<stop  offset="0.8387" style="stop-color:#EBD582"/>
					<stop  offset="1" style="stop-color:#9F7425"/>
				</linearGradient>
				<path class="st2" d="M50,36.2c-7.8,0-14.1,6.3-14.1,14.1c0,7.8,6.3,14.1,14.1,14.1c7.8,0,14.1-6.3,14.1-14.1
					C64.1,42.5,57.8,36.2,50,36.2z M50,59.4c-5.1,0-9.2-4.1-9.2-9.2c0-5.1,4.1-9.2,9.2-9.2s9.2,4.1,9.2,9.2
					C59.2,55.3,55.1,59.4,50,59.4z"/>
				<linearGradient id="SVGID_7_" gradientUnits="userSpaceOnUse" x1="62.3014" y1="37.9421" x2="66.7638" y2="33.4797">
					<stop  offset="0" style="stop-color:#9F7425"/>
					<stop  offset="0.1559" style="stop-color:#D3B664"/>
					<stop  offset="0.2409" style="stop-color:#EBD582"/>
					<stop  offset="0.5019" style="stop-color:#FFFFD7"/>
					<stop  offset="0.7563" style="stop-color:#EBD582"/>
					<stop  offset="1" style="stop-color:#9F7425"/>
				</linearGradient>
				<linearGradient id="SVGID_8_" gradientUnits="userSpaceOnUse" x1="61.1273" y1="35.7108" x2="67.9381" y2="35.7108">
					<stop  offset="0" style="stop-color:#9F7425"/>
					<stop  offset="9.047072e-02" style="stop-color:#D3B664"/>
					<stop  offset="0.1398" style="stop-color:#EBD582"/>
					<stop  offset="0.2581" style="stop-color:#FFFFD7"/>
					<stop  offset="0.3602" style="stop-color:#EBD582"/>
					<stop  offset="0.4892" style="stop-color:#9F7425"/>
					<stop  offset="0.5693" style="stop-color:#D3B664"/>
					<stop  offset="0.6129" style="stop-color:#EBD582"/>
					<stop  offset="0.7366" style="stop-color:#FFFFD7"/>
					<stop  offset="0.8387" style="stop-color:#EBD582"/>
					<stop  offset="1" style="stop-color:#9F7425"/>
				</linearGradient>
				<path class="st3" d="M67.7,35.7c0,1.7-1.4,3.2-3.2,3.2c-1.7,0-3.2-1.4-3.2-3.2c0-1.7,1.4-3.2,3.2-3.2
					C66.3,32.6,67.7,34,67.7,35.7z"/>
			</g>
		</g>
	</g>
</g>
</svg>
