<?xml version="1.0" encoding="utf-8"?>
<!-- Generator: Adobe Illustrator 23.0.0, SVG Export Plug-In . SVG Version: 6.00 Build 0)  -->
<svg version="1.1" id="Capa_1" xmlns="http://www.w3.org/2000/svg" xmlns:xlink="http://www.w3.org/1999/xlink" x="0px" y="0px"
	 viewBox="0 0 100 100" style="enable-background:new 0 0 100 100;" xml:space="preserve">
<style type="text/css">
	.st0{fill:url(#SVGID_1_);stroke:url(#SVGID_2_);stroke-width:0.75;stroke-miterlimit:10;}
	.st1{fill-rule:evenodd;clip-rule:evenodd;fill:url(#SVGID_3_);stroke:url(#SVGID_4_);stroke-width:0.5;stroke-miterlimit:10;}
</style>
<g>
	
		<image style="overflow:visible;opacity:0.7;" width="168" height="167" xlink:href="9EC63AC6.png"  transform="matrix(1 0 0 1 -27 -22)">
	</image>
	<g>
		<g>
			<g>
				<g>
					<linearGradient id="SVGID_1_" gradientUnits="userSpaceOnUse" x1="9.714366e-02" y1="50.3989" x2="100.0971" y2="50.3989">
						<stop  offset="0" style="stop-color:#9F7425"/>
						<stop  offset="9.047072e-02" style="stop-color:#D3B664"/>
						<stop  offset="0.1398" style="stop-color:#EBD582"/>
						<stop  offset="0.2581" style="stop-color:#FFFFD7"/>
						<stop  offset="0.3602" style="stop-color:#EBD582"/>
						<stop  offset="0.4892" style="stop-color:#9F7425"/>
						<stop  offset="0.5693" style="stop-color:#D3B664"/>
						<stop  offset="0.6129" style="stop-color:#EBD582"/>
						<stop  offset="0.7366" style="stop-color:#FFFFD7"/>
						<stop  offset="0.8387" style="stop-color:#EBD582"/>
						<stop  offset="1" style="stop-color:#9F7425"/>
					</linearGradient>
					<linearGradient id="SVGID_2_" gradientUnits="userSpaceOnUse" x1="14.4933" y1="86.0029" x2="85.7011" y2="14.7951">
						<stop  offset="0" style="stop-color:#9F7425"/>
						<stop  offset="9.047072e-02" style="stop-color:#D3B664"/>
						<stop  offset="0.1398" style="stop-color:#EBD582"/>
						<stop  offset="0.2581" style="stop-color:#FFFFD7"/>
						<stop  offset="0.3602" style="stop-color:#EBD582"/>
						<stop  offset="0.4892" style="stop-color:#9F7425"/>
						<stop  offset="0.5693" style="stop-color:#D3B664"/>
						<stop  offset="0.6129" style="stop-color:#EBD582"/>
						<stop  offset="0.7366" style="stop-color:#FFFFD7"/>
						<stop  offset="0.8387" style="stop-color:#EBD582"/>
						<stop  offset="1" style="stop-color:#9F7425"/>
					</linearGradient>
					<path class="st0" d="M50.1,100.4c-27.6,0-50-22.4-50-50s22.4-50,50-50c27.6,0,50,22.4,50,50S77.7,100.4,50.1,100.4z M50.1,5.7
						C25.4,5.7,5.4,25.7,5.4,50.4s20.1,44.7,44.7,44.7c24.7,0,44.7-20.1,44.7-44.7S74.8,5.7,50.1,5.7z"/>
				</g>
				<g>
					<linearGradient id="SVGID_3_" gradientUnits="userSpaceOnUse" x1="21.2346" y1="79.0386" x2="70.5008" y2="29.7724">
						<stop  offset="0" style="stop-color:#9F7425"/>
						<stop  offset="0.1559" style="stop-color:#D3B664"/>
						<stop  offset="0.2409" style="stop-color:#EBD582"/>
						<stop  offset="0.5019" style="stop-color:#FFFFD7"/>
						<stop  offset="0.7563" style="stop-color:#EBD582"/>
						<stop  offset="1" style="stop-color:#9F7425"/>
					</linearGradient>
					<linearGradient id="SVGID_4_" gradientUnits="userSpaceOnUse" x1="21.0626" y1="50.4684" x2="78.9871" y2="50.4684">
						<stop  offset="0" style="stop-color:#9F7425"/>
						<stop  offset="9.047072e-02" style="stop-color:#D3B664"/>
						<stop  offset="0.1398" style="stop-color:#EBD582"/>
						<stop  offset="0.2581" style="stop-color:#FFFFD7"/>
						<stop  offset="0.3602" style="stop-color:#EBD582"/>
						<stop  offset="0.4892" style="stop-color:#9F7425"/>
						<stop  offset="0.5693" style="stop-color:#D3B664"/>
						<stop  offset="0.6129" style="stop-color:#EBD582"/>
						<stop  offset="0.7366" style="stop-color:#FFFFD7"/>
						<stop  offset="0.8387" style="stop-color:#EBD582"/>
						<stop  offset="1" style="stop-color:#9F7425"/>
					</linearGradient>
					<path class="st1" d="M63.8,56c-0.7-0.4-4.2-2.3-4.8-2.5c-0.6-0.3-1.1-0.4-1.6,0.3c-0.5,0.7-1.9,2.3-2.4,2.7
						c-0.4,0.5-0.9,0.5-1.6,0.1c-0.7-0.4-3-1.2-5.6-3.8c-2.1-2-3.4-4.4-3.8-5.1c-0.4-0.7,0-1.1,0.4-1.5c0.3-0.3,0.8-0.8,1.1-1.2
						c0.4-0.4,0.5-0.7,0.8-1.2c0.3-0.5,0.2-0.9,0-1.3c-0.2-0.4-1.5-4-2-5.4C43.7,35.8,43,36,42.6,36c-0.4,0-0.9-0.1-1.4-0.1
						c-0.5,0-1.3,0.1-1.9,0.8c-0.7,0.7-2.6,2.4-2.7,5.9c-0.1,3.5,2.3,7,2.7,7.5c0.3,0.5,4.7,8.1,11.9,11.3c7.2,3.1,7.2,2.2,8.5,2.1
						c1.3-0.1,4.3-1.6,5-3.2c0.7-1.7,0.7-3.1,0.5-3.4C65,56.6,64.5,56.4,63.8,56L63.8,56z M50.6,73.1c-4.8,0-9.2-1.4-12.9-3.9
						l-9,2.9l2.9-8.7c-2.8-3.9-4.5-8.6-4.5-13.7c0-12.9,10.5-23.4,23.4-23.4C63.5,26.2,74,36.7,74,49.7C74,62.6,63.5,73.1,50.6,73.1
						L50.6,73.1z M50.6,21.5c-15.5,0-28.1,12.6-28.1,28.1c0,5.3,1.5,10.3,4,14.5l-5.1,15.1l15.6-5c4,2.2,8.7,3.5,13.6,3.5
						c15.5,0,28.1-12.6,28.1-28.1C78.7,34.1,66.1,21.5,50.6,21.5L50.6,21.5z"/>
				</g>
			</g>
		</g>
	</g>
</g>
</svg>
