<?xml version="1.0" encoding="utf-8"?>
<!-- Generator: Adobe Illustrator 23.0.0, SVG Export Plug-In . SVG Version: 6.00 Build 0)  -->
<svg version="1.1" id="Capa_1" xmlns="http://www.w3.org/2000/svg" xmlns:xlink="http://www.w3.org/1999/xlink" x="0px" y="0px"
	 viewBox="0 0 100 100" style="enable-background:new 0 0 100 100;" xml:space="preserve">
<style type="text/css">
	.st0{fill:url(#SVGID_1_);stroke:url(#SVGID_2_);stroke-width:0.75;stroke-miterlimit:10;}
	.st1{fill:url(#SVGID_3_);stroke:url(#SVGID_4_);stroke-width:0.5;stroke-miterlimit:10;}
</style>
<g>
	
		<image style="overflow:visible;opacity:0.7;" width="168" height="168" xlink:href="E3C9DF44.png"  transform="matrix(1 0 0 1 -27 -23)">
	</image>
	<g>
		<g>
			<g>
				<g>
					<linearGradient id="SVGID_1_" gradientUnits="userSpaceOnUse" x1="9.714366e-02" y1="50.2448" x2="100.0971" y2="50.2448">
						<stop  offset="0" style="stop-color:#9F7425"/>
						<stop  offset="9.047072e-02" style="stop-color:#D3B664"/>
						<stop  offset="0.1398" style="stop-color:#EBD582"/>
						<stop  offset="0.2581" style="stop-color:#FFFFD7"/>
						<stop  offset="0.3602" style="stop-color:#EBD582"/>
						<stop  offset="0.4892" style="stop-color:#9F7425"/>
						<stop  offset="0.5693" style="stop-color:#D3B664"/>
						<stop  offset="0.6129" style="stop-color:#EBD582"/>
						<stop  offset="0.7366" style="stop-color:#FFFFD7"/>
						<stop  offset="0.8387" style="stop-color:#EBD582"/>
						<stop  offset="1" style="stop-color:#9F7425"/>
					</linearGradient>
					<linearGradient id="SVGID_2_" gradientUnits="userSpaceOnUse" x1="14.4933" y1="85.8487" x2="85.7011" y2="14.6409">
						<stop  offset="0" style="stop-color:#9F7425"/>
						<stop  offset="9.047072e-02" style="stop-color:#D3B664"/>
						<stop  offset="0.1398" style="stop-color:#EBD582"/>
						<stop  offset="0.2581" style="stop-color:#FFFFD7"/>
						<stop  offset="0.3602" style="stop-color:#EBD582"/>
						<stop  offset="0.4892" style="stop-color:#9F7425"/>
						<stop  offset="0.5693" style="stop-color:#D3B664"/>
						<stop  offset="0.6129" style="stop-color:#EBD582"/>
						<stop  offset="0.7366" style="stop-color:#FFFFD7"/>
						<stop  offset="0.8387" style="stop-color:#EBD582"/>
						<stop  offset="1" style="stop-color:#9F7425"/>
					</linearGradient>
					<path class="st0" d="M50.1,100.2c-27.6,0-50-22.4-50-50s22.4-50,50-50c27.6,0,50,22.4,50,50S77.7,100.2,50.1,100.2z M50.1,5.5
						C25.4,5.5,5.4,25.6,5.4,50.2S25.4,95,50.1,95c24.7,0,44.7-20.1,44.7-44.7S74.8,5.5,50.1,5.5z"/>
				</g>
				<g>
					<linearGradient id="SVGID_3_" gradientUnits="userSpaceOnUse" x1="27.26" y1="68.3992" x2="70.0684" y2="25.5908">
						<stop  offset="0" style="stop-color:#9F7425"/>
						<stop  offset="0.1559" style="stop-color:#D3B664"/>
						<stop  offset="0.2409" style="stop-color:#EBD582"/>
						<stop  offset="0.5019" style="stop-color:#FFFFD7"/>
						<stop  offset="0.7563" style="stop-color:#EBD582"/>
						<stop  offset="1" style="stop-color:#9F7425"/>
					</linearGradient>
					<linearGradient id="SVGID_4_" gradientUnits="userSpaceOnUse" x1="25.7242" y1="51.8827" x2="78.4875" y2="51.8827">
						<stop  offset="0" style="stop-color:#9F7425"/>
						<stop  offset="9.047072e-02" style="stop-color:#D3B664"/>
						<stop  offset="0.1398" style="stop-color:#EBD582"/>
						<stop  offset="0.2581" style="stop-color:#FFFFD7"/>
						<stop  offset="0.3602" style="stop-color:#EBD582"/>
						<stop  offset="0.4892" style="stop-color:#9F7425"/>
						<stop  offset="0.5693" style="stop-color:#D3B664"/>
						<stop  offset="0.6129" style="stop-color:#EBD582"/>
						<stop  offset="0.7366" style="stop-color:#FFFFD7"/>
						<stop  offset="0.8387" style="stop-color:#EBD582"/>
						<stop  offset="1" style="stop-color:#9F7425"/>
					</linearGradient>
					<path class="st1" d="M77.8,36.1c-1.9,0.8-3.9,1.4-6,1.6c2.2-1.3,3.8-3.3,4.6-5.8c-2,1.2-4.3,2.1-6.6,2.5
						c-1.9-2-4.6-3.3-7.6-3.3c-5.8,0-10.5,4.7-10.5,10.5c0,0.8,0.1,1.6,0.3,2.4c-8.7-0.4-16.4-4.6-21.6-10.9
						c-0.9,1.5-1.4,3.3-1.4,5.3c0,3.6,1.8,6.8,4.7,8.7c-1.7-0.1-3.3-0.5-4.7-1.3c0,0,0,0.1,0,0.1c0,5.1,3.6,9.3,8.4,10.3
						c-0.9,0.2-1.8,0.4-2.8,0.4c-0.7,0-1.3-0.1-2-0.2c1.3,4.2,5.2,7.2,9.8,7.3c-3.6,2.8-8.1,4.5-13,4.5c-0.8,0-1.7,0-2.5-0.1
						c4.6,3,10.1,4.7,16,4.7c19.3,0,29.8-16,29.8-29.8c0-0.5,0-0.9,0-1.4C74.6,40,76.4,38.2,77.8,36.1L77.8,36.1z M77.8,36.1"/>
				</g>
			</g>
		</g>
	</g>
</g>
</svg>
