<?xml version="1.0" encoding="utf-8"?>
<!-- Generator: Adobe Illustrator 23.0.0, SVG Export Plug-In . SVG Version: 6.00 Build 0)  -->
<svg version="1.1" id="Capa_1" xmlns="http://www.w3.org/2000/svg" xmlns:xlink="http://www.w3.org/1999/xlink" x="0px" y="0px"
	 viewBox="0 0 100 100" style="enable-background:new 0 0 100 100;" xml:space="preserve">
<style type="text/css">
	.st0{fill:url(#SVGID_1_);stroke:url(#SVGID_2_);stroke-width:0.75;stroke-miterlimit:10;}
	.st1{fill-rule:evenodd;clip-rule:evenodd;fill:url(#SVGID_3_);stroke:url(#SVGID_4_);stroke-width:0.5;stroke-miterlimit:10;}
</style>
<g>
	
		<image style="overflow:visible;opacity:0.7;" width="168" height="167" xlink:href="B29B93A4.png"  transform="matrix(1 0 0 1 -27 -22)">
	</image>
	<g>
		<g>
			<g>
				<g>
					<linearGradient id="SVGID_1_" gradientUnits="userSpaceOnUse" x1="-1.125983e-02" y1="50.3989" x2="99.9887" y2="50.3989">
						<stop  offset="0" style="stop-color:#9F7425"/>
						<stop  offset="9.047072e-02" style="stop-color:#D3B664"/>
						<stop  offset="0.1398" style="stop-color:#EBD582"/>
						<stop  offset="0.2581" style="stop-color:#FFFFD7"/>
						<stop  offset="0.3602" style="stop-color:#EBD582"/>
						<stop  offset="0.4892" style="stop-color:#9F7425"/>
						<stop  offset="0.5693" style="stop-color:#D3B664"/>
						<stop  offset="0.6129" style="stop-color:#EBD582"/>
						<stop  offset="0.7366" style="stop-color:#FFFFD7"/>
						<stop  offset="0.8387" style="stop-color:#EBD582"/>
						<stop  offset="1" style="stop-color:#9F7425"/>
					</linearGradient>
					<linearGradient id="SVGID_2_" gradientUnits="userSpaceOnUse" x1="14.3849" y1="86.0029" x2="85.5927" y2="14.7951">
						<stop  offset="0" style="stop-color:#9F7425"/>
						<stop  offset="9.047072e-02" style="stop-color:#D3B664"/>
						<stop  offset="0.1398" style="stop-color:#EBD582"/>
						<stop  offset="0.2581" style="stop-color:#FFFFD7"/>
						<stop  offset="0.3602" style="stop-color:#EBD582"/>
						<stop  offset="0.4892" style="stop-color:#9F7425"/>
						<stop  offset="0.5693" style="stop-color:#D3B664"/>
						<stop  offset="0.6129" style="stop-color:#EBD582"/>
						<stop  offset="0.7366" style="stop-color:#FFFFD7"/>
						<stop  offset="0.8387" style="stop-color:#EBD582"/>
						<stop  offset="1" style="stop-color:#9F7425"/>
					</linearGradient>
					<path class="st0" d="M50,100.4c-27.6,0-50-22.4-50-50s22.4-50,50-50c27.6,0,50,22.4,50,50S77.6,100.4,50,100.4z M50,5.7
						C25.3,5.7,5.3,25.7,5.3,50.4S25.3,95.1,50,95.1c24.7,0,44.7-20.1,44.7-44.7S74.7,5.7,50,5.7z"/>
				</g>
				<g>
					<linearGradient id="SVGID_3_" gradientUnits="userSpaceOnUse" x1="30.1277" y1="70.1449" x2="69.4148" y2="30.8578">
						<stop  offset="0" style="stop-color:#9F7425"/>
						<stop  offset="0.1559" style="stop-color:#D3B664"/>
						<stop  offset="0.2409" style="stop-color:#EBD582"/>
						<stop  offset="0.5019" style="stop-color:#FFFFD7"/>
						<stop  offset="0.7563" style="stop-color:#EBD582"/>
						<stop  offset="1" style="stop-color:#9F7425"/>
					</linearGradient>
					<linearGradient id="SVGID_4_" gradientUnits="userSpaceOnUse" x1="23.7565" y1="50.5017" x2="75.7859" y2="50.5017">
						<stop  offset="0" style="stop-color:#9F7425"/>
						<stop  offset="9.047072e-02" style="stop-color:#D3B664"/>
						<stop  offset="0.1398" style="stop-color:#EBD582"/>
						<stop  offset="0.2581" style="stop-color:#FFFFD7"/>
						<stop  offset="0.3602" style="stop-color:#EBD582"/>
						<stop  offset="0.4892" style="stop-color:#9F7425"/>
						<stop  offset="0.5693" style="stop-color:#D3B664"/>
						<stop  offset="0.6129" style="stop-color:#EBD582"/>
						<stop  offset="0.7366" style="stop-color:#FFFFD7"/>
						<stop  offset="0.8387" style="stop-color:#EBD582"/>
						<stop  offset="1" style="stop-color:#9F7425"/>
					</linearGradient>
					<path class="st1" d="M75.5,40.2c0-4.3-3.4-7.7-7.7-7.7H31.7c-4.3,0-7.7,3.4-7.7,7.7v20.7c0,4.3,3.4,7.7,7.7,7.7h36.1
						c4.3,0,7.7-3.5,7.7-7.7V40.2z M44.6,59.2V39.8l14.7,9.7L44.6,59.2z M44.6,59.2"/>
				</g>
			</g>
		</g>
	</g>
</g>
</svg>
