<?xml version="1.0" encoding="utf-8"?>
<!-- Generator: Adobe Illustrator 22.0.1, SVG Export Plug-In . SVG Version: 6.00 Build 0)  -->
<svg version="1.1" id="Capa_1" xmlns="http://www.w3.org/2000/svg" xmlns:xlink="http://www.w3.org/1999/xlink" x="0px" y="0px"
	 viewBox="0 0 520.6 475.3" style="enable-background:new 0 0 520.6 475.3;" xml:space="preserve">
<style type="text/css">
	.st0{fill:none;stroke:#000000;stroke-width:2;stroke-miterlimit:10;}
</style>
<g>
	<g>
		<g>
			<path d="M520.6,115.4c0-0.1,0-0.2,0-0.3c0,0,0-0.1,0-0.1c0-0.1-0.1-0.2-0.2-0.3c0,0,0,0,0-0.1c-19.7-16.7-33.2-4.8-35.1-2.9
				c-2.8,0.4-5.5,0.8-7.9,1.4c1.9-1.4,3.7-3,5.4-4.5c0.1,0,0.1,0,0.2,0c0.1,0,0.1,0,0.2,0c35.6-10.7,27.9-42.7,27.8-43
				c0,0,0-0.1,0-0.1c0-0.1-0.1-0.1-0.1-0.2c0,0-0.1-0.1-0.1-0.1c-0.1-0.1-0.1-0.1-0.2-0.1c0,0-0.1,0-0.1-0.1c0,0,0,0,0,0
				c0,0,0,0,0,0c-0.1,0-0.1,0-0.2,0c0,0-0.1,0-0.1,0c-0.1,0-0.3,0-0.4,0.1c0,0,0,0,0,0c-10.8,6-28.5,21.5-27.7,41.9
				c-3.3,3-7,5.9-11,8.5c0,0,0,0,0,0c0,0,0,0,0,0c-7,5.4-15,9.7-24.3,13.2c2-2.9,3.8-6.5,5-10.4c4.8-1.8,7.8-7.1,8.3-11.5
				c0.1-0.5-0.3-0.9-0.8-1c-0.5-0.1-0.9,0.3-1,0.8c-0.4,3.4-2.5,7.4-5.8,9.4c1.6-5.8,2-12.1,0.7-17.7c1-0.5,1.7-1.4,2-2.6
				c0.5-2.2-0.8-4.5-3.1-5c-2.2-0.5-4.5,0.8-5,3.1c-0.5,2.2,0.8,4.5,3.1,5c0.4,0.1,0.9,0.1,1.3,0.1c2.5,10.6-1.8,23.9-7.7,30.9
				c-9.8,3.3-21,5.7-33.9,7.2c-0.8,0.1-1.5,0.1-2.3,0.2c12-12.3,15.4-34.6,12.4-50.2c0,0,0,0,0,0c0-0.1-0.1-0.2-0.2-0.4
				c0,0-0.1,0-0.1-0.1c-0.1-0.1-0.1-0.1-0.2-0.2c0,0,0,0-0.1,0c0,0,0,0,0,0c0,0-0.1,0-0.1,0c-0.1,0-0.2,0-0.3,0c0,0-0.1,0-0.1,0
				c-0.1,0-0.2,0-0.3,0.1c0,0-0.1,0-0.1,0c0,0,0,0-0.1,0c0,0,0,0,0,0c-7.2,4.3-13,12.7-15.7,22.4c-2.7,9.8-2.3,20.9,0.9,28.7
				c-8.5,0.8-17,1.2-25.4,1.5c0,0,0,0,0,0c0,0,0,0,0,0c-2.3,0.1-4.7,0.2-7,0.2c-6.1,0.2-12.3,0.4-18.6,0.7c3.2-2.1,6.2-4.9,8.9-8.5
				c4.2-1.5,7.9-3.5,11-6c0,0,0,0,0,0c0.1-0.1,11.2-5.6,18.5-1c0.2,0.1,0.4,0.2,0.6,0.1c0.3,0,0.5-0.2,0.7-0.4
				c0.3-0.4,0.1-1-0.3-1.2c-5.1-3.2-11.6-2.1-15.9-0.8c4-4.3,6.7-9.8,8.2-16.4c0.2,0,0.4,0,0.6,0c2.5-0.2,4.7-2,5.3-4.6
				c0.8-3.2-1.2-6.5-4.4-7.3c-3.2-0.8-6.5,1.2-7.3,4.4c-0.7,3.1,1,6.1,4,7.1c-2.5,11.3-8.8,19-19.1,23.3c2.7-4.1,4.8-8.8,6-13.3
				c0.1,0,0.3,0,0.4,0c1.9-0.2,3.5-1.5,4-3.4c0.6-2.4-0.9-4.8-3.3-5.4c-1.2-0.3-2.4-0.1-3.4,0.5c-1,0.6-1.7,1.6-2,2.8
				c-0.5,2.1,0.6,4.3,2.6,5.2c-1.4,5.2-4,10.5-7.4,15c-3.5,4.7-7.6,8.1-11.9,10c-6.2,0.4-12.5,0.9-18.7,1.7c0,0-0.1,0-0.1,0
				c0,0,0,0,0,0c0,0-0.1,0-0.1,0c-2.8,0.4-5.6,0.8-8.4,1.2c-2.6,0.4-5.1,1-7.6,1.5c2.3-1.9,4.2-4.4,5.8-7.4
				c4.4-8.3,5.1-18.8,1.6-27.3c0,0,0,0,0-0.1c0-0.1-0.1-0.1-0.1-0.2c0,0-0.1-0.1-0.1-0.1c0,0,0,0-0.1-0.1c0,0-0.1,0-0.1,0
				c0,0-0.1,0-0.1-0.1c0,0,0,0-0.1,0c-0.1,0-0.1,0-0.2,0c-0.1,0-0.1,0-0.2,0c-0.1,0-0.1,0-0.2,0.1c0,0-0.1,0-0.1,0c0,0,0,0-0.1,0
				c0,0,0,0,0,0c-8.9,4.7-15.6,13.4-17.8,23.2c-0.9,3.9-1.4,9.5,0.9,14.8c-16.8,5.3-31.3,13.6-41.7,24c-0.4,0.4-0.4,0.9,0,1.3
				c0.2,0.2,0.5,0.3,0.7,0.3c0.2,0,0.4-0.1,0.6-0.3c13.8-13.8,34.8-23.8,59.2-28c2.5-0.4,5-0.8,7.5-1.1c0.8,15.8,9.6,26.3,27.6,32.9
				c0,0,0,0,0,0c0.1,0,0.3,0.1,0.4,0c0.1,0,0.3-0.1,0.4-0.1c0,0,0,0,0,0c0,0,0,0,0.1-0.1c0,0,0.1,0,0.1-0.1c0,0,0-0.1,0.1-0.1
				c0,0,0.1-0.1,0.1-0.1c0-0.1,0.1-0.2,0.1-0.3c0,0,0-0.1,0-0.1c0.2-10.8-2.4-24.1-24.1-32.7c12.6-1.4,25.3-1.8,37.7-2.2
				c2.3-0.1,4.6-0.2,6.9-0.2c5,0.2,10,1.9,14.6,4.9c6.2,5.2,4.2,18.1-0.1,24.6c-0.1,0-0.2-0.1-0.3-0.1c-1.3-0.3-2.7-0.1-3.9,0.6
				c-1.2,0.7-2,1.9-2.3,3.2c-0.7,2.8,1,5.6,3.8,6.3c0.6,0.1,1.1,0.2,1.7,0.1c2.2-0.2,4.1-1.7,4.6-4c0.3-1.4,0.1-2.7-0.6-3.9
				c-0.3-0.6-0.8-1.1-1.3-1.4c3.7-5.6,5.6-15.2,3-21.9c3.4,3,6.3,6.7,8.7,10.7c-0.7,0.6-1.3,1.4-1.5,2.4c-0.6,2.4,0.9,4.8,3.3,5.4
				c0.5,0.1,1,0.2,1.5,0.1c0.7-0.1,1.3-0.3,1.9-0.6c1-0.6,1.7-1.6,2-2.8c0.3-1.2,0.1-2.4-0.5-3.4c-0.6-1-1.6-1.7-2.8-2
				c-0.8-0.2-1.5-0.1-2.2,0.1c-3.5-6-8.3-11.3-13.8-14.8c-2.5-1.6-5.1-2.9-7.7-3.8c6.2-0.3,12.5-0.7,18.7-1.3c0,0,0.1,0,0.1,0
				c0,0,0,0,0,0l0,0l0,0c0,0,0,0,0.1,0c1.6-0.2,3.2-0.3,4.9-0.5c4.4-0.5,8.6-1.1,12.7-1.8c-0.2,3.4,0.9,12.9,16,20.1
				c10.2,4.8,17.3,5.7,22.1,5.3c5.3-0.5,7.6-2.6,7.8-2.8c0,0,0,0,0,0c0,0,0,0,0,0c0.1-0.1,0.2-0.3,0.3-0.5c0,0,0,0,0,0c0,0,0,0,0,0
				c0-0.1,0-0.2,0-0.3c0,0,0-0.1,0-0.1c0-0.1,0-0.1-0.1-0.2c0,0,0,0,0,0c0,0,0,0,0,0c-7.3-11.3-23.7-20.9-38-23
				c4.9-1.1,9.4-2.4,13.7-3.8c0.1,0,0.2,0,0.3-0.1c2.8-1,5.6-2,8.2-3.1c0,0,0,0,0,0c6.6-3.1,13.7-2.7,18.5-1.8
				c3.4,0.6,6.7,1.6,10,2.6c0.7,0.2,1.5,0.4,2.2,0.6c0,0,0,0,0,0c2.6,0.6,6.4,2.8,8.2,5.6c0,0,0,0,0,0c1.7,2.6,2.4,5.4,0.7,11
				c-0.5-0.1-1-0.1-1.4,0c-1.2,0.2-2.2,0.9-2.8,1.9c-0.6,1-0.9,2.2-0.6,3.3c0.5,2.2,2.5,3.7,4.7,3.5c0.2,0,0.3,0,0.5-0.1
				c1.2-0.2,2.2-0.9,2.8-1.9c0.7-1,0.9-2.2,0.6-3.3c-0.3-1.3-1-2.3-2.1-2.9c0.7-2.3,1-4.2,1-5.9c2.1,2.2,5.8,5,10.9,4.6
				c0.5,0,0.9-0.1,1.4-0.2c0.5-0.1,0.8-0.6,0.7-1.1c-0.1-0.5-0.6-0.8-1.1-0.7c-7.6,1.6-12-5.4-12.4-6c-0.3-1.1-0.8-2.2-1.5-3.2
				c0,0,0,0,0,0c-0.7-1.1-1.6-2-2.6-2.9c3.6,0.7,6.8,0.9,9.8,0.7c0.9-0.1,1.7-0.2,2.5-0.4c0,0.1,0.1,0.2,0.1,0.3
				c0.7,1.1,1.7,1.8,2.9,2.1c0.5,0.1,1,0.2,1.5,0.1c0.7-0.1,1.4-0.3,2-0.7c1.1-0.7,1.8-1.7,2.1-2.9c0.3-1.2,0.1-2.5-0.6-3.5
				c-0.7-1.1-1.7-1.8-2.9-2.1c-2.5-0.6-5,0.9-5.6,3.5c-0.1,0.5-0.1,1-0.1,1.5c-3.8,0.7-8.1,0.5-13.1-0.7c-2.5-0.6-5.1-1.3-7.5-2
				c-3.3-1-6.7-2-10.2-2.6c-2.9-0.5-6.6-0.9-10.6-0.4c3.9-2.2,7.6-4.5,11-7.1c2.7-1.5,7.7-2.6,13.5-3.3c5.3,6,12.9,7.1,19.6,6.5
				c7.9-0.7,14.6-3.7,15.1-4c0,0,0,0,0,0c0.1-0.1,0.2-0.1,0.3-0.2c0,0,0,0,0,0c0,0,0,0,0,0c0.1-0.1,0.1-0.2,0.1-0.4
				C520.6,115.5,520.6,115.5,520.6,115.4C520.6,115.5,520.6,115.4,520.6,115.4z M448.9,95.9c-0.3-0.5-0.4-1.2-0.3-1.8
				c0.1-0.6,0.5-1.1,1.1-1.4c0.3-0.2,0.7-0.3,1-0.3c0.3,0,0.5,0,0.8,0.1c0.6,0.1,1.1,0.5,1.4,1.1c0.3,0.5,0.4,1.2,0.3,1.8
				c-0.1,0.6-0.5,1.1-1.1,1.4c-0.5,0.3-1.2,0.4-1.8,0.3C449.7,96.8,449.2,96.5,448.9,95.9z M380.6,102c-0.6-1-0.8-2.1-0.5-3.2
				c0.3-1.1,0.9-2,1.9-2.6c0.6-0.3,1.2-0.5,1.8-0.6c0.5,0,0.9,0,1.4,0.1c1.1,0.3,2,0.9,2.6,1.9c0.6,1,0.8,2.1,0.5,3.2
				c-0.3,1.1-0.9,2-1.9,2.6c-1,0.6-2.1,0.8-3.2,0.5C382.1,103.6,381.2,103,380.6,102z M366.6,110.4c0.2-0.7,0.6-1.3,1.2-1.7
				c0.4-0.2,0.7-0.3,1.2-0.4c0.3,0,0.6,0,0.9,0.1c0.7,0.2,1.3,0.6,1.7,1.2c0.4,0.6,0.5,1.3,0.3,2c-0.2,0.7-0.6,1.3-1.2,1.7
				c-0.6,0.4-1.3,0.5-2,0.3C367.1,113.3,366.2,111.9,366.6,110.4z M317.4,136.5c-1.6,3.1-3.7,5.6-6,7.4c-2.1,1.7-4.3,2.5-6.8,2.9
				c4.1-16.4,12.1-29.9,14.9-34.3C322.1,120.2,321.3,129.2,317.4,136.5z M303.2,133.3c1.8-8.1,6.9-15.4,13.7-20.1
				c-3.3,5.5-9.9,17.4-13.7,31.6C302.1,140.6,302.5,136.3,303.2,133.3z M330.7,146.2c3.6,5.3,11.9,17,21.9,27.1
				C338.9,167.3,332,158.7,330.7,146.2z M355.6,173.8c-11.2-10.8-20.4-24-23.9-29.2C343.7,149,355.2,156.2,355.6,173.8z
				 M394.3,176.1c-0.4,1.8-2.3,2.9-4.1,2.5c-1.8-0.4-2.9-2.3-2.5-4.1c0.2-0.9,0.8-1.6,1.5-2.1c0.5-0.3,0.9-0.4,1.5-0.5
				c0.4,0,0.7,0,1.1,0.1c0.9,0.2,1.6,0.8,2.1,1.5C394.4,174.3,394.5,175.2,394.3,176.1z M409.2,160.8c0.7,0.2,1.3,0.6,1.6,1.2
				c0.4,0.6,0.5,1.3,0.3,2c-0.2,0.7-0.6,1.3-1.2,1.6c-0.6,0.4-1.3,0.5-2,0.3c-1.4-0.3-2.3-1.8-2-3.2c0.2-0.8,0.7-1.4,1.4-1.7
				c0,0,0,0,0.1,0c0,0,0,0,0,0C408,160.7,408.6,160.6,409.2,160.8z M405.9,135.9c2.4-24.5,9.5-40.4,12.4-46
				C420.4,104.9,416.8,124.7,405.9,135.9z M404.3,109.3c2.1-7.9,6.4-14.8,11.8-19.2c-3.1,6.4-9.5,21.6-11.9,44.2
				C402.1,127.1,402.1,117.6,404.3,109.3z M493.9,152.1c-0.4,0.6-1,1-1.7,1.1c-1.4,0.3-2.8-0.6-3.1-2c-0.1-0.7,0-1.4,0.4-2
				c0.4-0.6,1-1,1.7-1.1c0.1,0,0.2,0,0.3,0c1.3-0.1,2.5,0.8,2.8,2.1C494.4,150.8,494.3,151.5,493.9,152.1z M504.1,128.8
				c0.3-1.2,1.3-2.1,2.5-2.2c0.3,0,0.6,0,0.9,0.1c0.7,0.2,1.4,0.6,1.8,1.3c0.4,0.7,0.5,1.4,0.3,2.2c-0.2,0.7-0.6,1.4-1.3,1.8
				c-0.7,0.4-1.4,0.5-2.2,0.3c-0.7-0.2-1.4-0.6-1.8-1.3C504,130.3,503.9,129.5,504.1,128.8z M514.1,112.3
				c-6.7-1.5-16.7-1.7-25.8-0.9C492.2,108.6,501.3,104.2,514.1,112.3z M485.7,105.9c14.1-13.9,21.4-29.8,24-36.5
				C510.6,77.2,510.2,97,485.7,105.9z M508.4,67.9c-2.3,6.1-9.6,23-24.6,37.4C484,95.6,489.5,79.3,508.4,67.9z M439.1,155.3
				c-13-6.1-14.8-14-14.9-17.5c4.6,4.3,19.9,17.4,40.9,21.4C461.8,160.7,453.9,162.3,439.1,155.3z M465.6,157.5
				c-20.3-3.9-35.3-16.4-40-20.8C439.4,137,457.3,146.3,465.6,157.5z M487.7,113.4c11.1-1.1,24.2-0.7,30,1.8
				C512.5,117.2,496.8,122.1,487.7,113.4z"/>
		</g>
		<g>
			<path d="M405.4,34.8c-3.2,0.6-6.4,2.2-9.9,5.2c-1.2,1-2.4,2.1-3.5,3.2c-1.5,1.4-3.1,2.9-4.8,4.2c-3.2,2.5-6.6,4.9-10.7,6.1
				c-2.3-0.2-4.6-0.2-7-0.1c1.9-1,3.5-2.2,4.6-3.3c1.4-1.3,2.7-2.8,4-4.3c0.9-1.1,1.9-2.2,2.9-3.2c2-2,3.9-3.4,5.9-4.2
				c0.1,0.2,0.3,0.5,0.5,0.7c1,1,2.7,1,3.7-0.1c0.5-0.5,0.7-1.2,0.7-1.9c0-0.7-0.3-1.4-0.8-1.8c-1.1-1-2.7-1-3.7,0.1
				c-0.1,0.1-0.1,0.1-0.1,0.2c-0.4,0.5-0.6,1.1-0.6,1.7c0,0,0,0.1,0,0.1c-1.9,0.7-3.7,2-5.5,3.7c0.2-0.6,0.3-1.2,0.3-1.8
				c2.5-3.3,2.1-8.8,1.7-10.5c-0.4-1.6-1.3-3.5-2.9-3.9c-0.9-0.2-1.7,0-2.3,0.7c-0.4,0.4-0.6,1-0.8,1.5c-0.6-0.6-1.5-1.1-2.4-1.3
				c-1-0.1-1.8,0-2.5,0.6c-0.7,0.6-1.1,1.5-1,2.4c0,0.1,0,0.2,0.1,0.3c-0.8,0-1.6,0.2-2.1,0.8c-0.1,0.1-0.1,0.2-0.2,0.3
				c-0.6,1-0.4,1.8-0.2,2.3c0.5,1.3,2.2,2.1,3.6,2.4c4.1,0.9,7.4,3.6,7.8,4.3l0,0c0,0,0,0,0,0c0,1.8-1.1,4-2.1,5.1c0,0,0,0,0,0
				c-0.3,0.3-0.6,0.6-0.8,1c-1.2,1.4-2.5,2.9-3.9,4.2c-2,1.8-5.2,4.1-9.2,4.7c0,0,0,0,0,0c-1.6,0.3-3.2,0.6-4.9,1c0,0,0,0-0.1,0
				c-2.4,0.6-4.8,1.3-7.4,2.2c6-5.3,10.7-14.6,10.7-22c0,0,0-0.1,0-0.1c0,0,0,0,0,0c0-0.1-0.1-0.1-0.1-0.2c0,0,0,0,0,0c0,0,0,0,0,0
				c0,0-0.1-0.1-0.1-0.1c0,0-0.1,0-0.1,0c0,0,0,0-0.1,0c-0.2,0-4.7-0.7-10.9,6.9c-0.8,0.9-1.5,2-2.4,3.2c-4.9,7.3-2.5,12.5-1.4,14.2
				c-2.1,0.9-4.2,1.8-6.5,2.9c-0.8,0.4-1.6,0.8-2.4,1.2c0,0,0,0,0,0c-3.1,1.6-6.1,3.2-9.1,5c0.9-1.2,1.7-2.5,2.3-3.9
				c1.5-3.3,2.2-7.2,2-11c0.4-0.1,0.7-0.3,1-0.6c0.5-0.5,0.7-1.1,0.7-1.8c0-0.7-0.3-1.3-0.8-1.8c-0.5-0.5-1.1-0.7-1.8-0.7
				c-0.7,0-1.3,0.3-1.8,0.8c0,0.1-0.1,0.1-0.1,0.2c-0.8,1-0.7,2.5,0.2,3.4c0.4,0.4,0.9,0.6,1.4,0.7c0.1,2.5-0.2,5-0.8,7.4
				c-0.9-3.9-4.6-7.7-7.9-9.2c0.4-1.1,0.1-2.3-0.7-3.1c-1.2-1.1-3-1.1-4.1,0.1c-0.1,0.1-0.1,0.1-0.2,0.2c-1,1.2-0.9,2.9,0.2,4
				c1.2,1.1,3,1.1,4.1-0.1c0,0,0.1-0.1,0.1-0.1c3.9,1.7,8.7,7.2,7.4,11.4c-1.3,2.8-3.1,5.1-5.4,6.7c-1.1,0.7-2.2,1.3-3.3,2
				c-5.9,3.5-11.9,7.1-18.1,10.2c7.5-10.4,4.7-17.4,1.4-22.4c0,0,0,0,0,0c0,0-0.1-0.1-0.1-0.1c0,0-0.1,0-0.1,0c0,0,0,0-0.1,0
				c0,0,0,0-0.1,0c0,0,0,0-0.1,0c0,0-0.1,0-0.1,0c0,0-0.1,0-0.1,0c-0.1,0-0.2,0.1-0.2,0.2l0,0l0,0l0,0c0,0,0,0,0,0
				c-6.4,8.5-7.4,16-3.1,23.6c-1.3,0.6-2.5,1.2-3.8,1.7c-12.6,5.3-25.4,7-36,4.6c-0.2,0-0.4,0-0.5,0.2c-0.1,0.1-0.1,0.1-0.1,0.2
				c-0.1,0.3,0.1,0.6,0.4,0.6c8,1.8,17.2,1.3,26.7-1.3c0.5,3.2,2.5,5.6,4,7.2c4,4,9.7,6,15.4,5.5c0,0,0,0,0.1,0c0.1,0,0.1,0,0.1,0
				c0,0,0,0,0,0c0,0,0.1-0.1,0.1-0.1c0,0,0,0,0,0c0,0,0,0,0-0.1c0,0,0,0,0-0.1c0,0,0,0,0,0c0,0,0-0.1,0-0.1c0,0,0-0.1,0-0.1
				c0,0,0,0,0,0c-0.9-5-4.4-9.8-8.9-12.3c-1.6-0.9-3.2-1.4-4.8-1.7c1.3-0.5,2.6-1,3.9-1.5c1.5-0.6,2.9-1.3,4.3-1.9
				c0,0,0.1,0,0.1-0.1c3.1-1.5,6.2-3.1,9.2-4.8c2.5-0.4,5.5,0,8.5,1.1c2.9,1.1,5.7,2.8,7.9,4.8c-0.3,0.4-0.4,0.9-0.4,1.4
				c0,0.7,0.3,1.3,0.8,1.8c0.5,0.5,1.1,0.7,1.8,0.7c0.7,0,1.3-0.3,1.8-0.8c0.5-0.5,0.7-1.1,0.7-1.8c0-0.7-0.3-1.3-0.8-1.8
				c-0.9-0.8-2.1-0.9-3.1-0.3c-1.9-1.7-4.2-3.2-6.7-4.4c6-1,11.2,0.7,15.7,5.2c-0.5,0.6-0.8,1.4-0.7,2.2c0,0.9,0.4,1.7,1,2.4
				c0.7,0.6,1.5,1,2.4,0.9c0.9,0,1.7-0.4,2.4-1c0.6-0.7,1-1.5,0.9-2.4c0-0.9-0.4-1.7-1-2.4c-1.2-1.1-2.9-1.2-4.2-0.4
				c-2.6-2.6-5.5-4.3-8.6-5.1c2.4-0.7,5.7-2.1,7.1-5.1c0.1-0.3,0-0.6-0.3-0.7c-0.3-0.1-0.6,0-0.7,0.3c-2,4.3-8.8,5-8.9,5
				c0,0,0,0,0,0c-2.2-0.2-4.5-0.1-6.9,0.5c-2.3-0.8-4.5-1.3-6.5-1.3c3-1.7,5.9-3.4,8.8-5.1c1.1-0.7,2.2-1.3,3.4-2l0,0l0,0
				c4-2.4,8.1-4.7,12.3-6.9c0.9,4.6,4,9.9,8.2,13.6c4.1,3.8,9.4,5.9,14,5.8c0,0,0,0,0,0c0,0,0,0,0,0c0,0,0,0,0,0c0.1,0,0.1,0,0.2,0
				c0,0,0,0,0.1,0c0,0,0.1-0.1,0.1-0.1c0,0,0,0,0,0c0,0,0,0,0,0c0,0,0,0,0,0c0,0,0-0.1,0-0.1c0,0,0,0,0-0.1c0-0.1,0-0.2,0-0.2
				c0,0,0,0,0,0c-3.2-8.2-11.5-17.5-20.7-19.8c0.3-0.2,0.7-0.4,1-0.5c6.5-3.2,12.4-5.4,18-6.8c4.8,1.5,10.8,6.4,12.8,12.1
				c-0.2,0.1-0.4,0.2-0.6,0.4c0,0-0.1,0.1-0.1,0.1c-0.8,0.9-0.7,2.3,0.2,3.2c0.5,0.4,1,0.7,1.7,0.7c0.6,0,1.2-0.3,1.6-0.7
				c0.9-0.9,0.9-2.4-0.1-3.3c-0.5-0.5-1.1-0.7-1.7-0.6c-1-3-3.1-5.7-5.5-8c2.1,0,4.2,1.2,5.4,2.6c0.2,0.2,0.5,0.3,0.8,0.1
				c0.2-0.2,0.3-0.5,0.1-0.8c-1.6-1.9-4.5-3.5-7.3-2.9c-1.7-1.4-3.6-2.5-5.4-3.3c5.3-1.1,10.2-1.5,15-1.1c0,0,0,0,0.1,0
				c0,0,0,0,0.1,0c1.9,1.2,3.2,3.3,3.8,6c0.5,2.6,0.2,5.3-0.1,7.8l-0.1,0.7c-0.3,2.4-0.7,4.9-0.4,7.4c0.2,2,0.8,3.7,1.7,4.9
				c1.2,1.6,3,2.5,4.8,2.3c1.5-0.1,2.7-1.1,3.3-2.3c1.2,1.5,3.2,2.3,5,1.8c2-0.5,3.6-2.4,3.7-4.5c0.2,0.1,0.4,0.2,0.7,0.3
				c1.1,0.4,2.2,0.3,3.1-0.2c0.9-0.5,1.6-1.6,1.8-2.8c0.1-0.7,0.1-1.4,0-2.1c2.4,0.9,5.4,0.2,7-1.9c1.6-2.1,1.5-5.3-0.1-7.4
				c1.2-0.3,2.4-0.7,3.4-1.4c1.5-1,2.5-2.6,2.5-4.1c0-2.3-1-3.8-2.4-4.9c0.7-0.1,1.4-0.4,2-0.8c1-0.8,1.6-2,1.6-3.2
				c0-1.2-0.6-2.3-1.6-3.1c-0.3-0.3-0.7-0.5-1.1-0.7c1.3-0.8,2.2-2.2,2.3-3.7c0.2-1.5-0.3-3.1-1.4-4.4
				C413.7,35.5,409.6,34.1,405.4,34.8z M374.3,69.3c0.5,0.5,0.5,1.2,0.1,1.7c0,0,0,0.1-0.1,0.1c-0.2,0.2-0.5,0.4-0.9,0.4
				c-0.3,0-0.7-0.1-0.9-0.4l0,0c-0.5-0.5-0.5-1.3,0-1.8C373,68.8,373.8,68.8,374.3,69.3z M338.4,87.8c0-0.6,0.2-1.2,0.6-1.6
				c0.4-0.4,1-0.7,1.6-0.7c0.6,0,1.2,0.2,1.6,0.6c0.4,0.4,0.7,1,0.7,1.6c0,0.5-0.2,1.1-0.5,1.5c0,0-0.1,0.1-0.1,0.1
				c-0.4,0.4-1,0.7-1.6,0.7c-0.6,0-1.2-0.2-1.6-0.6C338.7,89,338.4,88.4,338.4,87.8z M328.9,87c0-0.4,0.1-0.7,0.4-1
				c0.6-0.6,1.5-0.6,2,0c0.3,0.3,0.4,0.6,0.4,1c0,0.3-0.1,0.7-0.3,0.9c0,0-0.1,0.1-0.1,0.1c-0.3,0.3-0.6,0.4-1,0.4
				c-0.4,0-0.8-0.1-1-0.4C329,87.8,328.9,87.4,328.9,87z M306.6,101.1c-2.7-1.3-10.4-5.2-17.1-11.5c1.2-0.6,2.5-0.8,4-0.7
				c1.6,0.1,3.3,0.7,5,1.6C302.5,92.8,305.5,96.8,306.6,101.1z M292.9,96.3c-1.2-1.2-2.6-3-3.4-5.2c5.9,5.3,12.3,8.9,15.6,10.5
				C300.6,101.4,296.1,99.5,292.9,96.3z M303.8,63.1c-1.6,7.6-2,15.3-2.1,18.9C298.8,75.8,299.4,69.8,303.8,63.1z M302.8,82.4
				c0.1-3.5,0.4-12.3,2.4-20.6C310.1,70.1,307.1,76.8,302.8,82.4z M322.6,51.7c-0.7,0.7-1.9,0.8-2.6,0.1c-0.7-0.7-0.8-1.9-0.1-2.6
				c0.7-0.7,1.9-0.8,2.6-0.1C323.3,49.8,323.3,51,322.6,51.7z M333.1,52.2c-0.4,0-0.7-0.1-1-0.4c-0.3-0.3-0.4-0.6-0.4-1
				c0-0.4,0.1-0.7,0.4-1c0.3-0.3,0.6-0.4,1-0.4c0.4,0,0.7,0.1,1,0.4c0.3,0.3,0.4,0.6,0.4,1c0,0.3-0.1,0.7-0.3,0.9
				c0,0-0.1,0.1-0.1,0.1C333.9,52,333.5,52.2,333.1,52.2z M359.5,82.1c-3.1-1.8-11.1-7.1-19.4-17.7C348.5,66.4,356,74.5,359.5,82.1z
				 M347.3,77.3c-3.5-3.1-6.3-7.5-7.5-11.5c7.7,9.6,15.1,14.8,18.5,16.9C354.6,82.2,350.6,80.3,347.3,77.3z M388.1,38.3
				c-0.3-0.3-0.5-0.7-0.5-1.1c0-0.4,0.1-0.8,0.4-1.1c0.6-0.6,1.6-0.6,2.2,0c0.6,0.6,0.6,1.5,0.1,2.1c0,0-0.1,0.1-0.1,0.1
				C389.7,38.9,388.7,38.9,388.1,38.3z M381.7,36.1c-0.1-1.1-0.5-2.5-1.5-4c-0.2-0.3-0.5-0.3-0.8-0.2c0,0-0.1,0.1-0.1,0.1
				c-0.1,0.2-0.2,0.4,0,0.6c0.7,1.1,1.1,2.2,1.2,3.1c-0.8-1.4-2.2-2.8-4.5-4.4c-0.2-0.2-0.6-0.1-0.7,0.1c0,0,0,0,0,0
				c-0.2,0.2-0.1,0.6,0.1,0.8c2.9,2.1,4.1,3.6,4.6,5c-1.5-1.3-4.2-2.9-7.3-3.6c-1.2-0.3-2.5-0.9-2.8-1.7c-0.2-0.4-0.1-0.8,0.2-1.3
				c0.5-0.8,1.7-0.6,2.5-0.2c0.3,0.1,0.6,0,0.7-0.3c0.1-0.3,0-0.6-0.2-0.7c-0.4-0.2-0.6-0.5-0.6-0.9c-0.1-0.5,0.2-1,0.6-1.4
				c0.4-0.3,0.9-0.4,1.6-0.3c1.2,0.2,2.3,1.5,2.7,2c0.1,0.2,0.5,0.3,0.7,0.2c0.3-0.1,0.4-0.4,0.2-0.7c-0.2-0.6,0-1.6,0.5-2.1
				c0.3-0.4,0.7-0.5,1.2-0.4c1,0.3,1.8,1.8,2.1,3.1C382.2,30.2,382.5,33.4,381.7,36.1z M397,76.7c-2.9-2.6-4.8-6.2-6.7-9.5
				c-0.4-0.7-0.8-1.5-1.2-2.2c-1.8-3.2-3.9-6.4-7.1-8.8c-0.3-0.2-0.6-0.4-0.9-0.6c7.8,2.6,13.9,10.6,14,10.7
				c0.2,0.2,0.5,0.3,0.8,0.1c0.2-0.2,0.3-0.5,0.1-0.8c-0.3-0.4-6.7-8.9-15.2-11.3c11-0.7,18,3.7,18.1,3.7c0.3,0.2,0.6,0.1,0.8-0.2
				c0.2-0.3,0.1-0.6-0.2-0.7c-0.3-0.2-5.4-3.4-13.9-3.9c7.7-1.2,18.7-2.3,25.2,0.5c2.5,1.1,4.8,2.4,4.8,5.6c0,1.4-1,2.6-2,3.2
				c-1.2,0.8-2.6,1.2-4,1.5c-0.2,0.1-0.3,0.2-0.4,0.4c0,0.2,0,0.4,0.2,0.5c1.8,1.6,2.1,4.7,0.6,6.6c-1.5,1.9-4.5,2.5-6.5,1.2
				c-0.2-0.1-0.4-0.1-0.6,0c-0.2,0.1-0.3,0.3-0.2,0.5c0.1,1,0.2,1.9,0.1,2.8c-0.2,0.9-0.6,1.7-1.3,2c-0.6,0.3-1.4,0.4-2.2,0.1
				C398.3,77.8,397.5,77.2,397,76.7z M381.3,60.4c-0.2-0.9-0.5-1.8-0.8-2.6c5.4,5.7,4.3,12.9,4.3,13.3c0,0.3,0.2,0.6,0.5,0.6
				c0.3,0,0.6-0.2,0.6-0.5c0-0.1,1.2-8.3-4.9-14.5c0.1,0.1,0.3,0.2,0.4,0.3c3.1,2.3,5.1,5.4,6.8,8.5c0.4,0.7,0.8,1.5,1.2,2.2
				c1.9,3.5,3.8,7.1,6.9,9.8c0.2,0.2,0.4,0.4,0.7,0.6c0.3,1.8-1.1,3.8-2.9,4.2c-1.8,0.4-3.9-0.7-4.5-2.5c-0.1-0.3-0.3-0.4-0.6-0.4
				c-0.3,0-0.5,0.3-0.4,0.6c0.1,1.3-1.2,2.6-2.6,2.7c-1.4,0.1-2.8-0.6-3.8-1.9c-0.8-1.1-1.3-2.6-1.5-4.4c-0.2-2.4,0.1-4.8,0.4-7.2
				l0.1-0.7C381.5,65.9,381.8,63.1,381.3,60.4z M360.5,35.9c-1.2,1.1-2.3,2.3-3.2,3.5c-6,7.3-8.5,15.4-9.2,18.4
				c-1-1.9-2.4-6.3,1.8-12.4C354.6,38.3,358.5,36.4,360.5,35.9z M349.1,58c0.9-3.5,4.2-13.7,12.4-21.5
				C360.9,44.2,355.4,53.8,349.1,58z M415,39.1c0.9,1.2,1.3,2.5,1.2,3.7c-0.2,1.7-1.6,3.2-3.3,3.4c-0.1,0-0.2,0-0.3,0
				c-0.3,0-0.5,0.3-0.4,0.6c0,0.3,0.3,0.5,0.6,0.5c0.1,0,0.2,0,0.2,0c0.8-0.1,1.6,0.2,2.3,0.8c0.8,0.6,1.2,1.5,1.2,2.3
				c0,0.9-0.4,1.7-1.2,2.3c-0.9,0.7-2.2,0.8-3.5,0.4c-0.3-0.1-0.6-0.3-0.9-0.4c-6.1-2.7-16-2-23.6-0.9c6.6-3,10.7-7.3,10.9-7.5
				c0.2-0.2,0.2-0.6,0-0.8c-0.2-0.2-0.6-0.2-0.8,0c-0.1,0.1-6.4,6.6-15.8,9.2c-0.3,0-0.5,0.1-0.7,0.1c2.5-1.3,4.8-3,6.9-4.6
				c1.7-1.3,3.3-2.8,4.8-4.2c1.1-1,2.3-2.1,3.5-3.1c3.4-2.9,6.4-4.4,9.4-5C409.4,35.2,413.1,36.5,415,39.1z"/>
		</g>
	</g>
	<g>
		<g>
			<path d="M0,356.1c0,0.1,0,0.2,0,0.3c0,0,0,0.1,0,0.1c0,0.1,0.1,0.2,0.2,0.3c0,0,0,0,0,0.1c19.7,16.7,33.2,4.8,35.1,2.9
				c2.8-0.4,5.5-0.8,7.9-1.4c-1.9,1.4-3.7,3-5.4,4.5c-0.1,0-0.1,0-0.2,0c-0.1,0-0.1,0-0.2,0c-35.6,10.7-27.9,42.7-27.8,43
				c0,0,0,0.1,0,0.1c0,0.1,0.1,0.1,0.1,0.2c0,0,0.1,0.1,0.1,0.1c0.1,0.1,0.1,0.1,0.2,0.1c0,0,0.1,0,0.1,0.1c0,0,0,0,0,0c0,0,0,0,0,0
				c0.1,0,0.1,0,0.2,0c0,0,0.1,0,0.1,0c0.1,0,0.3,0,0.4-0.1c0,0,0,0,0,0c10.8-6,28.5-21.5,27.7-41.9c3.3-3,7-5.9,11-8.5c0,0,0,0,0,0
				c0,0,0,0,0,0c7-5.4,15-9.7,24.3-13.2c-2,2.9-3.8,6.5-5,10.4c-4.8,1.8-7.8,7.1-8.3,11.5c-0.1,0.5,0.3,0.9,0.8,1
				c0.5,0.1,0.9-0.3,1-0.8c0.4-3.4,2.5-7.4,5.8-9.4c-1.6,5.8-2,12.1-0.7,17.7c-1,0.5-1.7,1.4-2,2.6c-0.5,2.2,0.8,4.5,3.1,5
				c2.2,0.5,4.5-0.8,5-3.1c0.5-2.2-0.8-4.5-3.1-5c-0.4-0.1-0.9-0.1-1.3-0.1c-2.5-10.6,1.8-23.9,7.7-30.9c9.8-3.3,21-5.7,33.9-7.2
				c0.8-0.1,1.5-0.1,2.3-0.2c-12,12.3-15.4,34.6-12.4,50.2c0,0,0,0,0,0c0,0.1,0.1,0.2,0.2,0.4c0,0,0.1,0,0.1,0.1
				c0.1,0.1,0.1,0.1,0.2,0.2c0,0,0,0,0.1,0c0,0,0,0,0,0c0,0,0.1,0,0.1,0c0.1,0,0.2,0,0.3,0c0,0,0.1,0,0.1,0c0.1,0,0.2,0,0.3-0.1
				c0,0,0.1,0,0.1,0c0,0,0,0,0.1,0c0,0,0,0,0,0c7.2-4.3,13-12.7,15.7-22.4c2.7-9.8,2.3-20.9-0.9-28.7c8.5-0.8,17-1.2,25.4-1.5
				c0,0,0,0,0,0c0,0,0,0,0,0c2.3-0.1,4.7-0.2,7-0.2c6.1-0.2,12.3-0.4,18.6-0.7c-3.2,2.1-6.2,4.9-8.9,8.5c-4.2,1.5-7.9,3.5-11,6
				c0,0,0,0,0,0c-0.1,0.1-11.2,5.6-18.5,1c-0.2-0.1-0.4-0.2-0.6-0.1c-0.3,0-0.5,0.2-0.7,0.4c-0.3,0.4-0.1,1,0.3,1.2
				c5.1,3.2,11.6,2.1,15.9,0.8c-4,4.3-6.7,9.8-8.2,16.4c-0.2,0-0.4,0-0.6,0c-2.5,0.2-4.7,2-5.3,4.6c-0.8,3.2,1.2,6.5,4.4,7.3
				c3.2,0.8,6.5-1.2,7.3-4.4c0.7-3.1-1-6.1-4-7.1c2.5-11.3,8.8-19,19.1-23.3c-2.7,4.1-4.8,8.8-6,13.3c-0.1,0-0.3,0-0.4,0
				c-1.9,0.2-3.5,1.5-4,3.4c-0.6,2.4,0.9,4.8,3.3,5.4c1.2,0.3,2.4,0.1,3.4-0.5c1-0.6,1.7-1.6,2-2.8c0.5-2.1-0.6-4.3-2.6-5.2
				c1.4-5.2,4-10.5,7.4-15c3.5-4.7,7.6-8.1,11.9-10c6.2-0.4,12.5-0.9,18.7-1.7c0,0,0.1,0,0.1,0c0,0,0,0,0,0c0,0,0.1,0,0.1,0
				c2.8-0.4,5.6-0.8,8.4-1.2c2.6-0.4,5.1-1,7.6-1.5c-2.3,1.9-4.2,4.4-5.8,7.4c-4.4,8.3-5.1,18.8-1.6,27.3c0,0,0,0,0,0.1
				c0,0.1,0.1,0.1,0.1,0.2c0,0,0.1,0.1,0.1,0.1c0,0,0,0,0.1,0.1c0,0,0.1,0,0.1,0c0,0,0.1,0,0.1,0.1c0,0,0,0,0.1,0c0.1,0,0.1,0,0.2,0
				c0.1,0,0.1,0,0.2,0c0.1,0,0.1,0,0.2-0.1c0,0,0.1,0,0.1,0c0,0,0,0,0.1,0c0,0,0,0,0,0c8.9-4.7,15.6-13.4,17.8-23.2
				c0.9-3.9,1.4-9.5-0.9-14.8c16.8-5.3,31.3-13.6,41.7-24c0.4-0.4,0.4-0.9,0-1.3c-0.2-0.2-0.5-0.3-0.7-0.3c-0.2,0-0.4,0.1-0.6,0.3
				c-13.8,13.8-34.8,23.8-59.2,28c-2.5,0.4-5,0.8-7.5,1.1c-0.8-15.8-9.6-26.3-27.6-32.9c0,0,0,0,0,0c-0.1,0-0.3-0.1-0.4,0
				c-0.1,0-0.3,0.1-0.4,0.1c0,0,0,0,0,0c0,0,0,0-0.1,0.1c0,0-0.1,0-0.1,0.1c0,0,0,0.1-0.1,0.1c0,0-0.1,0.1-0.1,0.1
				c0,0.1-0.1,0.2-0.1,0.3c0,0,0,0.1,0,0.1c-0.2,10.8,2.4,24.1,24.1,32.7c-12.6,1.4-25.3,1.8-37.7,2.2c-2.3,0.1-4.6,0.2-6.9,0.2
				c-5-0.2-10-1.9-14.6-4.9c-6.2-5.2-4.2-18.1,0.1-24.6c0.1,0,0.2,0.1,0.3,0.1c1.3,0.3,2.7,0.1,3.9-0.6c1.2-0.7,2-1.9,2.3-3.2
				c0.7-2.8-1-5.6-3.8-6.3c-0.6-0.1-1.1-0.2-1.7-0.1c-2.2,0.2-4.1,1.7-4.6,4c-0.3,1.4-0.1,2.7,0.6,3.9c0.3,0.6,0.8,1.1,1.3,1.4
				c-3.7,5.6-5.6,15.2-3,21.9c-3.4-3-6.3-6.7-8.7-10.7c0.7-0.6,1.3-1.4,1.5-2.4c0.6-2.4-0.9-4.8-3.3-5.4c-0.5-0.1-1-0.2-1.5-0.1
				c-0.7,0.1-1.3,0.3-1.9,0.6c-1,0.6-1.7,1.6-2,2.8c-0.3,1.2-0.1,2.4,0.5,3.4c0.6,1,1.6,1.7,2.8,2c0.8,0.2,1.5,0.1,2.2-0.1
				c3.5,6,8.3,11.3,13.8,14.8c2.5,1.6,5.1,2.9,7.7,3.8c-6.2,0.3-12.5,0.7-18.7,1.3c0,0-0.1,0-0.1,0c0,0,0,0,0,0l0,0h0c0,0,0,0-0.1,0
				c-1.6,0.2-3.2,0.3-4.9,0.5c-4.4,0.5-8.6,1.1-12.7,1.8c0.2-3.4-0.9-12.9-16-20.1c-10.2-4.8-17.3-5.7-22.1-5.3
				c-5.3,0.5-7.6,2.6-7.8,2.8c0,0,0,0,0,0c0,0,0,0,0,0c-0.1,0.1-0.2,0.3-0.3,0.5c0,0,0,0,0,0c0,0,0,0,0,0c0,0.1,0,0.2,0,0.3
				c0,0,0,0.1,0,0.1c0,0.1,0,0.1,0.1,0.2c0,0,0,0,0,0c0,0,0,0,0,0c7.3,11.3,23.7,20.9,38,23c-4.9,1.1-9.4,2.4-13.7,3.8
				c-0.1,0-0.2,0-0.3,0.1c-2.8,1-5.6,2-8.2,3.1c0,0,0,0,0,0c-6.6,3.1-13.7,2.7-18.5,1.8c-3.4-0.6-6.7-1.6-10-2.6
				c-0.7-0.2-1.5-0.4-2.2-0.6c0,0,0,0,0,0c-2.6-0.6-6.4-2.8-8.2-5.6c0,0,0,0,0,0c-1.7-2.6-2.4-5.4-0.7-11c0.5,0.1,1,0.1,1.4,0
				c1.2-0.2,2.2-0.9,2.8-1.9c0.6-1,0.9-2.2,0.6-3.3c-0.5-2.2-2.5-3.7-4.7-3.5c-0.2,0-0.3,0-0.5,0.1c-1.2,0.2-2.2,0.9-2.8,1.9
				c-0.7,1-0.9,2.2-0.6,3.3c0.3,1.3,1,2.3,2.1,2.9c-0.7,2.3-1,4.2-1,5.9c-2.1-2.2-5.8-5-10.9-4.6c-0.5,0-0.9,0.1-1.4,0.2
				c-0.5,0.1-0.8,0.6-0.7,1.1c0.1,0.5,0.6,0.8,1.1,0.7c7.6-1.6,12,5.4,12.4,6c0.3,1.1,0.8,2.2,1.5,3.2c0,0,0,0,0,0
				c0.7,1.1,1.6,2,2.6,2.9c-3.6-0.7-6.8-0.9-9.8-0.7c-0.9,0.1-1.7,0.2-2.5,0.4c0-0.1-0.1-0.2-0.1-0.3c-0.7-1.1-1.7-1.8-2.9-2.1
				c-0.5-0.1-1-0.2-1.5-0.1c-0.7,0.1-1.4,0.3-2,0.7c-1.1,0.7-1.8,1.7-2.1,2.9c-0.3,1.2-0.1,2.5,0.6,3.5c0.7,1.1,1.7,1.8,2.9,2.1
				c2.5,0.6,5-0.9,5.6-3.5c0.1-0.5,0.1-1,0.1-1.5c3.8-0.7,8.1-0.5,13.1,0.7c2.5,0.6,5.1,1.3,7.5,2c3.3,1,6.7,2,10.2,2.6
				c2.9,0.5,6.6,0.9,10.6,0.4c-3.9,2.2-7.6,4.5-11,7.1c-2.7,1.5-7.7,2.6-13.5,3.3c-5.3-6-12.9-7.1-19.6-6.5
				c-7.9,0.7-14.6,3.7-15.1,4c0,0,0,0,0,0c-0.1,0.1-0.2,0.1-0.3,0.2c0,0,0,0,0,0c0,0,0,0,0,0C0.1,355.7,0,355.9,0,356
				C0,356,0,356,0,356.1C0,356.1,0,356.1,0,356.1z M71.7,375.6c0.3,0.5,0.4,1.2,0.3,1.8c-0.1,0.6-0.5,1.1-1.1,1.4
				c-0.3,0.2-0.7,0.3-1,0.3c-0.3,0-0.5,0-0.8-0.1c-0.6-0.1-1.1-0.5-1.4-1.1c-0.3-0.5-0.4-1.2-0.3-1.8c0.1-0.6,0.5-1.1,1.1-1.4
				c0.5-0.3,1.2-0.4,1.8-0.3C70.9,374.7,71.4,375.1,71.7,375.6z M140,369.5c0.6,1,0.8,2.1,0.5,3.2c-0.3,1.1-0.9,2-1.9,2.6
				c-0.6,0.3-1.2,0.5-1.8,0.6c-0.5,0-0.9,0-1.4-0.1c-1.1-0.3-2-0.9-2.6-1.9c-0.6-1-0.8-2.1-0.5-3.2c0.3-1.1,0.9-2,1.9-2.6
				c1-0.6,2.1-0.8,3.2-0.5C138.5,367.9,139.5,368.6,140,369.5z M154,361.1c-0.2,0.7-0.6,1.3-1.2,1.7c-0.4,0.2-0.7,0.3-1.2,0.4
				c-0.3,0-0.6,0-0.9-0.1c-0.7-0.2-1.3-0.6-1.7-1.2c-0.4-0.6-0.5-1.3-0.3-2c0.2-0.7,0.6-1.3,1.2-1.7c0.6-0.4,1.3-0.5,2-0.3
				C153.5,358.2,154.4,359.7,154,361.1z M203.2,335c1.6-3.1,3.7-5.6,6-7.4c2.1-1.7,4.3-2.5,6.8-2.9c-4.1,16.4-12.1,29.9-14.9,34.3
				C198.5,351.4,199.3,342.3,203.2,335z M217.4,338.3c-1.8,8.1-6.9,15.4-13.7,20.1c3.3-5.5,9.9-17.4,13.7-31.6
				C218.5,330.9,218.1,335.2,217.4,338.3z M190,325.3c-3.6-5.3-11.9-17-21.9-27.1C181.7,304.2,188.6,312.8,190,325.3z M165,297.7
				c11.2,10.8,20.4,24,23.9,29.2C176.9,322.5,165.5,315.3,165,297.7z M126.3,295.4c0.4-1.8,2.3-2.9,4.1-2.5c1.8,0.4,2.9,2.3,2.5,4.1
				c-0.2,0.9-0.8,1.6-1.5,2.1c-0.5,0.3-0.9,0.4-1.5,0.5c-0.4,0-0.7,0-1.1-0.1c-0.9-0.2-1.6-0.8-2.1-1.5
				C126.3,297.2,126.1,296.3,126.3,295.4z M111.4,310.7c-0.7-0.2-1.3-0.6-1.6-1.2c-0.4-0.6-0.5-1.3-0.3-2c0.2-0.7,0.6-1.3,1.2-1.6
				c0.6-0.4,1.3-0.5,2-0.3c1.4,0.3,2.3,1.8,2,3.2c-0.2,0.8-0.7,1.4-1.4,1.7c0,0,0,0-0.1,0c0,0,0,0,0,0
				C112.6,310.8,112,310.9,111.4,310.7z M114.7,335.6c-2.4,24.5-9.5,40.4-12.4,46C100.2,366.7,103.8,346.8,114.7,335.6z
				 M116.3,362.2c-2.1,7.9-6.4,14.8-11.8,19.2c3.1-6.4,9.5-21.6,11.9-44.2C118.5,344.4,118.6,353.9,116.3,362.2z M26.7,319.5
				c0.4-0.6,1-1,1.7-1.1c1.4-0.3,2.8,0.6,3.1,2c0.1,0.7,0,1.4-0.4,2c-0.4,0.6-1,1-1.7,1.1c-0.1,0-0.2,0-0.3,0
				c-1.3,0.1-2.5-0.8-2.8-2.1C26.2,320.7,26.3,320,26.7,319.5z M16.5,342.7c-0.3,1.2-1.3,2.1-2.5,2.2c-0.3,0-0.6,0-0.9-0.1
				c-0.7-0.2-1.4-0.6-1.8-1.3c-0.4-0.7-0.5-1.4-0.3-2.2c0.2-0.7,0.6-1.4,1.3-1.8c0.7-0.4,1.4-0.5,2.2-0.3c0.7,0.2,1.4,0.6,1.8,1.3
				C16.6,341.2,16.7,342,16.5,342.7z M6.5,359.2c6.7,1.5,16.7,1.7,25.8,0.9C28.4,363,19.3,367.4,6.5,359.2z M34.9,365.7
				c-14.1,13.9-21.4,29.8-24,36.5C10,394.3,10.4,374.6,34.9,365.7z M12.3,403.6c2.3-6.1,9.6-23,24.6-37.4
				C36.6,375.9,31.1,392.2,12.3,403.6z M81.5,316.2c13,6.1,14.8,14,14.9,17.5c-4.6-4.3-19.9-17.4-40.9-21.4
				C58.8,310.8,66.7,309.2,81.5,316.2z M55,314c20.3,3.9,35.3,16.4,40,20.8C81.2,334.5,63.3,325.2,55,314z M33,358.1
				c-11.1,1.1-24.2,0.7-30-1.8C8.1,354.3,23.8,349.4,33,358.1z"/>
		</g>
		<g>
			<path d="M115.2,436.7c3.2-0.6,6.4-2.2,9.9-5.2c1.2-1,2.4-2.1,3.5-3.2c1.5-1.4,3.1-2.9,4.8-4.2c3.2-2.5,6.6-4.9,10.7-6.1
				c2.3,0.2,4.6,0.2,7,0.1c-1.9,1-3.5,2.2-4.6,3.3c-1.4,1.3-2.7,2.8-4,4.3c-0.9,1.1-1.9,2.2-2.9,3.2c-2,2-3.9,3.4-5.9,4.2
				c-0.1-0.2-0.3-0.5-0.5-0.7c-1-1-2.7-1-3.7,0.1c-0.5,0.5-0.7,1.2-0.7,1.9c0,0.7,0.3,1.4,0.8,1.8c1.1,1,2.7,1,3.7-0.1
				c0.1-0.1,0.1-0.1,0.1-0.2c0.4-0.5,0.6-1.1,0.6-1.7c0,0,0-0.1,0-0.1c1.9-0.7,3.7-2,5.5-3.7c-0.2,0.6-0.3,1.2-0.3,1.8
				c-2.5,3.3-2.1,8.8-1.7,10.5c0.4,1.6,1.3,3.5,2.9,3.9c0.9,0.2,1.7,0,2.3-0.7c0.4-0.4,0.6-1,0.8-1.5c0.6,0.6,1.5,1.1,2.4,1.3
				c1,0.1,1.8,0,2.5-0.6c0.7-0.6,1.1-1.5,1-2.4c0-0.1,0-0.2-0.1-0.3c0.8,0,1.6-0.2,2.1-0.8c0.1-0.1,0.1-0.2,0.2-0.3
				c0.6-1,0.4-1.8,0.2-2.3c-0.5-1.3-2.2-2.1-3.6-2.4c-4.1-0.9-7.4-3.6-7.8-4.3l0,0c0,0,0,0,0,0c0-1.8,1.1-4,2.1-5.1c0,0,0,0,0,0
				c0.3-0.3,0.6-0.6,0.8-1c1.2-1.4,2.5-2.9,3.9-4.2c2-1.8,5.2-4.1,9.2-4.7c0,0,0,0,0,0c1.6-0.3,3.2-0.6,4.9-1c0,0,0,0,0.1,0
				c2.4-0.6,4.8-1.3,7.4-2.2c-6,5.3-10.7,14.6-10.7,22c0,0,0,0.1,0,0.1c0,0,0,0,0,0c0,0.1,0.1,0.1,0.1,0.2c0,0,0,0,0,0c0,0,0,0,0,0
				c0,0,0.1,0.1,0.1,0.1c0,0,0.1,0,0.1,0c0,0,0,0,0.1,0c0.2,0,4.7,0.7,10.9-6.9c0.8-0.9,1.5-2,2.4-3.2c4.9-7.3,2.5-12.5,1.4-14.2
				c2.1-0.9,4.2-1.8,6.5-2.9c0.8-0.4,1.6-0.8,2.4-1.2c0,0,0,0,0,0c3.1-1.6,6.1-3.2,9.1-5c-0.9,1.2-1.7,2.5-2.3,3.9
				c-1.5,3.3-2.2,7.2-2,11c-0.4,0.1-0.7,0.3-1,0.6c-0.5,0.5-0.7,1.1-0.7,1.8c0,0.7,0.3,1.3,0.8,1.8c0.5,0.5,1.1,0.7,1.8,0.7
				c0.7,0,1.3-0.3,1.8-0.8c0-0.1,0.1-0.1,0.1-0.2c0.8-1,0.7-2.5-0.2-3.4c-0.4-0.4-0.9-0.6-1.4-0.7c-0.1-2.5,0.2-5,0.8-7.4
				c0.9,3.9,4.6,7.7,7.9,9.2c-0.4,1.1-0.1,2.3,0.7,3.1c1.2,1.1,3,1.1,4.1-0.1c0.1-0.1,0.1-0.1,0.2-0.2c1-1.2,0.9-2.9-0.2-4
				c-1.2-1.1-3-1.1-4.1,0.1c0,0-0.1,0.1-0.1,0.1c-3.9-1.7-8.7-7.2-7.4-11.4c1.3-2.8,3.1-5.1,5.4-6.7c1.1-0.7,2.2-1.3,3.3-2
				c5.9-3.5,11.9-7.1,18.1-10.2c-7.5,10.4-4.7,17.4-1.4,22.4c0,0,0,0,0,0c0,0,0.1,0.1,0.1,0.1c0,0,0.1,0,0.1,0c0,0,0,0,0.1,0
				c0,0,0,0,0.1,0c0,0,0,0,0.1,0c0,0,0.1,0,0.1,0c0,0,0.1,0,0.1,0c0.1,0,0.2-0.1,0.2-0.2l0,0l0,0l0,0c0,0,0,0,0,0
				c6.4-8.5,7.4-16,3.1-23.6c1.3-0.6,2.5-1.2,3.8-1.7c12.6-5.3,25.4-7,36-4.6c0.2,0,0.4,0,0.5-0.2c0.1-0.1,0.1-0.1,0.1-0.2
				c0.1-0.3-0.1-0.6-0.4-0.6c-8-1.8-17.2-1.3-26.7,1.3c-0.5-3.2-2.5-5.6-4-7.2c-4-4-9.7-6-15.4-5.5c0,0,0,0-0.1,0
				c-0.1,0-0.1,0-0.1,0c0,0,0,0,0,0c0,0-0.1,0.1-0.1,0.1c0,0,0,0,0,0c0,0,0,0,0,0.1c0,0,0,0,0,0.1c0,0,0,0,0,0c0,0,0,0.1,0,0.1
				c0,0,0,0.1,0,0.1c0,0,0,0,0,0c0.9,5,4.4,9.8,8.9,12.3c1.6,0.9,3.2,1.4,4.8,1.7c-1.3,0.5-2.6,1-3.9,1.5c-1.5,0.6-2.9,1.3-4.3,1.9
				c0,0-0.1,0-0.1,0.1c-3.1,1.5-6.2,3.1-9.2,4.8c-2.5,0.4-5.5,0-8.5-1.1c-2.9-1.1-5.7-2.8-7.9-4.8c0.3-0.4,0.4-0.9,0.4-1.4
				c0-0.7-0.3-1.3-0.8-1.8c-0.5-0.5-1.1-0.7-1.8-0.7c-0.7,0-1.3,0.3-1.8,0.8c-0.5,0.5-0.7,1.1-0.7,1.8c0,0.7,0.3,1.3,0.8,1.8
				c0.9,0.8,2.1,0.9,3.1,0.3c1.9,1.7,4.2,3.2,6.7,4.4c-6,1-11.2-0.7-15.7-5.2c0.5-0.6,0.8-1.4,0.7-2.2c0-0.9-0.4-1.7-1-2.4
				c-0.7-0.6-1.5-1-2.4-0.9c-0.9,0-1.7,0.4-2.4,1c-0.6,0.7-1,1.5-0.9,2.4c0,0.9,0.4,1.7,1,2.4c1.2,1.1,2.9,1.2,4.2,0.4
				c2.6,2.6,5.5,4.3,8.6,5.1c-2.4,0.7-5.7,2.1-7.1,5.1c-0.1,0.3,0,0.6,0.3,0.7c0.3,0.1,0.6,0,0.7-0.3c2-4.3,8.8-5,8.9-5c0,0,0,0,0,0
				c2.2,0.2,4.5,0.1,6.9-0.5c2.3,0.8,4.5,1.3,6.5,1.3c-3,1.7-5.9,3.4-8.8,5.1c-1.1,0.7-2.2,1.3-3.4,2l0,0l0,0
				c-4,2.4-8.1,4.7-12.3,6.9c-0.9-4.6-4-9.9-8.2-13.6c-4.1-3.8-9.4-5.9-14-5.8c0,0,0,0,0,0c0,0,0,0,0,0c0,0,0,0,0,0
				c-0.1,0-0.1,0-0.2,0c0,0,0,0-0.1,0c0,0-0.1,0.1-0.1,0.1c0,0,0,0,0,0c0,0,0,0,0,0c0,0,0,0,0,0c0,0,0,0.1,0,0.1c0,0,0,0,0,0.1
				c0,0.1,0,0.2,0,0.2c0,0,0,0,0,0c3.2,8.2,11.5,17.5,20.7,19.8c-0.3,0.2-0.7,0.4-1,0.5c-6.5,3.2-12.4,5.4-18,6.8
				c-4.8-1.5-10.8-6.4-12.8-12.1c0.2-0.1,0.4-0.2,0.6-0.4c0,0,0.1-0.1,0.1-0.1c0.8-0.9,0.7-2.3-0.2-3.2c-0.5-0.4-1-0.7-1.7-0.7
				c-0.6,0-1.2,0.3-1.6,0.7c-0.9,0.9-0.9,2.4,0.1,3.3c0.5,0.5,1.1,0.7,1.7,0.6c1,3,3.1,5.7,5.5,8c-2.1,0-4.2-1.2-5.4-2.6
				c-0.2-0.2-0.5-0.3-0.8-0.1c-0.2,0.2-0.3,0.5-0.1,0.8c1.6,1.9,4.5,3.5,7.3,2.9c1.7,1.4,3.6,2.5,5.4,3.3c-5.3,1.1-10.2,1.5-15,1.1
				c0,0,0,0-0.1,0c0,0,0,0-0.1,0c-1.9-1.2-3.2-3.3-3.8-6c-0.5-2.6-0.2-5.3,0.1-7.8l0.1-0.7c0.3-2.4,0.7-4.9,0.4-7.4
				c-0.2-2-0.8-3.7-1.7-4.9c-1.2-1.6-3-2.5-4.8-2.3c-1.5,0.1-2.7,1.1-3.3,2.3c-1.2-1.5-3.2-2.3-5-1.8c-2,0.5-3.6,2.4-3.7,4.5
				c-0.2-0.1-0.4-0.2-0.7-0.3c-1.1-0.4-2.2-0.3-3.1,0.2c-0.9,0.5-1.6,1.6-1.8,2.8c-0.1,0.7-0.1,1.4,0,2.1c-2.4-0.9-5.4-0.2-7,1.9
				c-1.6,2.1-1.5,5.3,0.1,7.4c-1.2,0.3-2.4,0.7-3.4,1.4c-1.5,1-2.5,2.6-2.5,4.1c0,2.3,1,3.8,2.4,4.9c-0.7,0.1-1.4,0.4-2,0.8
				c-1,0.8-1.6,2-1.6,3.2c0,1.2,0.6,2.3,1.6,3.1c0.3,0.3,0.7,0.5,1.1,0.7c-1.3,0.8-2.2,2.2-2.3,3.7c-0.2,1.5,0.3,3.1,1.4,4.4
				C106.9,436,111,437.4,115.2,436.7z M146.3,402.2c-0.5-0.5-0.5-1.2-0.1-1.7c0,0,0-0.1,0.1-0.1c0.2-0.2,0.5-0.4,0.9-0.4
				c0.3,0,0.7,0.1,0.9,0.4l0,0c0.5,0.5,0.5,1.3,0,1.8C147.6,402.7,146.8,402.7,146.3,402.2z M182.2,383.7c0,0.6-0.2,1.2-0.6,1.6
				c-0.4,0.4-1,0.7-1.6,0.7c-0.6,0-1.2-0.2-1.6-0.6c-0.4-0.4-0.7-1-0.7-1.6c0-0.5,0.2-1.1,0.5-1.5c0,0,0.1-0.1,0.1-0.1
				c0.4-0.4,1-0.7,1.6-0.7c0.6,0,1.2,0.2,1.6,0.6C182,382.5,182.2,383.1,182.2,383.7z M191.7,384.5c0,0.4-0.1,0.7-0.4,1
				c-0.6,0.6-1.5,0.6-2,0c-0.3-0.3-0.4-0.6-0.4-1c0-0.3,0.1-0.7,0.3-0.9c0,0,0.1-0.1,0.1-0.1c0.3-0.3,0.6-0.4,1-0.4s0.8,0.1,1,0.4
				C191.6,383.8,191.7,384.1,191.7,384.5z M214,370.4c2.7,1.3,10.4,5.2,17.1,11.5c-1.2,0.6-2.5,0.8-4,0.7c-1.6-0.1-3.3-0.7-5-1.6
				C218.2,378.7,215.1,374.7,214,370.4z M227.7,375.2c1.2,1.2,2.6,3,3.4,5.2c-5.9-5.3-12.3-8.9-15.6-10.5
				C220.1,370.1,224.5,372,227.7,375.2z M216.8,408.5c1.6-7.6,2-15.3,2.1-18.9C221.9,395.7,221.2,401.7,216.8,408.5z M217.8,389.1
				c-0.1,3.5-0.4,12.3-2.4,20.6C210.5,401.5,213.6,394.7,217.8,389.1z M198,419.8c0.7-0.7,1.9-0.8,2.6-0.1c0.7,0.7,0.8,1.9,0.1,2.6
				c-0.7,0.7-1.9,0.8-2.6,0.1C197.3,421.7,197.3,420.5,198,419.8z M187.5,419.3c0.4,0,0.7,0.1,1,0.4c0.3,0.3,0.4,0.6,0.4,1
				c0,0.4-0.1,0.7-0.4,1c-0.3,0.3-0.6,0.4-1,0.4c-0.4,0-0.7-0.1-1-0.4c-0.3-0.3-0.4-0.6-0.4-1c0-0.3,0.1-0.7,0.3-0.9
				c0,0,0.1-0.1,0.1-0.1C186.8,419.5,187.1,419.3,187.5,419.3z M161.1,389.4c3.1,1.8,11.1,7.1,19.4,17.7
				C172.1,405.1,164.6,397,161.1,389.4z M173.3,394.2c3.5,3.1,6.3,7.5,7.5,11.5c-7.7-9.6-15.1-14.8-18.5-16.9
				C166,389.3,170,391.3,173.3,394.2z M132.5,433.2c0.3,0.3,0.5,0.7,0.5,1.1c0,0.4-0.1,0.8-0.4,1.1c-0.6,0.6-1.6,0.6-2.2,0
				c-0.6-0.6-0.6-1.5-0.1-2.1c0,0,0.1-0.1,0.1-0.1C130.9,432.7,131.9,432.6,132.5,433.2z M138.9,435.4c0.1,1.1,0.5,2.5,1.5,4
				c0.2,0.3,0.5,0.3,0.8,0.2c0,0,0.1-0.1,0.1-0.1c0.1-0.2,0.2-0.4,0-0.6c-0.7-1.1-1.1-2.2-1.2-3.1c0.8,1.4,2.2,2.8,4.5,4.4
				c0.2,0.2,0.6,0.1,0.7-0.1c0,0,0,0,0,0c0.2-0.2,0.1-0.6-0.1-0.8c-2.9-2.1-4.1-3.6-4.6-5c1.5,1.3,4.2,2.9,7.3,3.6
				c1.2,0.3,2.5,0.9,2.8,1.7c0.2,0.4,0.1,0.8-0.2,1.3c-0.5,0.8-1.7,0.6-2.5,0.2c-0.3-0.1-0.6,0-0.7,0.3c-0.1,0.3,0,0.6,0.2,0.7
				c0.4,0.2,0.6,0.5,0.6,0.9c0.1,0.5-0.2,1-0.6,1.4c-0.4,0.3-0.9,0.4-1.6,0.3c-1.2-0.2-2.3-1.5-2.7-2c-0.1-0.2-0.5-0.3-0.7-0.2
				c-0.3,0.1-0.4,0.4-0.2,0.7c0.2,0.6,0,1.6-0.5,2.1c-0.3,0.4-0.7,0.5-1.2,0.4c-1-0.3-1.8-1.8-2.1-3.1
				C138.4,441.3,138.1,438.1,138.9,435.4z M123.6,394.8c2.9,2.6,4.8,6.2,6.7,9.5c0.4,0.7,0.8,1.5,1.2,2.2c1.8,3.2,3.9,6.4,7.1,8.8
				c0.3,0.2,0.6,0.4,0.9,0.6c-7.8-2.6-13.9-10.6-14-10.7c-0.2-0.2-0.5-0.3-0.8-0.1c-0.2,0.2-0.3,0.5-0.1,0.8
				c0.3,0.4,6.7,8.9,15.2,11.3c-11,0.7-18-3.7-18.1-3.7c-0.3-0.2-0.6-0.1-0.8,0.2c-0.2,0.3-0.1,0.6,0.2,0.7
				c0.3,0.2,5.4,3.4,13.9,3.9c-7.7,1.2-18.7,2.3-25.2-0.5c-2.5-1.1-4.8-2.4-4.8-5.6c0-1.4,1-2.6,2-3.2c1.2-0.8,2.6-1.2,4-1.5
				c0.2-0.1,0.3-0.2,0.4-0.4c0-0.2,0-0.4-0.2-0.5c-1.8-1.6-2.1-4.7-0.6-6.6c1.5-1.9,4.5-2.5,6.5-1.2c0.2,0.1,0.4,0.1,0.6,0
				c0.2-0.1,0.3-0.3,0.2-0.5c-0.1-1-0.2-1.9-0.1-2.8c0.2-0.9,0.6-1.7,1.3-2c0.6-0.3,1.4-0.4,2.2-0.1
				C122.3,393.7,123.1,394.3,123.6,394.8z M139.3,411.1c0.2,0.9,0.5,1.8,0.8,2.6c-5.4-5.7-4.3-12.9-4.3-13.3c0-0.3-0.2-0.6-0.5-0.6
				c-0.3,0-0.6,0.2-0.6,0.5c0,0.1-1.2,8.3,4.9,14.5c-0.1-0.1-0.3-0.2-0.4-0.3c-3.1-2.3-5.1-5.4-6.8-8.5c-0.4-0.7-0.8-1.5-1.2-2.2
				c-1.9-3.5-3.8-7.1-6.9-9.8c-0.2-0.2-0.4-0.4-0.7-0.6c-0.3-1.8,1.1-3.8,2.9-4.2c1.8-0.4,3.9,0.7,4.5,2.5c0.1,0.3,0.3,0.4,0.6,0.4
				c0.3,0,0.5-0.3,0.4-0.6c-0.1-1.3,1.2-2.6,2.6-2.7c1.4-0.1,2.8,0.6,3.8,1.9c0.8,1.1,1.3,2.6,1.5,4.4c0.2,2.4-0.1,4.8-0.4,7.2
				l-0.1,0.7C139.1,405.6,138.8,408.4,139.3,411.1z M160.1,435.6c1.2-1.1,2.3-2.3,3.2-3.5c6-7.3,8.5-15.4,9.2-18.4
				c1,1.9,2.4,6.3-1.8,12.4C166,433.2,162.1,435.1,160.1,435.6z M171.5,413.5c-0.9,3.5-4.2,13.7-12.4,21.5
				C159.7,427.3,165.2,417.8,171.5,413.5z M105.6,432.5c-0.9-1.2-1.3-2.5-1.2-3.7c0.2-1.7,1.6-3.2,3.3-3.4c0.1,0,0.2,0,0.3,0
				c0.3,0,0.5-0.3,0.4-0.6c0-0.3-0.3-0.5-0.6-0.5c-0.1,0-0.2,0-0.2,0c-0.8,0.1-1.6-0.2-2.3-0.8c-0.8-0.6-1.2-1.5-1.2-2.3
				c0-0.9,0.4-1.7,1.2-2.3c0.9-0.7,2.2-0.8,3.5-0.4c0.3,0.1,0.6,0.3,0.9,0.4c6.1,2.7,16,2,23.6,0.9c-6.6,3-10.7,7.3-10.9,7.5
				c-0.2,0.2-0.2,0.6,0,0.8c0.2,0.2,0.6,0.2,0.8,0c0.1-0.1,6.4-6.6,15.8-9.2c0.3,0,0.5-0.1,0.7-0.1c-2.5,1.3-4.8,3-6.9,4.6
				c-1.7,1.3-3.3,2.8-4.8,4.2c-1.1,1-2.3,2.1-3.5,3.1c-3.4,2.9-6.4,4.4-9.4,5C111.2,436.3,107.5,435.1,105.6,432.5z"/>
		</g>
	</g>
	<line class="st0" x1="260.1" y1="-1.8" x2="260.1" y2="477.1"/>
	<path d="M260.1,131.2c-1.8-2.2-3.7-4.1-5.9-5.6c-6.9-4.7-19.2-9.3-36.9-13.8c-27-6.9-40.4-18.2-40.4-34.1c0-10.1,2.5-18.4,7.5-24.8
		c5.8-7.5,14.3-11.2,25.5-11.2c14.6,0,26.6,5.5,35.8,16.6c6.7,8.1,11.1,17.8,13.3,29.2h0.9V34.6h-0.9c-2,2.3-3.9,3.9-5.6,4.8
		c-1.7,0.9-3.5,1.3-5.4,1.3c-6.1-1.4-12.1-2.8-18-4.2c-6.5-1.2-12.8-1.9-18.7-1.9c-18.7,0-34.1,5.1-46.1,15.2
		c-13.1,11.1-19.6,26.3-19.6,45.6c0,22.9,8.3,38.8,24.8,47.7c15.4,5.1,30.9,10.3,46.3,15.4c16.5,6.2,24.8,17.5,24.8,33.7
		c0,12.6-4.1,21.9-12.2,27.8c-6.1,4.5-13.7,6.8-22.9,6.8c-14.5,0-26.4-4.7-35.8-14c-8.7-8.7-15.3-22-19.6-39.7l-0.9,0.2v60.6h0.9
		c3.3-2.8,5.9-4.7,7.9-5.6c2-0.9,3.7-1.4,4.9-1.4c1.7,0,7,1.2,15.9,3.5c8.9,2.3,17.3,3.5,25.2,3.5c19.3,0,35.1-5.9,47.5-17.8
		c2.9-2.8,5.5-5.9,7.7-9.1V131.2z"/>
	<path d="M342.7,361.3v0.9c3.1,1.2,5.8,3.7,7.9,7.4c2.2,3.7,3.3,7.3,3.3,10.9V434c0,2.8-1.8,5.4-5.4,7.7c-3.6,2.3-7.5,3.5-11.7,3.5
		c-12.5,0-22-4.2-28.5-12.6c-5.6-7.2-9.4-17.9-11.5-32.3c-1.4-10-2.1-24.5-2.1-43.7c0-21.8,0.7-39.2,2-52.3
		c1.3-13,4.4-23.4,9.2-31.2c5.5-8.7,13.4-13.1,23.8-13.1c14.8,0,27.8,8.1,39,24.3c7.6,10.9,13.1,23.2,16.4,36.9h0.9v-68.3h-0.9
		c-5,3.7-10.5,5.6-16.6,5.6c-8.7-1.2-17.3-2.5-25.7-3.7c-8.4-1.2-14.4-1.9-18-1.9c-23.7,0-42.6,10.8-56.6,32.3
		c-3.8,5.8-7,12.1-9.6,18.7v104.1c1.9,4.3,4,8.5,6.4,12.3c13.2,21.2,33.7,31.8,61.3,31.8c10.3,0,19.9-1.3,28.8-3.9
		c8.9-2.6,18-5.5,27.4-8.8c1.1,0,2.4,0.3,3.9,0.8c1.5,0.5,2.8,1.4,3.9,2.5h3v-62.4c0-3.4,1.1-7,3.4-10.9c2.3-3.8,4.9-6.3,7.8-7.4
		v-0.9H342.7z"/>
</g>
</svg>
