<?xml version="1.0" encoding="utf-8"?>
<!-- Generator: Adobe Illustrator 22.0.1, SVG Export Plug-In . SVG Version: 6.00 Build 0)  -->
<svg version="1.1" id="Capa_1" xmlns="http://www.w3.org/2000/svg" xmlns:xlink="http://www.w3.org/1999/xlink" x="0px" y="0px"
	 viewBox="0 0 520.6 490.6" style="enable-background:new 0 0 520.6 490.6;" xml:space="preserve">
<style type="text/css">
	.st0{fill:#FFFFFF;}
	.st1{fill:none;stroke:#FFFFFF;stroke-width:2;stroke-miterlimit:10;}
</style>
<g>
	<g>
		<path class="st0" d="M12.1,381.4H-0.1v-4.3h12.1V381.4z"/>
		<path class="st0" d="M43.3,360.1v9.8h-0.8c-0.3-1.9-0.7-3.4-1.3-4.5s-1.6-2-2.8-2.6c-1.2-0.7-2.4-1-3.7-1c-1.4,0-2.6,0.4-3.6,1.3
			c-0.9,0.9-1.4,1.9-1.4,3c0,0.9,0.3,1.6,0.9,2.4c0.9,1,2.9,2.4,6.1,4.2c2.6,1.4,4.4,2.5,5.4,3.3c1,0.8,1.7,1.7,2.2,2.7
			s0.8,2.1,0.8,3.2c0,2.1-0.8,4-2.5,5.5c-1.7,1.5-3.8,2.3-6.4,2.3c-0.8,0-1.6-0.1-2.3-0.2c-0.4-0.1-1.3-0.3-2.7-0.8
			c-1.4-0.4-2.2-0.7-2.6-0.7c-0.3,0-0.6,0.1-0.8,0.3c-0.2,0.2-0.4,0.6-0.4,1.3h-0.8V380h0.8c0.4,2,0.8,3.5,1.5,4.6
			c0.6,1,1.5,1.8,2.8,2.5s2.6,1,4.1,1c1.7,0,3.1-0.5,4.1-1.4c1-0.9,1.5-2,1.5-3.3c0-0.7-0.2-1.4-0.6-2.1c-0.4-0.7-1-1.4-1.8-2
			c-0.5-0.4-2-1.3-4.4-2.7s-4.1-2.4-5.2-3.2c-1-0.8-1.8-1.7-2.3-2.7c-0.5-1-0.8-2-0.8-3.2c0-2,0.8-3.8,2.3-5.2s3.5-2.2,5.9-2.2
			c1.5,0,3.1,0.4,4.8,1.1c0.8,0.3,1.3,0.5,1.6,0.5c0.4,0,0.7-0.1,0.9-0.3c0.2-0.2,0.4-0.6,0.6-1.3H43.3z"/>
		<path class="st0" d="M67,379.6H56.1l-1.9,4.5c-0.5,1.1-0.7,1.9-0.7,2.5c0,0.4,0.2,0.8,0.6,1.1c0.4,0.3,1.3,0.5,2.7,0.6v0.8h-8.9
			v-0.8c1.2-0.2,1.9-0.5,2.3-0.8c0.7-0.7,1.5-2,2.4-4.1l9.9-23.3h0.7l9.8,23.5c0.8,1.9,1.5,3.1,2.2,3.7c0.6,0.6,1.5,0.9,2.7,0.9v0.8
			H66.7v-0.8c1.1-0.1,1.9-0.2,2.3-0.6c0.4-0.3,0.6-0.7,0.6-1.2c0-0.6-0.3-1.6-0.8-2.9L67,379.6z M66.4,378l-4.8-11.4L56.7,378H66.4z
			"/>
		<path class="st0" d="M102.8,381.2l0.7,0.1l-2.4,7.7H79.2v-0.8h1.1c1.2,0,2-0.4,2.6-1.2c0.3-0.4,0.4-1.5,0.4-3.1v-18.2
			c0-1.8-0.2-2.9-0.6-3.3c-0.5-0.6-1.3-0.9-2.4-0.9h-1.1v-0.8H92v0.8c-1.5,0-2.6,0.1-3.2,0.4c-0.6,0.3-1,0.7-1.2,1.1
			c-0.2,0.4-0.3,1.5-0.3,3.2V384c0,1.2,0.1,1.9,0.3,2.4c0.2,0.3,0.4,0.5,0.8,0.6c0.3,0.1,1.4,0.2,3.3,0.2h2.1c2.2,0,3.7-0.2,4.6-0.5
			c0.9-0.3,1.7-0.9,2.4-1.7C101.3,384.2,102.1,383,102.8,381.2z"/>
		<path class="st0" d="M120,360.1c3.7,0,6.8,1.4,9.5,4.2s4,6.3,4,10.4c0,4.3-1.4,7.9-4.1,10.7c-2.7,2.8-6,4.3-9.8,4.3
			c-3.9,0-7.2-1.4-9.8-4.1c-2.6-2.8-4-6.3-4-10.7c0-4.5,1.5-8.1,4.6-11C113.1,361.3,116.3,360.1,120,360.1z M119.6,361.6
			c-2.5,0-4.6,0.9-6.1,2.8c-1.9,2.3-2.9,5.8-2.9,10.3c0,4.6,1,8.2,3,10.6c1.5,1.9,3.5,2.8,6,2.8c2.7,0,4.8-1,6.6-3.1
			c1.7-2.1,2.6-5.3,2.6-9.8c0-4.8-1-8.4-2.9-10.8C124.4,362.6,122.3,361.6,119.6,361.6z"/>
		<path class="st0" d="M134.7,360.8h7.7l17.3,21.2v-16.3c0-1.7-0.2-2.8-0.6-3.3c-0.5-0.6-1.3-0.9-2.4-0.9h-1v-0.8h9.8v0.8h-1
			c-1.2,0-2,0.4-2.5,1.1c-0.3,0.4-0.5,1.5-0.5,3v23.8h-0.8l-18.6-22.8v17.4c0,1.7,0.2,2.8,0.6,3.3c0.5,0.6,1.3,0.9,2.4,0.9h1v0.8
			h-9.8v-0.8h1c1.2,0,2.1-0.4,2.6-1.1c0.3-0.4,0.5-1.5,0.5-3v-19.7c-0.8-1-1.4-1.6-1.9-1.9c-0.4-0.3-1-0.6-1.9-0.9
			c-0.4-0.1-1-0.2-1.8-0.2V360.8z"/>
		<path class="st0" d="M175,362.3v11.2h6.2c1.6,0,2.7-0.2,3.2-0.7c0.7-0.6,1.1-1.8,1.2-3.4h0.8v9.8h-0.8c-0.2-1.4-0.4-2.3-0.6-2.6
			c-0.2-0.5-0.7-0.9-1.2-1.1c-0.6-0.3-1.4-0.4-2.6-0.4H175v9.3c0,1.3,0.1,2,0.2,2.3c0.1,0.3,0.3,0.5,0.6,0.6
			c0.3,0.2,0.8,0.2,1.6,0.2h4.8c1.6,0,2.8-0.1,3.5-0.3c0.7-0.2,1.4-0.7,2.1-1.3c0.9-0.9,1.7-2.2,2.6-3.9h0.8l-2.4,7.1h-21.8v-0.8h1
			c0.7,0,1.3-0.2,1.9-0.5c0.4-0.2,0.7-0.6,0.9-1c0.2-0.4,0.2-1.4,0.2-2.7v-18.4c0-1.8-0.2-2.9-0.5-3.3c-0.5-0.6-1.3-0.8-2.5-0.8h-1
			v-0.8h21.8l0.3,6.2h-0.8c-0.3-1.5-0.6-2.5-1-3.1c-0.4-0.6-0.9-1-1.6-1.3c-0.6-0.2-1.5-0.3-2.9-0.3H175z"/>
		<path class="st0" d="M211.7,360.1v9.8h-0.8c-0.3-1.9-0.7-3.4-1.3-4.5s-1.6-2-2.8-2.6c-1.2-0.7-2.4-1-3.7-1c-1.4,0-2.6,0.4-3.6,1.3
			c-0.9,0.9-1.4,1.9-1.4,3c0,0.9,0.3,1.6,0.9,2.4c0.9,1,2.9,2.4,6.1,4.2c2.6,1.4,4.4,2.5,5.4,3.3c1,0.8,1.7,1.7,2.2,2.7
			s0.8,2.1,0.8,3.2c0,2.1-0.8,4-2.5,5.5c-1.7,1.5-3.8,2.3-6.4,2.3c-0.8,0-1.6-0.1-2.3-0.2c-0.4-0.1-1.3-0.3-2.7-0.8
			c-1.4-0.4-2.2-0.7-2.6-0.7c-0.3,0-0.6,0.1-0.8,0.3c-0.2,0.2-0.4,0.6-0.4,1.3H195V380h0.8c0.4,2,0.8,3.5,1.5,4.6
			c0.6,1,1.5,1.8,2.8,2.5s2.6,1,4.1,1c1.7,0,3.1-0.5,4.1-1.4c1-0.9,1.5-2,1.5-3.3c0-0.7-0.2-1.4-0.6-2.1c-0.4-0.7-1-1.4-1.8-2
			c-0.5-0.4-2-1.3-4.4-2.7s-4.1-2.4-5.2-3.2c-1-0.8-1.8-1.7-2.3-2.7c-0.5-1-0.8-2-0.8-3.2c0-2,0.8-3.8,2.3-5.2s3.5-2.2,5.9-2.2
			c1.5,0,3.1,0.4,4.8,1.1c0.8,0.3,1.3,0.5,1.6,0.5c0.4,0,0.7-0.1,0.9-0.3c0.2-0.2,0.4-0.6,0.6-1.3H211.7z"/>
		<path class="st0" d="M256,360.1v10h-0.8c-0.9-2.7-2.3-4.8-4.2-6.2c-1.9-1.4-3.9-2.1-6.1-2.1c-2.1,0-3.9,0.6-5.3,1.8
			c-1.4,1.2-2.4,2.8-3,5s-0.9,4.3-0.9,6.5c0,2.7,0.3,5.1,1,7.1s1.7,3.5,3.1,4.5c1.4,1,3.1,1.4,5.1,1.4c0.7,0,1.4-0.1,2.1-0.2
			c0.7-0.1,1.4-0.4,2.2-0.6v-5.9c0-1.1-0.1-1.8-0.2-2.2c-0.2-0.3-0.5-0.6-0.9-0.9c-0.5-0.3-1.1-0.4-1.7-0.4h-0.7v-0.8h13.7v0.8
			c-1,0.1-1.8,0.2-2.2,0.4c-0.4,0.2-0.7,0.6-0.9,1.1c-0.1,0.3-0.2,0.9-0.2,1.9v5.9c-1.8,0.8-3.7,1.4-5.6,1.8c-2,0.4-4,0.6-6.1,0.6
			c-2.7,0-4.9-0.4-6.7-1.1c-1.8-0.7-3.3-1.7-4.7-2.9c-1.4-1.2-2.4-2.5-3.2-4c-1-1.9-1.5-4.1-1.5-6.4c0-4.3,1.5-7.8,4.5-10.8
			c3-2.9,6.7-4.4,11.3-4.4c1.4,0,2.7,0.1,3.8,0.3c0.6,0.1,1.6,0.4,3,0.9c1.4,0.5,2.2,0.8,2.4,0.8c0.4,0,0.8-0.1,1.1-0.4
			c0.3-0.3,0.6-0.8,0.9-1.6H256z"/>
		<path class="st0" d="M260.7,360.8h14.6v0.8h-0.7c-1.1,0-1.9,0.1-2.3,0.3c-0.4,0.2-0.7,0.5-0.9,0.9c-0.2,0.4-0.3,1.4-0.3,3v13.8
			c0,2.5,0.2,4.2,0.6,5c0.4,0.8,1,1.5,1.9,2c0.9,0.5,2,0.8,3.3,0.8c1.5,0,2.8-0.3,3.9-1c1.1-0.7,1.9-1.6,2.4-2.8s0.8-3.3,0.8-6.3
			v-11.5c0-1.3-0.1-2.2-0.4-2.7c-0.3-0.5-0.6-0.9-1-1.1c-0.6-0.3-1.5-0.5-2.6-0.5v-0.8h9.8v0.8h-0.6c-0.8,0-1.5,0.2-2,0.5
			c-0.5,0.3-0.9,0.8-1.1,1.4c-0.2,0.4-0.3,1.2-0.3,2.4v10.7c0,3.3-0.2,5.7-0.7,7.2s-1.5,2.8-3.2,4.1s-4,1.9-6.9,1.9
			c-2.4,0-4.3-0.3-5.7-1c-1.8-0.9-3.1-2-3.9-3.4c-0.8-1.4-1.1-3.3-1.1-5.6v-13.8c0-1.6-0.1-2.6-0.3-3c-0.2-0.4-0.5-0.7-0.9-0.9
			c-0.4-0.2-1.3-0.3-2.5-0.3V360.8z"/>
		<path class="st0" d="M308.3,381h-10l-1.2,2.8c-0.4,0.9-0.6,1.7-0.6,2.3c0,0.8,0.3,1.4,1,1.8c0.4,0.2,1.3,0.4,2.8,0.5v0.8h-9.4
			v-0.8c1-0.2,1.8-0.6,2.5-1.3c0.7-0.7,1.5-2.1,2.4-4.3l10.1-22.5h0.4l10.2,23.2c1,2.2,1.8,3.6,2.4,4.1c0.5,0.4,1.1,0.7,2,0.8v0.8
			h-13.7v-0.8h0.6c1.1,0,1.9-0.2,2.3-0.5c0.3-0.2,0.5-0.5,0.5-1c0-0.2,0-0.5-0.1-0.8c0-0.1-0.2-0.6-0.6-1.6L308.3,381z M307.6,379.4
			l-4.2-9.7l-4.3,9.7H307.6z"/>
		<path class="st0" d="M321.9,389v-0.8h0.9c0.8,0,1.4-0.1,1.9-0.4s0.8-0.6,1-1.1c0.1-0.3,0.2-1.2,0.2-2.6v-18.6
			c0-1.4-0.1-2.3-0.2-2.7c-0.2-0.4-0.5-0.7-0.9-0.9c-0.5-0.3-1.1-0.4-1.9-0.4h-0.9v-0.8h12.7c3.4,0,6.1,0.5,8.1,1.4
			c2.5,1.1,4.4,2.8,5.7,5.1c1.3,2.3,1.9,4.9,1.9,7.7c0,2-0.3,3.8-1,5.5s-1.5,3.1-2.5,4.1c-1,1.1-2.2,2-3.5,2.6
			c-1.3,0.7-2.9,1.2-4.9,1.5c-0.8,0.2-2.2,0.2-4,0.2H321.9z M332.7,362.4v22c0,1.2,0.1,1.9,0.2,2.1c0.1,0.3,0.3,0.5,0.6,0.6
			c0.4,0.2,0.9,0.3,1.6,0.3c2.3,0,4.1-0.8,5.3-2.4c1.7-2.1,2.5-5.5,2.5-10c0-3.6-0.6-6.5-1.7-8.7c-0.9-1.7-2.1-2.8-3.5-3.5
			C336.7,362.6,335,362.4,332.7,362.4z"/>
		<path class="st0" d="M369.9,381h-10l-1.2,2.8c-0.4,0.9-0.6,1.7-0.6,2.3c0,0.8,0.3,1.4,1,1.8c0.4,0.2,1.3,0.4,2.8,0.5v0.8h-9.4
			v-0.8c1-0.2,1.8-0.6,2.5-1.3c0.7-0.7,1.5-2.1,2.4-4.3l10.1-22.5h0.4l10.2,23.2c1,2.2,1.8,3.6,2.4,4.1c0.5,0.4,1.1,0.7,2,0.8v0.8
			h-13.7v-0.8h0.6c1.1,0,1.9-0.2,2.3-0.5c0.3-0.2,0.5-0.5,0.5-1c0-0.2,0-0.5-0.1-0.8c0-0.1-0.2-0.6-0.6-1.6L369.9,381z M369.2,379.4
			l-4.2-9.7l-4.3,9.7H369.2z"/>
		<path class="st0" d="M410,379.1l-1.1,9.9h-25.1v-0.8h0.9c0.8,0,1.5-0.1,2-0.4c0.4-0.2,0.6-0.5,0.8-1c0.2-0.3,0.2-1.2,0.2-2.6
			v-18.6c0-1.4-0.1-2.3-0.2-2.7c-0.2-0.4-0.5-0.7-0.9-0.9c-0.5-0.3-1.1-0.4-1.9-0.4h-0.9v-0.8h15.1v0.8h-1.2c-0.8,0-1.5,0.1-2,0.4
			c-0.4,0.2-0.6,0.5-0.9,1c-0.2,0.3-0.2,1.2-0.2,2.6v18c0,1.4,0.1,2.4,0.2,2.8c0.2,0.4,0.5,0.7,1,0.9c0.3,0.1,1.2,0.2,2.5,0.2h2.4
			c1.5,0,2.8-0.3,3.8-0.8c1-0.5,1.9-1.4,2.6-2.5c0.7-1.1,1.4-2.8,2.1-5H410z"/>
		<path class="st0" d="M412.5,360.8h14.6v0.8h-0.7c-1.1,0-1.9,0.1-2.3,0.3c-0.4,0.2-0.7,0.5-0.9,0.9c-0.2,0.4-0.3,1.4-0.3,3v13.8
			c0,2.5,0.2,4.2,0.6,5c0.4,0.8,1,1.5,1.9,2c0.9,0.5,2,0.8,3.3,0.8c1.5,0,2.8-0.3,3.9-1c1.1-0.7,1.9-1.6,2.4-2.8s0.8-3.3,0.8-6.3
			v-11.5c0-1.3-0.1-2.2-0.4-2.7c-0.3-0.5-0.6-0.9-1-1.1c-0.6-0.3-1.5-0.5-2.6-0.5v-0.8h9.8v0.8H441c-0.8,0-1.5,0.2-2,0.5
			c-0.5,0.3-0.9,0.8-1.1,1.4c-0.2,0.4-0.3,1.2-0.3,2.4v10.7c0,3.3-0.2,5.7-0.7,7.2s-1.5,2.8-3.2,4.1s-4,1.9-6.9,1.9
			c-2.4,0-4.3-0.3-5.7-1c-1.8-0.9-3.1-2-3.9-3.4c-0.8-1.4-1.1-3.3-1.1-5.6v-13.8c0-1.6-0.1-2.6-0.3-3c-0.2-0.4-0.5-0.7-0.9-0.9
			c-0.4-0.2-1.3-0.3-2.5-0.3V360.8z"/>
		<path class="st0" d="M453.8,376.2v7.8c0,1.5,0.1,2.5,0.3,2.9c0.2,0.4,0.5,0.7,1,0.9c0.5,0.2,1.4,0.4,2.6,0.4v0.8h-14.4v-0.8
			c1.3,0,2.2-0.1,2.7-0.4c0.5-0.2,0.8-0.6,1-0.9c0.2-0.4,0.3-1.3,0.3-2.9v-18.3c0-1.5-0.1-2.5-0.3-2.9c-0.2-0.4-0.5-0.7-1-0.9
			c-0.5-0.2-1.4-0.4-2.6-0.4v-0.8h12.3c4.1,0,7,0.7,8.7,2.2c1.8,1.4,2.6,3.3,2.6,5.4c0,1.8-0.6,3.4-1.7,4.7
			c-1.1,1.3-2.7,2.2-4.7,2.7C459.3,376.1,457,376.2,453.8,376.2z M453.8,362.4v12.2c0.5,0,0.8,0,1,0c1.7,0,3-0.5,3.9-1.5
			c0.9-1,1.4-2.6,1.4-4.7c0-2.1-0.5-3.6-1.4-4.6s-2.3-1.5-4.1-1.5H453.8z"/>
		<path class="st0" d="M480,362.4v11.5h0.6c1.8,0,3.1-0.6,3.9-1.7c0.8-1.1,1.3-2.8,1.5-5h0.8V382H486c-0.2-1.6-0.5-2.9-1.1-4
			s-1.2-1.7-1.9-2.1c-0.7-0.4-1.7-0.5-3.1-0.5v8c0,1.6,0.1,2.5,0.2,2.9c0.1,0.3,0.4,0.6,0.7,0.9c0.4,0.2,0.9,0.3,1.8,0.3h1.7
			c2.6,0,4.8-0.6,6.3-1.8s2.7-3.1,3.4-5.6h0.8l-1.3,9h-24.4v-0.8h0.9c0.8,0,1.5-0.1,2-0.4c0.4-0.2,0.6-0.5,0.8-1
			c0.2-0.3,0.2-1.2,0.2-2.6v-18.6c0-1.3,0-2.1-0.1-2.4c-0.1-0.5-0.4-0.9-0.8-1.1c-0.5-0.4-1.3-0.6-2.2-0.6h-0.9v-0.8h23.7v8.4h-0.8
			c-0.4-2-1-3.5-1.7-4.4c-0.7-0.9-1.8-1.5-3.1-2c-0.8-0.2-2.2-0.4-4.4-0.4H480z"/>
		<path class="st0" d="M520.7,381.4h-12.1v-4.3h12.1V381.4z"/>
	</g>
</g>
<g>
	<path class="st0" d="M117.6,484.1c0,0.9-0.1,1.6-0.4,2.2c-0.3,0.6-0.7,1.1-1.1,1.6c-0.7,0.7-1.5,1.1-2.5,1.5s-2,0.5-3.2,0.5
		c-1.1,0-2.2-0.2-3.2-0.5c-1-0.4-1.8-0.9-2.4-1.6c-0.5-0.5-0.9-1.1-1.2-1.8c-0.3-0.7-0.5-1.4-0.6-2.2h1.5c0.1,0.6,0.2,1.2,0.5,1.7
		c0.3,0.5,0.6,1,1,1.4c0.5,0.5,1.2,1,2,1.2c0.8,0.3,1.6,0.4,2.4,0.4c0.9,0,1.7-0.1,2.5-0.4c0.8-0.2,1.5-0.6,2-1.1
		c0.4-0.3,0.6-0.7,0.9-1.2c0.2-0.5,0.3-1,0.3-1.7c0-0.5-0.1-0.9-0.3-1.4c-0.2-0.4-0.4-0.8-0.8-1.2s-0.7-0.6-1.2-0.9
		c-0.5-0.2-1-0.4-1.6-0.5l-3.7-0.5c-0.7-0.1-1.4-0.3-2-0.5c-0.6-0.2-1.1-0.6-1.6-1s-0.8-0.9-1-1.5c-0.2-0.6-0.4-1.3-0.4-2
		c0-0.8,0.2-1.6,0.5-2.2c0.3-0.6,0.7-1.1,1.3-1.6c0.6-0.6,1.4-1,2.2-1.3c0.9-0.3,1.8-0.5,2.7-0.5c1.1,0,2.1,0.2,3.1,0.6
		c1,0.4,1.8,0.9,2.3,1.6c0.4,0.5,0.8,1,1,1.6c0.3,0.6,0.4,1.2,0.5,1.9h-1.5c-0.1-0.5-0.2-1-0.4-1.4c-0.2-0.4-0.4-0.8-0.7-1.2
		c-0.4-0.5-1-1-1.8-1.3c-0.8-0.3-1.6-0.5-2.5-0.5c-0.7,0-1.4,0.1-2.1,0.3c-0.7,0.2-1.2,0.5-1.7,0.9c-0.4,0.3-0.7,0.7-1,1.2
		s-0.4,1-0.4,1.7c0,0.6,0.1,1.1,0.3,1.5c0.2,0.4,0.5,0.8,0.8,1c0.3,0.3,0.7,0.5,1.1,0.6c0.4,0.2,0.9,0.3,1.3,0.3l3.8,0.5
		c0.8,0.1,1.5,0.3,2.1,0.6c0.6,0.3,1.2,0.7,1.6,1.2c0.5,0.5,0.8,1,1.1,1.6C117.5,482.8,117.6,483.4,117.6,484.1z"/>
	<path class="st0" d="M135.8,489.5l-2-5.3h-9.7l-2,5.3h-1.5l7.6-20h1.4l7.7,20H135.8z M128.9,471.6l-4.3,11.3h8.6L128.9,471.6z"/>
	<path class="st0" d="M141.9,489.5v-20h1.5v18.6h10.4v1.4H141.9z"/>
	<path class="st0" d="M171.9,479.5c0,0.7,0,1.5-0.1,2.2c0,0.8-0.2,1.5-0.3,2.2c-0.2,0.7-0.4,1.4-0.8,2.1c-0.3,0.7-0.8,1.3-1.3,1.8
		c-0.6,0.6-1.4,1.1-2.2,1.5s-1.8,0.6-2.9,0.6s-2.1-0.2-2.9-0.6c-0.9-0.4-1.6-0.9-2.2-1.5c-0.6-0.5-1-1.2-1.3-1.8
		c-0.3-0.7-0.6-1.4-0.8-2.1c-0.2-0.7-0.3-1.5-0.3-2.2c0-0.8-0.1-1.5-0.1-2.2s0-1.4,0.1-2.2c0-0.8,0.2-1.5,0.3-2.2s0.4-1.4,0.8-2.1
		c0.3-0.7,0.8-1.3,1.3-1.8c0.6-0.6,1.4-1.1,2.2-1.5c0.9-0.4,1.8-0.6,2.9-0.6s2.1,0.2,2.9,0.6s1.6,0.9,2.2,1.5c0.6,0.5,1,1.2,1.3,1.8
		c0.3,0.7,0.6,1.4,0.8,2.1c0.2,0.7,0.3,1.5,0.3,2.2C171.9,478.1,171.9,478.8,171.9,479.5z M170.4,479.5c0-0.6,0-1.2,0-1.9
		c0-0.7-0.1-1.3-0.2-2c-0.1-0.7-0.3-1.3-0.6-1.9c-0.3-0.6-0.7-1.1-1.2-1.6c-0.5-0.5-1.1-0.9-1.8-1.2c-0.7-0.3-1.4-0.4-2.2-0.4
		c-0.8,0-1.5,0.1-2.2,0.4c-0.7,0.3-1.3,0.6-1.8,1.2c-0.5,0.5-0.9,1-1.2,1.6c-0.3,0.6-0.5,1.2-0.6,1.9c-0.1,0.7-0.2,1.3-0.2,2
		c0,0.7,0,1.3,0,1.9c0,0.6,0,1.2,0,1.9c0,0.7,0.1,1.3,0.2,2c0.1,0.7,0.3,1.3,0.6,1.9s0.7,1.2,1.2,1.6c0.5,0.5,1.1,0.9,1.8,1.2
		c0.7,0.3,1.4,0.4,2.2,0.4c0.8,0,1.5-0.1,2.2-0.4c0.7-0.3,1.3-0.6,1.8-1.2c0.5-0.5,0.9-1,1.2-1.6c0.3-0.6,0.5-1.2,0.6-1.9
		c0.1-0.7,0.2-1.3,0.2-2S170.4,480.1,170.4,479.5z"/>
	<path class="st0" d="M191,489.5l-11.6-17.7v17.7H178v-20h1.7l11.6,17.7v-17.7h1.4v20H191z"/>
	<path class="st0" d="M200.2,489.5v-20H213v1.4h-11.3v7.3h10v1.4h-10v8.4H213v1.4H200.2z"/>
	<path class="st0" d="M231.8,484.1c0,0.9-0.1,1.6-0.4,2.2c-0.3,0.6-0.7,1.1-1.1,1.6c-0.7,0.7-1.5,1.1-2.5,1.5s-2,0.5-3.2,0.5
		c-1.1,0-2.2-0.2-3.2-0.5c-1-0.4-1.8-0.9-2.4-1.6c-0.5-0.5-0.9-1.1-1.2-1.8c-0.3-0.7-0.5-1.4-0.6-2.2h1.5c0.1,0.6,0.2,1.2,0.5,1.7
		c0.3,0.5,0.6,1,1,1.4c0.5,0.5,1.2,1,2,1.2c0.8,0.3,1.6,0.4,2.4,0.4c0.9,0,1.7-0.1,2.5-0.4c0.8-0.2,1.5-0.6,2-1.1
		c0.4-0.3,0.6-0.7,0.9-1.2c0.2-0.5,0.3-1,0.3-1.7c0-0.5-0.1-0.9-0.3-1.4c-0.2-0.4-0.4-0.8-0.8-1.2s-0.7-0.6-1.2-0.9
		c-0.5-0.2-1-0.4-1.6-0.5l-3.7-0.5c-0.7-0.1-1.4-0.3-2-0.5c-0.6-0.2-1.1-0.6-1.6-1s-0.8-0.9-1-1.5c-0.2-0.6-0.4-1.3-0.4-2
		c0-0.8,0.2-1.6,0.5-2.2c0.3-0.6,0.7-1.1,1.3-1.6c0.6-0.6,1.4-1,2.2-1.3c0.9-0.3,1.8-0.5,2.7-0.5c1.1,0,2.1,0.2,3.1,0.6
		c1,0.4,1.8,0.9,2.3,1.6c0.4,0.5,0.8,1,1,1.6c0.3,0.6,0.4,1.2,0.5,1.9h-1.5c-0.1-0.5-0.2-1-0.4-1.4c-0.2-0.4-0.4-0.8-0.7-1.2
		c-0.4-0.5-1-1-1.8-1.3c-0.8-0.3-1.6-0.5-2.5-0.5c-0.7,0-1.4,0.1-2.1,0.3c-0.7,0.2-1.2,0.5-1.7,0.9c-0.4,0.3-0.7,0.7-1,1.2
		s-0.4,1-0.4,1.7c0,0.6,0.1,1.1,0.3,1.5c0.2,0.4,0.5,0.8,0.8,1c0.3,0.3,0.7,0.5,1.1,0.6c0.4,0.2,0.9,0.3,1.3,0.3l3.8,0.5
		c0.8,0.1,1.5,0.3,2.1,0.6c0.6,0.3,1.2,0.7,1.6,1.2c0.5,0.5,0.8,1,1.1,1.6C231.7,482.8,231.8,483.4,231.8,484.1z"/>
	<path class="st0" d="M259.3,479.5c0,0.7,0,1.4-0.1,2.1c0,0.7-0.2,1.4-0.3,2.1c-0.2,0.7-0.4,1.4-0.7,2c-0.3,0.6-0.8,1.2-1.3,1.7
		c-0.6,0.6-1.3,1.1-2.2,1.4s-1.8,0.5-2.9,0.5h-6.6v-20h6.6c1.1,0,2,0.2,2.9,0.5c0.8,0.4,1.6,0.8,2.2,1.4c0.5,0.5,1,1.1,1.3,1.7
		c0.3,0.6,0.6,1.3,0.7,2c0.2,0.7,0.3,1.4,0.3,2.1C259.3,478.1,259.3,478.8,259.3,479.5z M257.8,479.5c0-0.6,0-1.2-0.1-1.9
		c0-0.6-0.1-1.3-0.3-1.9c-0.1-0.6-0.3-1.2-0.6-1.8c-0.3-0.6-0.6-1.1-1.1-1.5c-0.5-0.5-1.1-0.9-1.8-1.1c-0.7-0.3-1.4-0.4-2.2-0.4
		h-5.2v17.1h5.2c0.8,0,1.5-0.1,2.2-0.4c0.7-0.3,1.3-0.6,1.8-1.1c0.5-0.5,0.8-1,1.1-1.5c0.3-0.6,0.5-1.2,0.6-1.8
		c0.1-0.6,0.2-1.2,0.3-1.9C257.8,480.8,257.8,480.1,257.8,479.5z"/>
	<path class="st0" d="M265.4,489.5v-20h12.8v1.4h-11.3v7.3h10v1.4h-10v8.4h11.3v1.4H265.4z"/>
	<path class="st0" d="M291.7,489.5v-20h12.8v1.4h-11.3v7.3h10v1.4h-10v8.4h11.3v1.4H291.7z"/>
	<path class="st0" d="M316.2,489.5h-1.4l-7.2-20h1.5l6.3,17.9l6.3-17.9h1.6L316.2,489.5z"/>
	<path class="st0" d="M328,489.5v-20h12.8v1.4h-11.3v7.3h10v1.4h-10v8.4h11.3v1.4H328z"/>
	<path class="st0" d="M359.8,489.5l-11.6-17.7v17.7h-1.5v-20h1.7l11.6,17.7v-17.7h1.4v20H359.8z"/>
	<path class="st0" d="M374.2,471v18.6h-1.5V471h-6.3v-1.4h14.2v1.4H374.2z"/>
	<path class="st0" d="M398.6,479.5c0,0.7,0,1.5-0.1,2.2c0,0.8-0.2,1.5-0.3,2.2c-0.2,0.7-0.4,1.4-0.8,2.1s-0.8,1.3-1.3,1.8
		c-0.6,0.6-1.4,1.1-2.2,1.5s-1.8,0.6-2.9,0.6c-1.1,0-2.1-0.2-2.9-0.6c-0.9-0.4-1.6-0.9-2.2-1.5c-0.6-0.5-1-1.2-1.3-1.8
		s-0.6-1.4-0.8-2.1c-0.2-0.7-0.3-1.5-0.3-2.2c0-0.8-0.1-1.5-0.1-2.2s0-1.4,0.1-2.2c0-0.8,0.2-1.5,0.3-2.2c0.2-0.7,0.4-1.4,0.8-2.1
		c0.3-0.7,0.8-1.3,1.3-1.8c0.6-0.6,1.4-1.1,2.2-1.5c0.9-0.4,1.8-0.6,2.9-0.6c1.1,0,2.1,0.2,2.9,0.6s1.6,0.9,2.2,1.5
		c0.6,0.5,1,1.2,1.3,1.8c0.3,0.7,0.6,1.4,0.8,2.1c0.2,0.7,0.3,1.5,0.3,2.2C398.6,478.1,398.6,478.8,398.6,479.5z M397.1,479.5
		c0-0.6,0-1.2,0-1.9c0-0.7-0.1-1.3-0.2-2c-0.1-0.7-0.3-1.3-0.6-1.9c-0.3-0.6-0.7-1.1-1.2-1.6c-0.5-0.5-1.1-0.9-1.8-1.2
		c-0.7-0.3-1.4-0.4-2.2-0.4c-0.8,0-1.5,0.1-2.2,0.4c-0.7,0.3-1.3,0.6-1.8,1.2c-0.5,0.5-0.9,1-1.2,1.6c-0.3,0.6-0.5,1.2-0.6,1.9
		c-0.1,0.7-0.2,1.3-0.2,2c0,0.7,0,1.3,0,1.9c0,0.6,0,1.2,0,1.9s0.1,1.3,0.2,2c0.1,0.7,0.3,1.3,0.6,1.9c0.3,0.6,0.7,1.2,1.2,1.6
		c0.5,0.5,1.1,0.9,1.8,1.2c0.7,0.3,1.4,0.4,2.2,0.4c0.8,0,1.5-0.1,2.2-0.4c0.7-0.3,1.3-0.6,1.8-1.2c0.5-0.5,0.9-1,1.2-1.6
		c0.3-0.6,0.5-1.2,0.6-1.9c0.1-0.7,0.2-1.3,0.2-2S397.1,480.1,397.1,479.5z"/>
	<path class="st0" d="M417.7,484.1c0,0.9-0.1,1.6-0.4,2.2c-0.3,0.6-0.7,1.1-1.1,1.6c-0.7,0.7-1.5,1.1-2.5,1.5s-2,0.5-3.2,0.5
		c-1.1,0-2.2-0.2-3.2-0.5c-1-0.4-1.8-0.9-2.4-1.6c-0.5-0.5-0.9-1.1-1.2-1.8s-0.5-1.4-0.6-2.2h1.5c0.1,0.6,0.2,1.2,0.5,1.7
		c0.3,0.5,0.6,1,1,1.4c0.5,0.5,1.2,1,2,1.2c0.8,0.3,1.6,0.4,2.4,0.4c0.9,0,1.7-0.1,2.5-0.4c0.8-0.2,1.5-0.6,2-1.1
		c0.4-0.3,0.6-0.7,0.9-1.2c0.2-0.5,0.3-1,0.3-1.7c0-0.5-0.1-0.9-0.3-1.4s-0.4-0.8-0.8-1.2c-0.3-0.3-0.7-0.6-1.2-0.9s-1-0.4-1.6-0.5
		l-3.7-0.5c-0.7-0.1-1.4-0.3-2-0.5c-0.6-0.2-1.1-0.6-1.6-1s-0.8-0.9-1-1.5c-0.2-0.6-0.4-1.3-0.4-2c0-0.8,0.2-1.6,0.5-2.2
		c0.3-0.6,0.7-1.1,1.3-1.6c0.6-0.6,1.4-1,2.2-1.3c0.9-0.3,1.8-0.5,2.7-0.5c1.1,0,2.1,0.2,3.1,0.6s1.8,0.9,2.3,1.6
		c0.4,0.5,0.8,1,1,1.6c0.3,0.6,0.4,1.2,0.5,1.9h-1.5c-0.1-0.5-0.2-1-0.4-1.4c-0.2-0.4-0.4-0.8-0.7-1.2c-0.4-0.5-1-1-1.8-1.3
		s-1.6-0.5-2.5-0.5c-0.7,0-1.4,0.1-2.1,0.3c-0.7,0.2-1.2,0.5-1.7,0.9c-0.4,0.3-0.7,0.7-1,1.2c-0.3,0.5-0.4,1-0.4,1.7
		c0,0.6,0.1,1.1,0.3,1.5s0.5,0.8,0.8,1c0.3,0.3,0.7,0.5,1.1,0.6c0.4,0.2,0.9,0.3,1.3,0.3l3.8,0.5c0.8,0.1,1.5,0.3,2.1,0.6
		s1.2,0.7,1.6,1.2c0.5,0.5,0.8,1,1.1,1.6C417.5,482.8,417.7,483.4,417.7,484.1z"/>
</g>
<g>
	<g>
		<g>
			<path class="st0" d="M432.2,76c0-0.1,0-0.1,0-0.2c0,0,0-0.1,0-0.1c0-0.1-0.1-0.1-0.1-0.2c0,0,0,0,0,0c-13-11-21.9-3.2-23.2-1.9
				c-1.9,0.2-3.6,0.5-5.2,0.9c1.3-1,2.4-2,3.6-3c0,0,0.1,0,0.1,0c0,0,0.1,0,0.1,0c23.5-7.1,18.4-28.2,18.4-28.4c0,0,0,0,0-0.1
				c0-0.1,0-0.1-0.1-0.1c0,0,0-0.1-0.1-0.1c0,0-0.1-0.1-0.1-0.1c0,0,0,0-0.1,0c0,0,0,0,0,0c0,0,0,0,0,0c0,0-0.1,0-0.1,0
				c0,0-0.1,0-0.1,0c-0.1,0-0.2,0-0.2,0.1c0,0,0,0,0,0c-7.1,3.9-18.8,14.2-18.3,27.7c-2.2,2-4.6,3.9-7.3,5.6c0,0,0,0,0,0
				c0,0,0,0,0,0c-4.6,3.6-9.9,6.4-16,8.7c1.3-1.9,2.5-4.3,3.3-6.9c3.1-1.2,5.1-4.7,5.5-7.6c0-0.3-0.2-0.6-0.5-0.7
				c-0.3,0-0.6,0.2-0.7,0.5c-0.3,2.2-1.6,4.9-3.8,6.2c1-3.8,1.3-8,0.4-11.7c0.6-0.4,1.1-0.9,1.3-1.7c0.4-1.5-0.6-3-2-3.3
				c-1.5-0.4-3,0.6-3.3,2c-0.4,1.5,0.6,3,2,3.3c0.3,0.1,0.6,0.1,0.9,0.1c1.7,7-1.2,15.8-5.1,20.4c-6.5,2.2-13.9,3.7-22.4,4.7
				c-0.5,0.1-1,0.1-1.5,0.1c7.9-8.1,10.2-22.8,8.2-33.1c0,0,0,0,0,0c0-0.1-0.1-0.2-0.1-0.2c0,0,0,0-0.1,0c0,0-0.1-0.1-0.1-0.1
				c0,0,0,0,0,0c0,0,0,0,0,0c0,0,0,0-0.1,0c-0.1,0-0.1,0-0.2,0c0,0-0.1,0-0.1,0c-0.1,0-0.1,0-0.2,0.1c0,0,0,0-0.1,0c0,0,0,0,0,0
				c0,0,0,0,0,0c-4.7,2.8-8.6,8.4-10.3,14.8c-1.8,6.5-1.5,13.8,0.6,18.9c-5.6,0.5-11.2,0.8-16.8,1c0,0,0,0,0,0c0,0,0,0,0,0
				c-1.5,0.1-3.1,0.1-4.6,0.2c-4,0.1-8.1,0.3-12.3,0.5c2.1-1.4,4.1-3.3,5.9-5.6c2.8-1,5.2-2.3,7.3-3.9c0,0,0,0,0,0
				c0.1,0,7.4-3.7,12.2-0.7c0.1,0.1,0.2,0.1,0.4,0.1c0.2,0,0.3-0.1,0.5-0.3c0.2-0.3,0.1-0.6-0.2-0.8c-3.4-2.1-7.7-1.4-10.5-0.5
				c2.6-2.9,4.4-6.5,5.4-10.8c0.1,0,0.3,0,0.4,0c1.6-0.1,3.1-1.3,3.5-3c0.5-2.1-0.8-4.3-2.9-4.8c-2.1-0.5-4.3,0.8-4.8,2.9
				c-0.5,2,0.7,4,2.6,4.7c-1.7,7.5-5.8,12.5-12.6,15.4c1.8-2.7,3.2-5.8,4-8.8c0.1,0,0.2,0,0.3,0c1.2-0.1,2.3-1,2.6-2.3
				c0.4-1.6-0.6-3.2-2.2-3.6c-0.8-0.2-1.6-0.1-2.2,0.4c-0.7,0.4-1.1,1.1-1.3,1.8c-0.3,1.4,0.4,2.8,1.7,3.4c-0.9,3.5-2.6,7-4.9,9.9
				c-2.3,3.1-5,5.4-7.8,6.6c-4.1,0.3-8.2,0.6-12.3,1.1c0,0-0.1,0-0.1,0c0,0,0,0,0,0c0,0,0,0-0.1,0c-1.9,0.2-3.7,0.5-5.6,0.8
				c-1.7,0.3-3.4,0.6-5,1c1.5-1.3,2.8-2.9,3.8-4.9c2.9-5.5,3.3-12.4,1.1-18c0,0,0,0,0,0c0,0,0-0.1-0.1-0.1c0,0,0-0.1-0.1-0.1
				c0,0,0,0,0,0c0,0,0,0-0.1,0c0,0,0,0-0.1,0c0,0,0,0,0,0c0,0-0.1,0-0.1,0c0,0-0.1,0-0.1,0c0,0-0.1,0-0.1,0c0,0-0.1,0-0.1,0
				c0,0,0,0,0,0c0,0,0,0,0,0c-5.9,3.1-10.3,8.8-11.8,15.3c-0.6,2.6-0.9,6.3,0.6,9.8c-11.1,3.5-20.7,9-27.5,15.9
				c-0.2,0.2-0.2,0.6,0,0.8c0.1,0.1,0.3,0.2,0.5,0.2c0.1,0,0.3-0.1,0.4-0.2c9.1-9.1,23-15.7,39.1-18.5c1.6-0.3,3.3-0.5,5-0.7
				c0.5,10.4,6.3,17.3,18.2,21.7c0,0,0,0,0,0c0.1,0,0.2,0,0.2,0c0.1,0,0.2,0,0.3-0.1c0,0,0,0,0,0c0,0,0,0,0,0c0,0,0,0,0.1-0.1
				c0,0,0-0.1,0-0.1c0,0,0-0.1,0-0.1c0-0.1,0-0.1,0-0.2c0,0,0,0,0-0.1c0.2-7.1-1.6-15.9-15.9-21.6c8.3-0.9,16.7-1.2,24.9-1.5
				c1.5,0,3-0.1,4.6-0.2c3.3,0.1,6.6,1.2,9.7,3.3c4.1,3.4,2.8,12-0.1,16.2c-0.1,0-0.1,0-0.2-0.1c-0.9-0.2-1.8-0.1-2.6,0.4
				c-0.8,0.5-1.3,1.2-1.5,2.1c-0.4,1.8,0.7,3.7,2.5,4.1c0.4,0.1,0.7,0.1,1.1,0.1c1.4-0.1,2.7-1.1,3-2.6c0.2-0.9,0.1-1.8-0.4-2.6
				c-0.2-0.4-0.5-0.7-0.9-1c2.4-3.7,3.7-10,2-14.5c2.2,2,4.2,4.4,5.7,7.1c-0.5,0.4-0.9,0.9-1,1.6c-0.4,1.6,0.6,3.2,2.2,3.6
				c0.3,0.1,0.6,0.1,1,0.1c0.4,0,0.9-0.2,1.3-0.4c0.7-0.4,1.1-1.1,1.3-1.8c0.2-0.8,0.1-1.6-0.4-2.2c-0.4-0.7-1.1-1.1-1.8-1.3
				c-0.5-0.1-1-0.1-1.5,0c-2.3-4-5.5-7.5-9.1-9.8c-1.6-1.1-3.3-1.9-5.1-2.5c4.1-0.2,8.2-0.4,12.4-0.8c0,0,0.1,0,0.1,0c0,0,0,0,0,0
				l0,0l0,0c0,0,0,0,0,0c1.1-0.1,2.1-0.2,3.2-0.3c2.9-0.3,5.7-0.7,8.4-1.2c-0.1,2.3,0.6,8.6,10.5,13.3c6.7,3.2,11.4,3.8,14.6,3.5
				c3.5-0.3,5-1.7,5.2-1.8c0,0,0,0,0,0c0,0,0,0,0,0c0.1-0.1,0.1-0.2,0.2-0.3c0,0,0,0,0,0c0,0,0,0,0,0c0-0.1,0-0.1,0-0.2
				c0,0,0,0,0-0.1c0,0,0-0.1-0.1-0.1c0,0,0,0,0,0c0,0,0,0,0,0c-4.8-7.5-15.6-13.8-25.1-15.2c3.2-0.7,6.2-1.6,9.1-2.5
				c0.1,0,0.1,0,0.2-0.1c1.9-0.6,3.7-1.3,5.4-2.1c0,0,0,0,0,0c4.4-2,9.1-1.8,12.2-1.2c2.2,0.4,4.5,1.1,6.6,1.7
				c0.5,0.1,1,0.3,1.5,0.4c0,0,0,0,0,0c1.7,0.4,4.2,1.9,5.4,3.7c0,0,0,0,0,0c1.1,1.7,1.6,3.6,0.5,7.3c-0.3,0-0.6,0-1,0
				c-0.8,0.2-1.4,0.6-1.8,1.3c-0.4,0.7-0.6,1.4-0.4,2.2c0.3,1.5,1.7,2.4,3.1,2.3c0.1,0,0.2,0,0.3,0c0.8-0.2,1.4-0.6,1.8-1.3
				c0.4-0.7,0.6-1.4,0.4-2.2c-0.2-0.8-0.7-1.5-1.4-1.9c0.4-1.5,0.7-2.8,0.7-3.9c1.4,1.5,3.8,3.3,7.2,3c0.3,0,0.6-0.1,0.9-0.1
				c0.3-0.1,0.5-0.4,0.5-0.7c-0.1-0.3-0.4-0.5-0.7-0.5c-5,1-7.9-3.6-8.2-4c-0.2-0.7-0.5-1.4-1-2.1c0,0,0,0,0,0
				c-0.5-0.7-1.1-1.3-1.7-1.9c2.4,0.5,4.5,0.6,6.5,0.4c0.6-0.1,1.1-0.1,1.7-0.2c0,0.1,0,0.1,0.1,0.2c0.4,0.7,1.1,1.2,1.9,1.4
				c0.3,0.1,0.7,0.1,1,0.1c0.5,0,0.9-0.2,1.3-0.4c0.7-0.4,1.2-1.1,1.4-1.9c0.2-0.8,0.1-1.6-0.4-2.3c-0.4-0.7-1.1-1.2-1.9-1.4
				c-1.7-0.4-3.3,0.6-3.7,2.3c-0.1,0.3-0.1,0.7-0.1,1c-2.5,0.5-5.3,0.3-8.7-0.4c-1.7-0.4-3.3-0.9-5-1.4c-2.2-0.6-4.4-1.3-6.7-1.7
				c-1.9-0.3-4.4-0.6-7-0.3c2.6-1.4,5-3,7.3-4.7c1.8-1,5.1-1.7,8.9-2.2c3.5,4,8.5,4.7,13,4.3c5.2-0.5,9.6-2.5,10-2.6c0,0,0,0,0,0
				c0.1,0,0.1-0.1,0.2-0.2c0,0,0,0,0,0c0,0,0,0,0,0C432.2,76.2,432.2,76.2,432.2,76C432.2,76.1,432.2,76.1,432.2,76
				C432.2,76,432.2,76,432.2,76z M384.8,63.1c-0.2-0.4-0.3-0.8-0.2-1.2c0.1-0.4,0.3-0.7,0.7-1c0.2-0.1,0.4-0.2,0.7-0.2
				c0.2,0,0.3,0,0.5,0c0.4,0.1,0.7,0.3,1,0.7c0.2,0.4,0.3,0.8,0.2,1.2c-0.1,0.4-0.3,0.7-0.7,1c-0.3,0.2-0.8,0.3-1.2,0.2
				C385.4,63.7,385.1,63.5,384.8,63.1z M339.7,67.1c-0.4-0.6-0.5-1.4-0.3-2.1c0.2-0.7,0.6-1.3,1.3-1.7c0.4-0.2,0.8-0.4,1.2-0.4
				c0.3,0,0.6,0,0.9,0.1c0.7,0.2,1.3,0.6,1.7,1.3c0.4,0.6,0.5,1.4,0.3,2.1c-0.2,0.7-0.6,1.3-1.3,1.7c-0.6,0.4-1.4,0.5-2.1,0.3
				C340.7,68.2,340.1,67.8,339.7,67.1z M330.5,72.7c0.1-0.5,0.4-0.8,0.8-1.1c0.2-0.1,0.5-0.2,0.8-0.3c0.2,0,0.4,0,0.6,0
				c0.5,0.1,0.8,0.4,1.1,0.8c0.2,0.4,0.3,0.9,0.2,1.3c-0.1,0.5-0.4,0.8-0.8,1.1c-0.4,0.2-0.9,0.3-1.3,0.2
				C330.9,74.6,330.3,73.6,330.5,72.7z M298,89.9c-1.1,2-2.4,3.7-4,4.9c-1.4,1.1-2.8,1.7-4.5,1.9c2.7-10.8,8-19.8,9.9-22.7
				C301.1,79.1,300.6,85.1,298,89.9z M288.7,87.8c1.2-5.4,4.5-10.1,9.1-13.2c-2.2,3.6-6.5,11.5-9,20.9
				C287.9,92.6,288.2,89.8,288.7,87.8z M306.8,96.3c2.4,3.5,7.8,11.2,14.5,17.9C312.2,110.3,307.7,104.6,306.8,96.3z M323.3,114.5
				c-7.4-7.1-13.5-15.9-15.8-19.3C315.4,98.2,323,103,323.3,114.5z M348.8,116.1c-0.3,1.2-1.5,1.9-2.7,1.7c-1.2-0.3-1.9-1.5-1.7-2.7
				c0.1-0.6,0.5-1.1,1-1.4c0.3-0.2,0.6-0.3,1-0.3c0.2,0,0.5,0,0.7,0.1c0.6,0.1,1.1,0.5,1.4,1C348.8,114.9,348.9,115.5,348.8,116.1z
				 M358.7,106c0.5,0.1,0.8,0.4,1.1,0.8c0.2,0.4,0.3,0.9,0.2,1.3c-0.1,0.5-0.4,0.8-0.8,1.1c-0.4,0.2-0.9,0.3-1.3,0.2
				c-0.9-0.2-1.5-1.2-1.3-2.1c0.1-0.5,0.5-0.9,0.9-1.1c0,0,0,0,0,0c0,0,0,0,0,0C357.9,105.9,358.3,105.9,358.7,106z M356.5,89.5
				c1.6-16.2,6.3-26.7,8.2-30.4C366,69,363.7,82.2,356.5,89.5z M355.4,72c1.4-5.2,4.3-9.8,7.8-12.7c-2.1,4.2-6.3,14.3-7.9,29.2
				C354,83.7,353.9,77.4,355.4,72z M414.6,100.2c-0.3,0.4-0.6,0.6-1.1,0.7c-0.9,0.2-1.8-0.4-2-1.3c-0.1-0.5,0-0.9,0.2-1.3
				c0.3-0.4,0.6-0.6,1.1-0.7c0.1,0,0.1,0,0.2,0c0.9-0.1,1.7,0.5,1.8,1.4C414.9,99.4,414.8,99.8,414.6,100.2z M421.3,84.8
				c0.2-0.8,0.9-1.4,1.7-1.4c0.2,0,0.4,0,0.6,0c0.5,0.1,0.9,0.4,1.2,0.9c0.3,0.4,0.3,0.9,0.2,1.4c-0.1,0.5-0.4,0.9-0.9,1.2
				c-0.4,0.3-0.9,0.3-1.4,0.2c-0.5-0.1-0.9-0.4-1.2-0.9C421.3,85.8,421.2,85.3,421.3,84.8z M427.9,74c-4.4-1-11-1.1-17-0.6
				C413.5,71.5,419.5,68.6,427.9,74z M409.2,69.7c9.3-9.1,14.1-19.7,15.9-24.1C425.6,50.8,425.3,63.8,409.2,69.7z M424.1,44.6
				c-1.5,4-6.4,15.2-16.3,24.7C408.1,62.9,411.7,52.2,424.1,44.6z M378.4,102.4c-8.6-4.1-9.8-9.2-9.9-11.6c3,2.8,13.2,11.5,27,14.1
				C393.4,105.9,388.2,107,378.4,102.4z M395.9,103.8c-13.4-2.6-23.3-10.8-26.4-13.7C378.6,90.2,390.4,96.4,395.9,103.8z
				 M410.5,74.7c7.3-0.7,16-0.5,19.8,1.2C426.9,77.2,416.5,80.4,410.5,74.7z"/>
		</g>
		<g>
			<path class="st0" d="M356.1,22.8c-2.1,0.4-4.2,1.5-6.6,3.4c-0.8,0.7-1.6,1.4-2.3,2.1c-1,0.9-2,1.9-3.1,2.8
				c-2.1,1.6-4.4,3.3-7.1,4c-1.5-0.1-3.1-0.1-4.6,0c1.3-0.6,2.3-1.5,3.1-2.2c0.9-0.9,1.8-1.9,2.6-2.8c0.6-0.7,1.2-1.4,1.9-2.1
				c1.3-1.3,2.6-2.3,3.9-2.8c0.1,0.2,0.2,0.3,0.3,0.4c0.7,0.7,1.8,0.6,2.5-0.1c0.3-0.3,0.5-0.8,0.5-1.2c0-0.5-0.2-0.9-0.5-1.2
				c-0.7-0.7-1.8-0.6-2.5,0.1c0,0-0.1,0.1-0.1,0.1c-0.3,0.3-0.4,0.7-0.4,1.1c0,0,0,0.1,0,0.1c-1.2,0.5-2.4,1.3-3.7,2.4
				c0.1-0.4,0.2-0.8,0.2-1.2c1.7-2.2,1.4-5.8,1.1-6.9c-0.2-1.1-0.9-2.3-1.9-2.6c-0.6-0.2-1.1,0-1.5,0.5c-0.2,0.3-0.4,0.6-0.5,1
				c-0.4-0.4-1-0.8-1.6-0.8c-0.7-0.1-1.2,0-1.6,0.4c-0.5,0.4-0.7,1-0.7,1.6c0,0.1,0,0.1,0,0.2c-0.5,0-1,0.1-1.4,0.5
				c0,0.1-0.1,0.1-0.1,0.2c-0.4,0.6-0.3,1.2-0.2,1.5c0.4,0.8,1.5,1.4,2.4,1.6c2.7,0.6,4.9,2.4,5.2,2.8l0,0c0,0,0,0,0,0
				c0,1.2-0.7,2.6-1.4,3.3c0,0,0,0,0,0c-0.2,0.2-0.4,0.4-0.6,0.6c-0.8,0.9-1.7,1.9-2.6,2.8c-1.3,1.2-3.4,2.7-6.1,3.1c0,0,0,0,0,0
				c-1.1,0.2-2.1,0.4-3.2,0.7c0,0,0,0,0,0c-1.6,0.4-3.2,0.9-4.9,1.5c4-3.5,7.1-9.6,7.1-14.5c0,0,0-0.1,0-0.1c0,0,0,0,0,0
				c0,0,0-0.1-0.1-0.1c0,0,0,0,0,0c0,0,0,0,0,0c0,0,0,0-0.1-0.1c0,0,0,0-0.1,0c0,0,0,0-0.1,0c-0.1,0-3.1-0.5-7.2,4.6
				c-0.5,0.6-1,1.3-1.6,2.1c-3.2,4.8-1.7,8.2-1,9.4c-1.4,0.6-2.8,1.2-4.3,1.9c-0.5,0.3-1,0.5-1.6,0.8c0,0,0,0,0,0c-2,1-4,2.1-6,3.3
				c0.6-0.8,1.1-1.6,1.6-2.6c1-2.2,1.4-4.7,1.3-7.3c0.3-0.1,0.5-0.2,0.7-0.4c0.3-0.3,0.5-0.7,0.5-1.2c0-0.4-0.2-0.9-0.5-1.2
				c-0.3-0.3-0.7-0.5-1.2-0.5c-0.4,0-0.9,0.2-1.2,0.5c0,0-0.1,0.1-0.1,0.1c-0.5,0.7-0.5,1.6,0.1,2.3c0.3,0.3,0.6,0.4,0.9,0.4
				c0.1,1.7-0.1,3.3-0.5,4.9c-0.6-2.6-3-5.1-5.2-6.1c0.2-0.7,0.1-1.5-0.5-2c-0.8-0.7-2-0.7-2.7,0.1c0,0-0.1,0.1-0.1,0.1
				c-0.6,0.8-0.6,1.9,0.2,2.6c0.8,0.7,2,0.7,2.7-0.1c0,0,0,0,0.1-0.1c2.6,1.1,5.8,4.7,4.9,7.5c-0.8,1.9-2,3.3-3.5,4.4
				c-0.7,0.4-1.5,0.9-2.2,1.3c-3.9,2.3-7.8,4.7-12,6.7c4.9-6.9,3.1-11.5,0.9-14.8c0,0,0,0,0,0c0,0-0.1-0.1-0.1-0.1c0,0,0,0-0.1,0
				c0,0,0,0,0,0c0,0,0,0,0,0c0,0,0,0,0,0c0,0-0.1,0-0.1,0c0,0,0,0-0.1,0c-0.1,0-0.1,0.1-0.2,0.1l0,0l0,0l0,0c0,0,0,0,0,0
				c-4.2,5.6-4.9,10.6-2,15.6c-0.8,0.4-1.7,0.8-2.5,1.1c-8.4,3.5-16.8,4.6-23.8,3.1c-0.1,0-0.3,0-0.4,0.1c0,0-0.1,0.1-0.1,0.1
				c0,0.2,0.1,0.4,0.3,0.4c5.3,1.2,11.4,0.9,17.6-0.8c0.3,2.1,1.6,3.7,2.7,4.7c2.6,2.6,6.4,4,10.1,3.6c0,0,0,0,0,0c0,0,0.1,0,0.1,0
				c0,0,0,0,0,0c0,0,0,0,0.1-0.1c0,0,0,0,0,0c0,0,0,0,0,0c0,0,0,0,0,0c0,0,0,0,0,0c0,0,0,0,0-0.1c0,0,0-0.1,0-0.1c0,0,0,0,0,0
				c-0.6-3.3-2.9-6.4-5.9-8.1c-1.1-0.6-2.1-1-3.2-1.1c0.9-0.3,1.7-0.6,2.6-1c1-0.4,1.9-0.8,2.9-1.3c0,0,0.1,0,0.1,0
				c2.1-1,4.1-2,6.1-3.2c1.7-0.3,3.6,0,5.6,0.7c1.9,0.7,3.8,1.8,5.2,3.2c-0.2,0.3-0.3,0.6-0.3,0.9c0,0.4,0.2,0.9,0.5,1.2
				c0.3,0.3,0.7,0.5,1.2,0.5c0.4,0,0.9-0.2,1.2-0.5c0.3-0.3,0.5-0.7,0.5-1.2c0-0.4-0.2-0.9-0.5-1.2c-0.6-0.5-1.4-0.6-2-0.2
				c-1.3-1.1-2.8-2.1-4.4-2.9c4-0.7,7.4,0.5,10.4,3.4c-0.3,0.4-0.5,0.9-0.5,1.4c0,0.6,0.3,1.2,0.7,1.6c0.4,0.4,1,0.6,1.6,0.6
				c0.6,0,1.2-0.3,1.6-0.7c0.4-0.4,0.6-1,0.6-1.6c0-0.6-0.3-1.2-0.7-1.6c-0.8-0.7-1.9-0.8-2.8-0.3c-1.7-1.7-3.6-2.8-5.7-3.4
				c1.6-0.4,3.7-1.4,4.7-3.4c0.1-0.2,0-0.4-0.2-0.5c-0.2-0.1-0.4,0-0.5,0.2c-1.3,2.8-5.8,3.3-5.9,3.3c0,0,0,0,0,0
				c-1.5-0.2-3,0-4.6,0.3c-1.5-0.5-3-0.8-4.3-0.9c2-1.1,3.9-2.3,5.8-3.4c0.7-0.4,1.5-0.9,2.2-1.3l0,0l0,0c2.6-1.6,5.4-3.1,8.1-4.5
				c0.6,3,2.7,6.5,5.4,9c2.7,2.5,6.2,3.9,9.3,3.8c0,0,0,0,0,0c0,0,0,0,0,0c0,0,0,0,0,0c0,0,0.1,0,0.1,0c0,0,0,0,0,0
				c0,0,0.1,0,0.1-0.1c0,0,0,0,0,0c0,0,0,0,0,0c0,0,0,0,0,0c0,0,0-0.1,0-0.1c0,0,0,0,0,0c0-0.1,0-0.1,0-0.2c0,0,0,0,0,0
				c-2.1-5.4-7.6-11.6-13.7-13c0.2-0.1,0.5-0.2,0.7-0.4c4.3-2.1,8.2-3.6,11.9-4.5c3.2,1,7.1,4.2,8.5,8c-0.1,0.1-0.3,0.2-0.4,0.3
				c0,0-0.1,0.1-0.1,0.1c-0.5,0.6-0.5,1.5,0.1,2.1c0.3,0.3,0.7,0.4,1.1,0.4c0.4,0,0.8-0.2,1.1-0.5c0.6-0.6,0.6-1.6,0-2.2
				c-0.3-0.3-0.7-0.4-1.1-0.4c-0.7-2-2-3.8-3.6-5.3c1.4,0,2.8,0.8,3.5,1.7c0.1,0.2,0.4,0.2,0.5,0.1c0.2-0.1,0.2-0.4,0.1-0.5
				c-1-1.3-3-2.3-4.8-1.9c-1.1-0.9-2.4-1.7-3.5-2.2c3.5-0.8,6.7-1,9.9-0.7c0,0,0,0,0,0c0,0,0,0,0,0c1.2,0.8,2.1,2.2,2.5,4
				c0.3,1.7,0.1,3.5-0.1,5.2l-0.1,0.5c-0.2,1.6-0.4,3.3-0.3,4.9c0.1,1.3,0.5,2.4,1.1,3.3c0.8,1.1,2,1.6,3.2,1.5
				c1-0.1,1.8-0.7,2.2-1.5c0.8,1,2.1,1.5,3.3,1.2c1.4-0.3,2.4-1.6,2.5-3c0.1,0.1,0.3,0.1,0.5,0.2c0.7,0.3,1.5,0.2,2.1-0.1
				c0.6-0.3,1-1,1.2-1.9c0.1-0.5,0.1-0.9,0-1.4c1.6,0.6,3.6,0.1,4.6-1.3c1.1-1.4,1-3.5-0.1-4.9c0.8-0.2,1.6-0.5,2.3-1
				c1-0.7,1.6-1.7,1.6-2.7c0-1.5-0.7-2.5-1.6-3.2c0.5-0.1,0.9-0.2,1.3-0.5c0.7-0.5,1.1-1.3,1.1-2.1c0-0.8-0.4-1.5-1.1-2.1
				c-0.2-0.2-0.5-0.3-0.7-0.4c0.8-0.5,1.4-1.4,1.5-2.4c0.1-1-0.2-2-0.9-2.9C361.6,23.2,358.9,22.3,356.1,22.8z M335.6,45.5
				c0.3,0.3,0.3,0.8,0.1,1.1c0,0,0,0,0,0.1c-0.2,0.2-0.4,0.3-0.6,0.3c-0.2,0-0.4-0.1-0.6-0.2l0,0c-0.3-0.3-0.3-0.8,0-1.2
				C334.7,45.2,335.2,45.2,335.6,45.5z M311.9,57.8c0-0.4,0.1-0.8,0.4-1.1c0.3-0.3,0.7-0.5,1.1-0.5c0.4,0,0.8,0.1,1.1,0.4
				c0.3,0.3,0.5,0.7,0.5,1.1c0,0.4-0.1,0.7-0.3,1c0,0-0.1,0.1-0.1,0.1c-0.3,0.3-0.7,0.5-1.1,0.5c-0.4,0-0.8-0.1-1.1-0.4
				C312,58.5,311.9,58.2,311.9,57.8z M305.6,57.2c0-0.3,0.1-0.5,0.3-0.7c0.4-0.4,1-0.4,1.3,0c0.2,0.2,0.3,0.4,0.3,0.7
				c0,0.2-0.1,0.4-0.2,0.6c0,0,0,0-0.1,0.1c-0.2,0.2-0.4,0.3-0.7,0.3c-0.3,0-0.5-0.1-0.7-0.3C305.7,57.7,305.6,57.5,305.6,57.2z
				 M290.9,66.6c-1.8-0.8-6.9-3.4-11.3-7.6c0.8-0.4,1.6-0.5,2.6-0.4c1.1,0.1,2.2,0.5,3.3,1.1C288.2,61.1,290.2,63.7,290.9,66.6z
				 M281.8,63.4c-0.8-0.8-1.7-2-2.2-3.4c3.9,3.5,8.1,5.9,10.3,6.9C286.9,66.7,284,65.5,281.8,63.4z M289.1,41.4
				c-1.1,5-1.3,10.1-1.4,12.5C285.7,49.8,286.1,45.9,289.1,41.4z M288.4,54.2c0-2.3,0.3-8.1,1.6-13.6
				C293.2,46,291.2,50.5,288.4,54.2z M301.5,33.9c-0.5,0.5-1.2,0.5-1.7,0c-0.5-0.5-0.5-1.2,0-1.7c0.5-0.5,1.2-0.5,1.7,0
				C301.9,32.7,301.9,33.4,301.5,33.9z M308.4,34.2c-0.3,0-0.5-0.1-0.7-0.3c-0.2-0.2-0.3-0.4-0.3-0.7c0-0.3,0.1-0.5,0.3-0.7
				c0.2-0.2,0.4-0.3,0.7-0.3c0.3,0,0.5,0.1,0.7,0.3c0.2,0.2,0.3,0.4,0.3,0.7c0,0.2-0.1,0.4-0.2,0.6c0,0,0,0-0.1,0.1
				C308.9,34.1,308.6,34.2,308.4,34.2z M325.8,54c-2.1-1.2-7.3-4.7-12.8-11.7C318.5,43.6,323.5,49,325.8,54z M317.8,50.8
				c-2.3-2.1-4.1-5-4.9-7.6c5.1,6.3,10,9.7,12.2,11.1C322.6,54.1,319.9,52.8,317.8,50.8z M344.7,25.1c-0.2-0.2-0.3-0.4-0.3-0.7
				c0-0.3,0.1-0.5,0.3-0.7c0.4-0.4,1-0.4,1.4,0c0.4,0.4,0.4,1,0.1,1.4c0,0,0,0-0.1,0.1C345.8,25.4,345.1,25.5,344.7,25.1z
				 M340.5,23.6c-0.1-0.8-0.3-1.7-1-2.7c-0.1-0.2-0.3-0.2-0.5-0.1c0,0-0.1,0-0.1,0.1c-0.1,0.1-0.1,0.3,0,0.4c0.5,0.8,0.7,1.5,0.8,2
				c-0.5-0.9-1.5-1.8-2.9-2.9c-0.2-0.1-0.4-0.1-0.5,0.1c0,0,0,0,0,0c-0.1,0.2-0.1,0.4,0.1,0.5c1.9,1.4,2.7,2.4,3,3.3
				c-1-0.8-2.8-1.9-4.8-2.4c-0.8-0.2-1.6-0.6-1.9-1.1c-0.1-0.3-0.1-0.5,0.1-0.8c0.3-0.5,1.1-0.4,1.6-0.1c0.2,0.1,0.4,0,0.5-0.2
				c0.1-0.2,0-0.4-0.2-0.5c-0.2-0.1-0.4-0.3-0.4-0.6c0-0.3,0.1-0.7,0.4-0.9c0.3-0.2,0.6-0.3,1-0.2c0.8,0.1,1.5,1,1.8,1.3
				c0.1,0.2,0.3,0.2,0.5,0.1c0.2-0.1,0.2-0.3,0.2-0.5c-0.2-0.4,0-1.1,0.3-1.4c0.2-0.3,0.5-0.3,0.8-0.3c0.7,0.2,1.2,1.2,1.4,2.1
				C340.8,19.7,341,21.8,340.5,23.6z M350.6,50.4c-1.9-1.7-3.2-4.1-4.4-6.3c-0.3-0.5-0.5-1-0.8-1.5c-1.2-2.1-2.5-4.2-4.7-5.8
				c-0.2-0.1-0.4-0.3-0.6-0.4c5.2,1.7,9.2,7,9.2,7c0.1,0.2,0.3,0.2,0.5,0.1c0.2-0.1,0.2-0.3,0.1-0.5c-0.2-0.3-4.4-5.8-10-7.5
				c7.3-0.5,11.9,2.4,12,2.4c0.2,0.1,0.4,0.1,0.5-0.1c0.1-0.2,0.1-0.4-0.1-0.5c-0.2-0.1-3.6-2.2-9.2-2.6c5.1-0.8,12.4-1.5,16.6,0.3
				c1.7,0.7,3.2,1.6,3.2,3.7c0,0.9-0.7,1.7-1.3,2.1c-0.8,0.5-1.7,0.8-2.6,1c-0.1,0-0.2,0.1-0.3,0.3c0,0.1,0,0.3,0.1,0.4
				c1.2,1.1,1.4,3.1,0.4,4.4c-1,1.2-3,1.6-4.3,0.8c-0.1-0.1-0.3-0.1-0.4,0c-0.1,0.1-0.2,0.2-0.2,0.4c0.1,0.7,0.2,1.3,0.1,1.8
				c-0.1,0.6-0.4,1.1-0.8,1.4c-0.4,0.2-0.9,0.2-1.5,0.1C351.4,51.2,350.9,50.8,350.6,50.4z M340.2,39.7c-0.1-0.6-0.3-1.2-0.5-1.7
				c3.5,3.8,2.9,8.5,2.8,8.8c0,0.2,0.1,0.4,0.3,0.4c0.2,0,0.4-0.1,0.4-0.3c0-0.1,0.8-5.5-3.2-9.6c0.1,0.1,0.2,0.1,0.3,0.2
				c2.1,1.5,3.4,3.6,4.5,5.6c0.3,0.5,0.5,1,0.8,1.5c1.2,2.3,2.5,4.7,4.5,6.5c0.1,0.1,0.3,0.3,0.5,0.4c0.2,1.2-0.7,2.5-1.9,2.8
				c-1.2,0.3-2.5-0.5-2.9-1.6c-0.1-0.2-0.2-0.3-0.4-0.2c-0.2,0-0.3,0.2-0.3,0.4c0,0.9-0.8,1.7-1.7,1.8c-0.9,0.1-1.9-0.4-2.5-1.2
				c-0.5-0.7-0.9-1.7-1-2.9c-0.1-1.6,0.1-3.2,0.3-4.7l0.1-0.5C340.4,43.3,340.6,41.5,340.2,39.7z M326.5,23.5
				c-0.8,0.8-1.5,1.5-2.1,2.3c-3.9,4.8-5.6,10.1-6.1,12.1c-0.7-1.2-1.6-4.1,1.2-8.2C322.6,25.1,325.2,23.8,326.5,23.5z M319,38.1
				c0.6-2.3,2.7-9,8.2-14.2C326.7,29,323.1,35.3,319,38.1z M362.5,25.6c0.6,0.8,0.9,1.6,0.8,2.4c-0.1,1.1-1.1,2.1-2.2,2.3
				c-0.1,0-0.1,0-0.2,0c-0.2,0-0.3,0.2-0.3,0.4c0,0.2,0.2,0.3,0.4,0.3c0.1,0,0.1,0,0.2,0c0.5,0,1.1,0.1,1.5,0.5
				c0.5,0.4,0.8,1,0.8,1.5c0,0.6-0.3,1.1-0.8,1.5c-0.6,0.5-1.4,0.5-2.3,0.2c-0.2-0.1-0.4-0.2-0.6-0.3c-4-1.8-10.5-1.3-15.6-0.6
				c4.3-2,7.1-4.8,7.2-5c0.1-0.1,0.1-0.4,0-0.5c-0.1-0.1-0.4-0.1-0.5,0c0,0-4.2,4.4-10.5,6.1c-0.2,0-0.3,0.1-0.5,0.1
				c1.7-0.9,3.2-2,4.5-3c1.1-0.9,2.2-1.8,3.2-2.8c0.7-0.7,1.5-1.4,2.3-2.1c2.2-1.9,4.2-2.9,6.2-3.3C358.8,23,361.2,23.9,362.5,25.6z
				"/>
		</g>
	</g>
	<g>
		<g>
			<path class="st0" d="M88.4,234.9c0,0.1,0,0.1,0,0.2c0,0,0,0.1,0,0.1c0,0.1,0.1,0.1,0.1,0.2c0,0,0,0,0,0c13,11,21.9,3.2,23.2,1.9
				c1.9-0.2,3.6-0.5,5.2-0.9c-1.3,1-2.4,2-3.6,3c0,0-0.1,0-0.1,0c0,0-0.1,0-0.1,0c-23.5,7.1-18.4,28.2-18.4,28.4c0,0,0,0,0,0.1
				c0,0.1,0,0.1,0.1,0.1c0,0,0,0.1,0.1,0.1c0,0,0.1,0.1,0.1,0.1c0,0,0,0,0.1,0c0,0,0,0,0,0c0,0,0,0,0,0c0,0,0.1,0,0.1,0
				c0,0,0.1,0,0.1,0c0.1,0,0.2,0,0.2-0.1c0,0,0,0,0,0c7.1-3.9,18.8-14.2,18.3-27.7c2.2-2,4.6-3.9,7.3-5.6c0,0,0,0,0,0c0,0,0,0,0,0
				c4.6-3.6,9.9-6.4,16-8.7c-1.3,1.9-2.5,4.3-3.3,6.9c-3.1,1.2-5.1,4.7-5.5,7.6c0,0.3,0.2,0.6,0.5,0.7c0.3,0,0.6-0.2,0.7-0.5
				c0.3-2.2,1.6-4.9,3.8-6.2c-1,3.8-1.3,8-0.4,11.7c-0.6,0.4-1.1,0.9-1.3,1.7c-0.4,1.5,0.6,3,2,3.3c1.5,0.4,3-0.6,3.3-2
				c0.4-1.5-0.6-3-2-3.3c-0.3-0.1-0.6-0.1-0.9-0.1c-1.7-7,1.2-15.8,5.1-20.4c6.5-2.2,13.9-3.7,22.4-4.7c0.5-0.1,1-0.1,1.5-0.1
				c-7.9,8.1-10.2,22.8-8.2,33.1c0,0,0,0,0,0c0,0.1,0.1,0.2,0.1,0.2c0,0,0,0,0.1,0c0,0,0.1,0.1,0.1,0.1c0,0,0,0,0,0c0,0,0,0,0,0
				c0,0,0,0,0.1,0c0.1,0,0.1,0,0.2,0c0,0,0.1,0,0.1,0c0.1,0,0.1,0,0.2-0.1c0,0,0,0,0.1,0c0,0,0,0,0,0c0,0,0,0,0,0
				c4.7-2.8,8.6-8.4,10.3-14.8c1.8-6.5,1.5-13.8-0.6-18.9c5.6-0.5,11.2-0.8,16.8-1c0,0,0,0,0,0c0,0,0,0,0,0c1.5-0.1,3.1-0.1,4.6-0.2
				c4-0.1,8.1-0.3,12.3-0.5c-2.1,1.4-4.1,3.3-5.9,5.6c-2.8,1-5.2,2.3-7.3,3.9c0,0,0,0,0,0c-0.1,0-7.4,3.7-12.2,0.7
				c-0.1-0.1-0.2-0.1-0.4-0.1c-0.2,0-0.3,0.1-0.5,0.3c-0.2,0.3-0.1,0.6,0.2,0.8c3.4,2.1,7.7,1.4,10.5,0.5c-2.6,2.9-4.4,6.5-5.4,10.8
				c-0.1,0-0.3,0-0.4,0c-1.6,0.1-3.1,1.3-3.5,3c-0.5,2.1,0.8,4.3,2.9,4.8c2.1,0.5,4.3-0.8,4.8-2.9c0.5-2-0.7-4-2.6-4.7
				c1.7-7.5,5.8-12.5,12.6-15.4c-1.8,2.7-3.2,5.8-4,8.8c-0.1,0-0.2,0-0.3,0c-1.2,0.1-2.3,1-2.6,2.3c-0.4,1.6,0.6,3.2,2.2,3.6
				c0.8,0.2,1.6,0.1,2.2-0.4c0.7-0.4,1.1-1.1,1.3-1.8c0.3-1.4-0.4-2.8-1.7-3.4c0.9-3.5,2.6-7,4.9-9.9c2.3-3.1,5-5.4,7.8-6.6
				c4.1-0.3,8.2-0.6,12.3-1.1c0,0,0.1,0,0.1,0c0,0,0,0,0,0c0,0,0,0,0.1,0c1.9-0.2,3.7-0.5,5.6-0.8c1.7-0.3,3.4-0.6,5-1
				c-1.5,1.3-2.8,2.9-3.8,4.9c-2.9,5.5-3.3,12.4-1.1,18c0,0,0,0,0,0c0,0,0,0.1,0.1,0.1c0,0,0,0.1,0.1,0.1c0,0,0,0,0,0c0,0,0,0,0.1,0
				c0,0,0,0,0.1,0c0,0,0,0,0,0c0,0,0.1,0,0.1,0c0,0,0.1,0,0.1,0c0,0,0.1,0,0.1,0c0,0,0.1,0,0.1,0c0,0,0,0,0,0c0,0,0,0,0,0
				c5.9-3.1,10.3-8.8,11.8-15.3c0.6-2.6,0.9-6.3-0.6-9.8c11.1-3.5,20.7-9,27.5-15.9c0.2-0.2,0.2-0.6,0-0.8c-0.1-0.1-0.3-0.2-0.5-0.2
				c-0.1,0-0.3,0.1-0.4,0.2c-9.1,9.1-23,15.7-39.1,18.5c-1.6,0.3-3.3,0.5-5,0.7c-0.5-10.4-6.3-17.3-18.2-21.7c0,0,0,0,0,0
				c-0.1,0-0.2,0-0.2,0c-0.1,0-0.2,0-0.3,0.1c0,0,0,0,0,0c0,0,0,0,0,0c0,0,0,0-0.1,0.1c0,0,0,0.1,0,0.1c0,0,0,0.1,0,0.1
				c0,0.1,0,0.1,0,0.2c0,0,0,0,0,0.1c-0.2,7.1,1.6,15.9,15.9,21.6c-8.3,0.9-16.7,1.2-24.9,1.5c-1.5,0-3,0.1-4.6,0.2
				c-3.3-0.1-6.6-1.2-9.7-3.3c-4.1-3.4-2.8-12,0.1-16.2c0.1,0,0.1,0,0.2,0.1c0.9,0.2,1.8,0.1,2.6-0.4c0.8-0.5,1.3-1.2,1.5-2.1
				c0.4-1.8-0.7-3.7-2.5-4.1c-0.4-0.1-0.7-0.1-1.1-0.1c-1.4,0.1-2.7,1.1-3,2.6c-0.2,0.9-0.1,1.8,0.4,2.6c0.2,0.4,0.5,0.7,0.9,1
				c-2.4,3.7-3.7,10-2,14.5c-2.2-2-4.2-4.4-5.7-7.1c0.5-0.4,0.9-0.9,1-1.6c0.4-1.6-0.6-3.2-2.2-3.6c-0.3-0.1-0.6-0.1-1-0.1
				c-0.4,0-0.9,0.2-1.3,0.4c-0.7,0.4-1.1,1.1-1.3,1.8c-0.2,0.8-0.1,1.6,0.4,2.2c0.4,0.7,1.1,1.1,1.8,1.3c0.5,0.1,1,0.1,1.5,0
				c2.3,4,5.5,7.5,9.1,9.8c1.6,1.1,3.3,1.9,5.1,2.5c-4.1,0.2-8.2,0.4-12.4,0.8c0,0-0.1,0-0.1,0c0,0,0,0,0,0l0,0l0,0c0,0,0,0,0,0
				c-1.1,0.1-2.1,0.2-3.2,0.3c-2.9,0.3-5.7,0.7-8.4,1.2c0.1-2.3-0.6-8.6-10.5-13.3c-6.7-3.2-11.4-3.8-14.6-3.5
				c-3.5,0.3-5,1.7-5.2,1.8c0,0,0,0,0,0c0,0,0,0,0,0c-0.1,0.1-0.1,0.2-0.2,0.3c0,0,0,0,0,0c0,0,0,0,0,0c0,0.1,0,0.1,0,0.2
				c0,0,0,0,0,0.1c0,0,0,0.1,0.1,0.1c0,0,0,0,0,0c0,0,0,0,0,0c4.8,7.5,15.6,13.8,25.1,15.2c-3.2,0.7-6.2,1.6-9.1,2.5
				c-0.1,0-0.1,0-0.2,0.1c-1.9,0.6-3.7,1.3-5.4,2.1c0,0,0,0,0,0c-4.4,2-9.1,1.8-12.2,1.2c-2.2-0.4-4.5-1.1-6.6-1.7
				c-0.5-0.1-1-0.3-1.5-0.4c0,0,0,0,0,0c-1.7-0.4-4.2-1.9-5.4-3.7c0,0,0,0,0,0c-1.1-1.7-1.6-3.6-0.5-7.3c0.3,0,0.6,0,1,0
				c0.8-0.2,1.4-0.6,1.8-1.3c0.4-0.7,0.6-1.4,0.4-2.2c-0.3-1.5-1.7-2.4-3.1-2.3c-0.1,0-0.2,0-0.3,0c-0.8,0.2-1.4,0.6-1.8,1.3
				c-0.4,0.7-0.6,1.4-0.4,2.2c0.2,0.8,0.7,1.5,1.4,1.9c-0.4,1.5-0.7,2.8-0.7,3.9c-1.4-1.5-3.8-3.3-7.2-3c-0.3,0-0.6,0.1-0.9,0.1
				c-0.3,0.1-0.5,0.4-0.5,0.7c0.1,0.3,0.4,0.5,0.7,0.5c5-1,7.9,3.6,8.2,4c0.2,0.7,0.5,1.4,1,2.1c0,0,0,0,0,0
				c0.5,0.7,1.1,1.3,1.7,1.9c-2.4-0.5-4.5-0.6-6.5-0.4c-0.6,0.1-1.1,0.1-1.7,0.2c0-0.1,0-0.1-0.1-0.2c-0.4-0.7-1.1-1.2-1.9-1.4
				c-0.3-0.1-0.7-0.1-1-0.1c-0.5,0-0.9,0.2-1.3,0.4c-0.7,0.4-1.2,1.1-1.4,1.9c-0.2,0.8-0.1,1.6,0.4,2.3c0.4,0.7,1.1,1.2,1.9,1.4
				c1.7,0.4,3.3-0.6,3.7-2.3c0.1-0.3,0.1-0.7,0.1-1c2.5-0.5,5.3-0.3,8.7,0.4c1.7,0.4,3.3,0.9,5,1.4c2.2,0.6,4.4,1.3,6.7,1.7
				c1.9,0.3,4.4,0.6,7,0.3c-2.6,1.4-5,3-7.3,4.7c-1.8,1-5.1,1.7-8.9,2.2c-3.5-4-8.5-4.7-13-4.3c-5.2,0.5-9.6,2.5-10,2.6c0,0,0,0,0,0
				c-0.1,0-0.1,0.1-0.2,0.2c0,0,0,0,0,0c0,0,0,0,0,0C88.5,234.7,88.4,234.8,88.4,234.9C88.4,234.9,88.4,234.9,88.4,234.9
				C88.4,234.9,88.4,234.9,88.4,234.9z M135.8,247.8c0.2,0.4,0.3,0.8,0.2,1.2c-0.1,0.4-0.3,0.7-0.7,1c-0.2,0.1-0.4,0.2-0.7,0.2
				c-0.2,0-0.3,0-0.5,0c-0.4-0.1-0.7-0.3-1-0.7c-0.2-0.4-0.3-0.8-0.2-1.2c0.1-0.4,0.3-0.7,0.7-1c0.3-0.2,0.8-0.3,1.2-0.2
				C135.2,247.2,135.6,247.5,135.8,247.8z M180.9,243.8c0.4,0.6,0.5,1.4,0.3,2.1c-0.2,0.7-0.6,1.3-1.3,1.7c-0.4,0.2-0.8,0.4-1.2,0.4
				c-0.3,0-0.6,0-0.9-0.1c-0.7-0.2-1.3-0.6-1.7-1.3c-0.4-0.6-0.5-1.4-0.3-2.1c0.2-0.7,0.6-1.3,1.3-1.7c0.6-0.4,1.4-0.5,2.1-0.3
				C179.9,242.7,180.5,243.2,180.9,243.8z M190.1,238.2c-0.1,0.5-0.4,0.8-0.8,1.1c-0.2,0.1-0.5,0.2-0.8,0.3c-0.2,0-0.4,0-0.6,0
				c-0.5-0.1-0.8-0.4-1.1-0.8c-0.2-0.4-0.3-0.9-0.2-1.3c0.1-0.5,0.4-0.8,0.8-1.1c0.4-0.2,0.9-0.3,1.3-0.2
				C189.8,236.3,190.4,237.3,190.1,238.2z M222.6,221c1.1-2,2.4-3.7,4-4.9c1.4-1.1,2.8-1.7,4.5-1.9c-2.7,10.8-8,19.8-9.9,22.7
				C219.5,231.8,220,225.8,222.6,221z M232,223.2c-1.2,5.4-4.5,10.1-9.1,13.2c2.2-3.6,6.5-11.5,9-20.9
				C232.7,218.3,232.4,221.1,232,223.2z M213.8,214.6c-2.4-3.5-7.8-11.2-14.5-17.9C208.4,200.7,213,206.3,213.8,214.6z M197.4,196.4
				c7.4,7.1,13.5,15.9,15.8,19.3C205.2,212.8,197.7,208,197.4,196.4z M171.8,194.9c0.3-1.2,1.5-1.9,2.7-1.7c1.2,0.3,1.9,1.5,1.7,2.7
				c-0.1,0.6-0.5,1.1-1,1.4c-0.3,0.2-0.6,0.3-1,0.3c-0.2,0-0.5,0-0.7-0.1c-0.6-0.1-1.1-0.5-1.4-1
				C171.8,196.1,171.7,195.5,171.8,194.9z M162,205c-0.5-0.1-0.8-0.4-1.1-0.8c-0.2-0.4-0.3-0.9-0.2-1.3c0.1-0.5,0.4-0.8,0.8-1.1
				c0.4-0.2,0.9-0.3,1.3-0.2c0.9,0.2,1.5,1.2,1.3,2.1c-0.1,0.5-0.5,0.9-0.9,1.1c0,0,0,0,0,0c0,0,0,0,0,0
				C162.8,205,162.4,205.1,162,205z M164.2,221.4c-1.6,16.2-6.3,26.7-8.2,30.4C154.6,241.9,156.9,228.8,164.2,221.4z M165.2,239
				c-1.4,5.2-4.3,9.8-7.8,12.7c2.1-4.2,6.3-14.3,7.9-29.2C166.7,227.2,166.7,233.5,165.2,239z M106,210.7c0.3-0.4,0.6-0.6,1.1-0.7
				c0.9-0.2,1.8,0.4,2,1.3c0.1,0.5,0,0.9-0.2,1.3c-0.3,0.4-0.6,0.6-1.1,0.7c-0.1,0-0.1,0-0.2,0c-0.9,0.1-1.7-0.5-1.8-1.4
				C105.7,211.6,105.8,211.1,106,210.7z M99.3,226.1c-0.2,0.8-0.9,1.4-1.7,1.4c-0.2,0-0.4,0-0.6,0c-0.5-0.1-0.9-0.4-1.2-0.9
				c-0.3-0.4-0.3-0.9-0.2-1.4c0.1-0.5,0.4-0.9,0.9-1.2c0.4-0.3,0.9-0.3,1.4-0.2c0.5,0.1,0.9,0.4,1.2,0.9
				C99.3,225.1,99.4,225.6,99.3,226.1z M92.7,237c4.4,1,11,1.1,17,0.6C107.2,239.5,101.1,242.4,92.7,237z M111.4,241.3
				c-9.3,9.1-14.1,19.7-15.9,24.1C95,260.2,95.3,247.1,111.4,241.3z M96.5,266.3c1.5-4,6.4-15.2,16.3-24.7
				C112.6,248,108.9,258.8,96.5,266.3z M142.2,208.6c8.6,4.1,9.8,9.2,9.9,11.6c-3-2.8-13.2-11.5-27-14.1
				C127.2,205,132.5,204,142.2,208.6z M124.7,207.2c13.4,2.6,23.3,10.8,26.4,13.7C142,220.7,130.2,214.6,124.7,207.2z M110.2,236.3
				c-7.3,0.7-16,0.5-19.8-1.2C93.8,233.8,104.1,230.5,110.2,236.3z"/>
		</g>
		<g>
			<path class="st0" d="M164.5,288.2c2.1-0.4,4.2-1.5,6.6-3.4c0.8-0.7,1.6-1.4,2.3-2.1c1-0.9,2-1.9,3.1-2.8c2.1-1.6,4.4-3.3,7.1-4
				c1.5,0.1,3.1,0.1,4.6,0c-1.3,0.6-2.3,1.5-3.1,2.2c-0.9,0.9-1.8,1.9-2.6,2.8c-0.6,0.7-1.2,1.4-1.9,2.1c-1.3,1.3-2.6,2.3-3.9,2.8
				c-0.1-0.2-0.2-0.3-0.3-0.4c-0.7-0.7-1.8-0.6-2.5,0.1c-0.3,0.3-0.5,0.8-0.5,1.2c0,0.5,0.2,0.9,0.5,1.2c0.7,0.7,1.8,0.6,2.5-0.1
				c0,0,0.1-0.1,0.1-0.1c0.3-0.3,0.4-0.7,0.4-1.1c0,0,0-0.1,0-0.1c1.2-0.5,2.4-1.3,3.7-2.4c-0.1,0.4-0.2,0.8-0.2,1.2
				c-1.7,2.2-1.4,5.8-1.1,6.9c0.2,1.1,0.9,2.3,1.9,2.6c0.6,0.2,1.1,0,1.5-0.5c0.2-0.3,0.4-0.6,0.5-1c0.4,0.4,1,0.8,1.6,0.8
				c0.7,0.1,1.2,0,1.6-0.4c0.5-0.4,0.7-1,0.7-1.6c0-0.1,0-0.1,0-0.2c0.5,0,1-0.1,1.4-0.5c0-0.1,0.1-0.1,0.1-0.2
				c0.4-0.6,0.3-1.2,0.2-1.5c-0.4-0.8-1.5-1.4-2.4-1.6c-2.7-0.6-4.9-2.4-5.2-2.8l0,0c0,0,0,0,0,0c0-1.2,0.7-2.6,1.4-3.3c0,0,0,0,0,0
				c0.2-0.2,0.4-0.4,0.6-0.6c0.8-0.9,1.7-1.9,2.6-2.8c1.3-1.2,3.4-2.7,6.1-3.1c0,0,0,0,0,0c1.1-0.2,2.1-0.4,3.2-0.7c0,0,0,0,0,0
				c1.6-0.4,3.2-0.9,4.9-1.5c-4,3.5-7.1,9.6-7.1,14.5c0,0,0,0.1,0,0.1c0,0,0,0,0,0c0,0,0,0.1,0.1,0.1c0,0,0,0,0,0c0,0,0,0,0,0
				c0,0,0,0,0.1,0.1c0,0,0,0,0.1,0c0,0,0,0,0.1,0c0.1,0,3.1,0.5,7.2-4.6c0.5-0.6,1-1.3,1.6-2.1c3.2-4.8,1.7-8.2,1-9.4
				c1.4-0.6,2.8-1.2,4.3-1.9c0.5-0.3,1-0.5,1.6-0.8c0,0,0,0,0,0c2-1,4-2.1,6-3.3c-0.6,0.8-1.1,1.6-1.6,2.6c-1,2.2-1.4,4.7-1.3,7.3
				c-0.3,0.1-0.5,0.2-0.7,0.4c-0.3,0.3-0.5,0.7-0.5,1.2c0,0.4,0.2,0.9,0.5,1.2c0.3,0.3,0.7,0.5,1.2,0.5c0.4,0,0.9-0.2,1.2-0.5
				c0,0,0.1-0.1,0.1-0.1c0.5-0.7,0.5-1.6-0.1-2.3c-0.3-0.3-0.6-0.4-0.9-0.4c-0.1-1.7,0.1-3.3,0.5-4.9c0.6,2.6,3,5.1,5.2,6.1
				c-0.2,0.7-0.1,1.5,0.5,2c0.8,0.7,2,0.7,2.7-0.1c0,0,0.1-0.1,0.1-0.1c0.6-0.8,0.6-1.9-0.2-2.6c-0.8-0.7-2-0.7-2.7,0.1
				c0,0,0,0-0.1,0.1c-2.6-1.1-5.8-4.7-4.9-7.5c0.8-1.9,2-3.3,3.5-4.4c0.7-0.4,1.5-0.9,2.2-1.3c3.9-2.3,7.8-4.7,12-6.7
				c-4.9,6.9-3.1,11.5-0.9,14.8c0,0,0,0,0,0c0,0,0.1,0.1,0.1,0.1c0,0,0,0,0.1,0c0,0,0,0,0,0c0,0,0,0,0,0c0,0,0,0,0,0
				c0,0,0.1,0,0.1,0c0,0,0,0,0.1,0c0.1,0,0.1-0.1,0.2-0.1l0,0l0,0l0,0c0,0,0,0,0,0c4.2-5.6,4.9-10.6,2-15.6c0.8-0.4,1.7-0.8,2.5-1.1
				c8.4-3.5,16.8-4.6,23.8-3.1c0.1,0,0.3,0,0.4-0.1c0,0,0.1-0.1,0.1-0.1c0-0.2-0.1-0.4-0.3-0.4c-5.3-1.2-11.4-0.9-17.6,0.8
				c-0.3-2.1-1.6-3.7-2.7-4.7c-2.6-2.6-6.4-4-10.1-3.6c0,0,0,0,0,0c0,0-0.1,0-0.1,0c0,0,0,0,0,0c0,0,0,0-0.1,0.1c0,0,0,0,0,0
				c0,0,0,0,0,0c0,0,0,0,0,0c0,0,0,0,0,0c0,0,0,0,0,0.1c0,0,0,0.1,0,0.1c0,0,0,0,0,0c0.6,3.3,2.9,6.4,5.9,8.1c1.1,0.6,2.1,1,3.2,1.1
				c-0.9,0.3-1.7,0.6-2.6,1c-1,0.4-1.9,0.8-2.9,1.3c0,0-0.1,0-0.1,0c-2.1,1-4.1,2-6.1,3.2c-1.7,0.3-3.6,0-5.6-0.7
				c-1.9-0.7-3.8-1.8-5.2-3.2c0.2-0.3,0.3-0.6,0.3-0.9c0-0.4-0.2-0.9-0.5-1.2c-0.3-0.3-0.7-0.5-1.2-0.5c-0.4,0-0.9,0.2-1.2,0.5
				c-0.3,0.3-0.5,0.7-0.5,1.2c0,0.4,0.2,0.9,0.5,1.2c0.6,0.5,1.4,0.6,2,0.2c1.3,1.1,2.8,2.1,4.4,2.9c-4,0.7-7.4-0.5-10.4-3.4
				c0.3-0.4,0.5-0.9,0.5-1.4c0-0.6-0.3-1.2-0.7-1.6c-0.4-0.4-1-0.6-1.6-0.6c-0.6,0-1.2,0.3-1.6,0.7c-0.4,0.4-0.6,1-0.6,1.6
				c0,0.6,0.3,1.2,0.7,1.6c0.8,0.7,1.9,0.8,2.8,0.3c1.7,1.7,3.6,2.8,5.7,3.4c-1.6,0.4-3.7,1.4-4.7,3.4c-0.1,0.2,0,0.4,0.2,0.5
				c0.2,0.1,0.4,0,0.5-0.2c1.3-2.8,5.8-3.3,5.9-3.3c0,0,0,0,0,0c1.5,0.2,3,0,4.6-0.3c1.5,0.5,3,0.8,4.3,0.9c-2,1.1-3.9,2.3-5.8,3.4
				c-0.7,0.4-1.5,0.9-2.2,1.3l0,0l0,0c-2.6,1.6-5.4,3.1-8.1,4.5c-0.6-3-2.7-6.5-5.4-9c-2.7-2.5-6.2-3.9-9.3-3.8c0,0,0,0,0,0
				c0,0,0,0,0,0c0,0,0,0,0,0c0,0-0.1,0-0.1,0c0,0,0,0,0,0c0,0-0.1,0-0.1,0.1c0,0,0,0,0,0c0,0,0,0,0,0c0,0,0,0,0,0c0,0,0,0.1,0,0.1
				c0,0,0,0,0,0c0,0.1,0,0.1,0,0.2c0,0,0,0,0,0c2.1,5.4,7.6,11.6,13.7,13c-0.2,0.1-0.5,0.2-0.7,0.4c-4.3,2.1-8.2,3.6-11.9,4.5
				c-3.2-1-7.1-4.2-8.5-8c0.1-0.1,0.3-0.2,0.4-0.3c0,0,0.1-0.1,0.1-0.1c0.5-0.6,0.5-1.5-0.1-2.1c-0.3-0.3-0.7-0.4-1.1-0.4
				c-0.4,0-0.8,0.2-1.1,0.5c-0.6,0.6-0.6,1.6,0,2.2c0.3,0.3,0.7,0.4,1.1,0.4c0.7,2,2,3.8,3.6,5.3c-1.4,0-2.8-0.8-3.5-1.7
				c-0.1-0.2-0.4-0.2-0.5-0.1c-0.2,0.1-0.2,0.4-0.1,0.5c1,1.3,3,2.3,4.8,1.9c1.1,0.9,2.4,1.7,3.5,2.2c-3.5,0.8-6.7,1-9.9,0.7
				c0,0,0,0,0,0c0,0,0,0,0,0c-1.2-0.8-2.1-2.2-2.5-4c-0.3-1.7-0.1-3.5,0.1-5.2l0.1-0.5c0.2-1.6,0.4-3.3,0.3-4.9
				c-0.1-1.3-0.5-2.4-1.1-3.3c-0.8-1.1-2-1.6-3.2-1.5c-1,0.1-1.8,0.7-2.2,1.5c-0.8-1-2.1-1.5-3.3-1.2c-1.4,0.3-2.4,1.6-2.5,3
				c-0.1-0.1-0.3-0.1-0.5-0.2c-0.7-0.3-1.5-0.2-2.1,0.1c-0.6,0.3-1,1-1.2,1.9c-0.1,0.5-0.1,0.9,0,1.4c-1.6-0.6-3.6-0.1-4.6,1.3
				c-1.1,1.4-1,3.5,0.1,4.9c-0.8,0.2-1.6,0.5-2.3,1c-1,0.7-1.6,1.7-1.6,2.7c0,1.5,0.7,2.5,1.6,3.2c-0.5,0.1-0.9,0.2-1.3,0.5
				c-0.7,0.5-1.1,1.3-1.1,2.1c0,0.8,0.4,1.5,1.1,2.1c0.2,0.2,0.5,0.3,0.7,0.4c-0.8,0.5-1.4,1.4-1.5,2.4c-0.1,1,0.2,2,0.9,2.9
				C159,287.7,161.7,288.7,164.5,288.2z M185,265.4c-0.3-0.3-0.3-0.8-0.1-1.1c0,0,0,0,0-0.1c0.2-0.2,0.4-0.3,0.6-0.3
				c0.2,0,0.4,0.1,0.6,0.2l0,0c0.3,0.3,0.3,0.8,0,1.2C185.9,265.7,185.4,265.7,185,265.4z M208.7,253.2c0,0.4-0.1,0.8-0.4,1.1
				c-0.3,0.3-0.7,0.5-1.1,0.5c-0.4,0-0.8-0.1-1.1-0.4c-0.3-0.3-0.5-0.7-0.5-1.1c0-0.4,0.1-0.7,0.3-1c0,0,0.1-0.1,0.1-0.1
				c0.3-0.3,0.7-0.5,1.1-0.5c0.4,0,0.8,0.1,1.1,0.4C208.6,252.4,208.7,252.8,208.7,253.2z M215,253.7c0,0.3-0.1,0.5-0.3,0.7
				c-0.4,0.4-1,0.4-1.3,0c-0.2-0.2-0.3-0.4-0.3-0.7c0-0.2,0.1-0.4,0.2-0.6c0,0,0,0,0.1-0.1c0.2-0.2,0.4-0.3,0.7-0.3
				c0.3,0,0.5,0.1,0.7,0.3C214.9,253.2,215,253.4,215,253.7z M229.7,244.4c1.8,0.8,6.9,3.4,11.3,7.6c-0.8,0.4-1.6,0.5-2.6,0.4
				c-1.1-0.1-2.2-0.5-3.3-1.1C232.5,249.9,230.5,247.2,229.7,244.4z M238.8,247.6c0.8,0.8,1.7,2,2.2,3.4c-3.9-3.5-8.1-5.9-10.3-6.9
				C233.7,244.2,236.7,245.4,238.8,247.6z M231.6,269.5c1.1-5,1.3-10.1,1.4-12.5C234.9,261.1,234.5,265.1,231.6,269.5z M232.2,256.7
				c0,2.3-0.3,8.1-1.6,13.6C227.4,264.9,229.4,260.4,232.2,256.7z M219.2,277c0.5-0.5,1.2-0.5,1.7,0c0.5,0.5,0.5,1.2,0,1.7
				c-0.5,0.5-1.2,0.5-1.7,0C218.7,278.3,218.7,277.5,219.2,277z M212.2,276.7c0.3,0,0.5,0.1,0.7,0.3c0.2,0.2,0.3,0.4,0.3,0.7
				c0,0.3-0.1,0.5-0.3,0.7c-0.2,0.2-0.4,0.3-0.7,0.3c-0.3,0-0.5-0.1-0.7-0.3c-0.2-0.2-0.3-0.4-0.3-0.7c0-0.2,0.1-0.4,0.2-0.6
				c0,0,0,0,0.1-0.1C211.7,276.8,212,276.7,212.2,276.7z M194.8,257c2.1,1.2,7.3,4.7,12.8,11.7C202.1,267.3,197.1,261.9,194.8,257z
				 M202.9,260.1c2.3,2.1,4.1,5,4.9,7.6c-5.1-6.3-10-9.7-12.2-11.1C198,256.9,200.7,258.2,202.9,260.1z M175.9,285.9
				c0.2,0.2,0.3,0.4,0.3,0.7c0,0.3-0.1,0.5-0.3,0.7c-0.4,0.4-1,0.4-1.4,0c-0.4-0.4-0.4-1-0.1-1.4c0,0,0,0,0.1-0.1
				C174.9,285.5,175.5,285.5,175.9,285.9z M180.1,287.3c0.1,0.8,0.3,1.7,1,2.7c0.1,0.2,0.3,0.2,0.5,0.1c0,0,0.1,0,0.1-0.1
				c0.1-0.1,0.1-0.3,0-0.4c-0.5-0.8-0.7-1.5-0.8-2c0.5,0.9,1.5,1.8,2.9,2.9c0.2,0.1,0.4,0.1,0.5-0.1c0,0,0,0,0,0
				c0.1-0.2,0.1-0.4-0.1-0.5c-1.9-1.4-2.7-2.4-3-3.3c1,0.8,2.8,1.9,4.8,2.4c0.8,0.2,1.6,0.6,1.9,1.1c0.1,0.3,0.1,0.5-0.1,0.8
				c-0.3,0.5-1.1,0.4-1.6,0.1c-0.2-0.1-0.4,0-0.5,0.2c-0.1,0.2,0,0.4,0.2,0.5c0.2,0.1,0.4,0.3,0.4,0.6c0,0.3-0.1,0.7-0.4,0.9
				c-0.3,0.2-0.6,0.3-1,0.2c-0.8-0.1-1.5-1-1.8-1.3c-0.1-0.2-0.3-0.2-0.5-0.1c-0.2,0.1-0.2,0.3-0.2,0.5c0.2,0.4,0,1.1-0.3,1.4
				c-0.2,0.3-0.5,0.3-0.8,0.3c-0.7-0.2-1.2-1.2-1.4-2.1C179.8,291.2,179.6,289.1,180.1,287.3z M170,260.5c1.9,1.7,3.2,4.1,4.4,6.3
				c0.3,0.5,0.5,1,0.8,1.5c1.2,2.1,2.5,4.2,4.7,5.8c0.2,0.1,0.4,0.3,0.6,0.4c-5.2-1.7-9.2-7-9.2-7c-0.1-0.2-0.3-0.2-0.5-0.1
				c-0.2,0.1-0.2,0.3-0.1,0.5c0.2,0.3,4.4,5.8,10,7.5c-7.3,0.5-11.9-2.4-12-2.4c-0.2-0.1-0.4-0.1-0.5,0.1c-0.1,0.2-0.1,0.4,0.1,0.5
				c0.2,0.1,3.6,2.2,9.2,2.6c-5.1,0.8-12.4,1.5-16.6-0.3c-1.7-0.7-3.2-1.6-3.2-3.7c0-0.9,0.7-1.7,1.3-2.1c0.8-0.5,1.7-0.8,2.6-1
				c0.1,0,0.2-0.1,0.3-0.3c0-0.1,0-0.3-0.1-0.4c-1.2-1.1-1.4-3.1-0.4-4.4c1-1.2,3-1.6,4.3-0.8c0.1,0.1,0.3,0.1,0.4,0
				c0.1-0.1,0.2-0.2,0.2-0.4c-0.1-0.7-0.2-1.3-0.1-1.8c0.1-0.6,0.4-1.1,0.8-1.4c0.4-0.2,0.9-0.2,1.5-0.1
				C169.2,259.8,169.7,260.2,170,260.5z M180.4,271.3c0.1,0.6,0.3,1.2,0.5,1.7c-3.5-3.8-2.9-8.5-2.8-8.8c0-0.2-0.1-0.4-0.3-0.4
				c-0.2,0-0.4,0.1-0.4,0.3c0,0.1-0.8,5.5,3.2,9.6c-0.1-0.1-0.2-0.1-0.3-0.2c-2.1-1.5-3.4-3.6-4.5-5.6c-0.3-0.5-0.5-1-0.8-1.5
				c-1.2-2.3-2.5-4.7-4.5-6.5c-0.1-0.1-0.3-0.3-0.5-0.4c-0.2-1.2,0.7-2.5,1.9-2.8c1.2-0.3,2.5,0.5,2.9,1.6c0.1,0.2,0.2,0.3,0.4,0.2
				c0.2,0,0.3-0.2,0.3-0.4c0-0.9,0.8-1.7,1.7-1.8c0.9-0.1,1.9,0.4,2.5,1.2c0.5,0.7,0.9,1.7,1,2.9c0.1,1.6-0.1,3.2-0.3,4.7l-0.1,0.5
				C180.2,267.6,180,269.5,180.4,271.3z M194.1,287.5c0.8-0.8,1.5-1.5,2.1-2.3c3.9-4.8,5.6-10.1,6.1-12.1c0.7,1.2,1.6,4.1-1.2,8.2
				C198.1,285.9,195.5,287.1,194.1,287.5z M201.7,272.9c-0.6,2.3-2.7,9-8.2,14.2C193.9,282,197.5,275.7,201.7,272.9z M158.1,285.4
				c-0.6-0.8-0.9-1.6-0.8-2.4c0.1-1.1,1.1-2.1,2.2-2.3c0.1,0,0.1,0,0.2,0c0.2,0,0.3-0.2,0.3-0.4c0-0.2-0.2-0.3-0.4-0.3
				c-0.1,0-0.1,0-0.2,0c-0.5,0-1.1-0.1-1.5-0.5c-0.5-0.4-0.8-1-0.8-1.5c0-0.6,0.3-1.1,0.8-1.5c0.6-0.5,1.4-0.5,2.3-0.2
				c0.2,0.1,0.4,0.2,0.6,0.3c4,1.8,10.5,1.3,15.6,0.6c-4.3,2-7.1,4.8-7.2,5c-0.1,0.1-0.1,0.4,0,0.5c0.1,0.1,0.4,0.1,0.5,0
				c0,0,4.2-4.4,10.5-6.1c0.2,0,0.3-0.1,0.5-0.1c-1.7,0.9-3.2,2-4.5,3c-1.1,0.9-2.2,1.8-3.2,2.8c-0.7,0.7-1.5,1.4-2.3,2.1
				c-2.2,1.9-4.2,2.9-6.2,3.3C161.9,287.9,159.4,287.1,158.1,285.4z"/>
		</g>
	</g>
	<line class="st1" x1="260.1" y1="-1.4" x2="260.1" y2="314.9"/>
	<path class="st0" d="M260.1,86.4c-1.2-1.5-2.5-2.7-3.9-3.7c-4.5-3.1-12.7-6.1-24.4-9.1c-17.8-4.5-26.7-12-26.7-22.5
		c0-6.7,1.6-12.1,4.9-16.4c3.8-4.9,9.4-7.4,16.8-7.4c9.7,0,17.5,3.7,23.6,11c4.4,5.4,7.4,11.8,8.8,19.3h0.6V22.6h-0.6
		c-1.3,1.5-2.6,2.6-3.7,3.2c-1.1,0.6-2.3,0.8-3.6,0.8c-4-0.9-8-1.9-11.9-2.8c-4.3-0.8-8.4-1.2-12.4-1.2c-12.4,0-22.5,3.3-30.4,10
		c-8.6,7.3-13,17.3-13,30.1c0,15.1,5.5,25.6,16.4,31.5c10.2,3.4,20.4,6.8,30.6,10.2c10.9,4.1,16.4,11.5,16.4,22.2
		c0,8.3-2.7,14.5-8,18.4c-4,3-9.1,4.5-15.1,4.5c-9.6,0-17.4-3.1-23.6-9.3c-5.8-5.8-10.1-14.5-13-26.2l-0.6,0.2v40h0.6
		c2.2-1.9,3.9-3.1,5.2-3.7c1.3-0.6,2.4-0.9,3.2-0.9c1.1,0,4.6,0.8,10.5,2.3c5.9,1.5,11.4,2.3,16.7,2.3c12.8,0,23.2-3.9,31.3-11.7
		c1.9-1.9,3.6-3.9,5.1-6V86.4z"/>
	<path class="st0" d="M314.7,238.4v0.6c2.1,0.8,3.8,2.4,5.3,4.9c1.4,2.4,2.2,4.8,2.2,7.2v35.4c0,1.9-1.2,3.6-3.6,5.1
		c-2.4,1.5-4.9,2.3-7.7,2.3c-8.2,0-14.5-2.8-18.8-8.3c-3.7-4.7-6.2-11.8-7.6-21.3c-0.9-6.6-1.4-16.2-1.4-28.9
		c0-14.4,0.4-25.9,1.3-34.5c0.9-8.6,2.9-15.5,6.1-20.6c3.6-5.8,8.9-8.6,15.7-8.6c9.8,0,18.4,5.4,25.8,16.1c5,7.2,8.6,15.3,10.8,24.4
		h0.6v-45.1h-0.6c-3.3,2.5-6.9,3.7-11,3.7c-5.8-0.8-11.4-1.6-17-2.5c-5.6-0.8-9.5-1.2-11.9-1.2c-15.6,0-28.1,7.1-37.4,21.3
		c-2.5,3.9-4.6,8-6.4,12.3v68.8c1.2,2.9,2.6,5.6,4.2,8.1c8.7,14,22.2,21,40.5,21c6.8,0,13.1-0.8,19-2.5c5.9-1.7,11.9-3.6,18.1-5.8
		c0.7,0,1.6,0.2,2.5,0.5c1,0.4,1.8,0.9,2.5,1.6h2v-41.2c0-2.3,0.7-4.7,2.2-7.2c1.5-2.5,3.2-4.1,5.2-4.9v-0.6H314.7z"/>
</g>
<path class="st0" d="M465.8,429.6c-2.1-2.1-5.5-2.1-7.5,0c-0.9,0.9-1.4,2.1-1.5,3.4c-41.3,0-116.8,0-138.1,0c-6,0-11.1-0.2-16.1-0.8
	c0.2-0.7,0.4-1.4,0.5-2c0.8-5.1-0.6-9.8-4.1-13.5c-4.4-4.5-11.5-7-18.3-6.2c-5.6,0.6-10.2,3.4-13.1,7.8c-0.3-0.1-0.5-0.3-0.8-0.4
	c-0.5-0.2-0.9-0.5-1.4-0.7c-14.1-7-25.2-8.6-34-4.9c-6.4,2.7-11.3,7.3-13.4,12.4c-5.7-0.8-11.5-0.9-16.5-0.9l-137.6,0
	c-0.2-1.1-0.6-2.2-1.5-3.1c-2.1-2.1-5.5-2.1-7.5,0c-2.1,2.1-2.1,5.5,0,7.5c2.1,2.1,5.5,2.1,7.5,0c0.9-0.9,1.4-2,1.5-3.2l137.6,0
	c4.9,0,10.6,0.1,16.1,0.8c-0.2,0.6-0.4,1.4-0.5,2.1c-0.8,5.1,0.6,9.8,4.1,13.5c0.1,0.1,0.2,0.2,0.3,0.3c4.4,4.4,11.4,6.7,18,5.9
	c5.5-0.7,10.2-3.4,13.1-7.8c0.3,0.1,0.6,0.3,0.9,0.4c0.4,0.2,0.9,0.4,1.3,0.7c14.1,7,25.2,8.6,34.1,4.9c6.4-2.7,11.3-7.3,13.3-12.4
	c5.2,0.7,10.4,0.9,16.5,0.9c21.3,0,96.8,0,138.1,0c0.2,1.1,0.7,2.1,1.5,2.9c2.1,2.1,5.5,2.1,7.5,0
	C467.9,435.1,467.9,431.7,465.8,429.6z M280.8,411.7c6.4-0.7,13.1,1.6,17.2,5.8c2.3,2.4,4.8,6.4,3.8,12.4c-0.1,0.7-0.3,1.3-0.5,2
	c-3.2-0.5-6.2-1.2-9.3-2.1c-6.7-2.1-13.1-5.5-19.2-8.9c-1.3-0.7-2.7-1.4-4-2.1C271.4,414.8,275.7,412.3,280.8,411.7z M239.3,446.3
	c-6.4,0.7-13.1-1.5-17.1-5.8c-2.3-2.4-4.7-6.4-3.8-12.4c0.1-0.7,0.3-1.5,0.5-2.1c3.2,0.5,6.3,1.2,9.3,2.1c6.7,2.1,12.9,5.5,19,8.7
	c1.4,0.8,2.9,1.5,4.3,2.3C248.6,443.2,244.5,445.7,239.3,446.3z M288.4,444.6c-8.5,3.5-19.3,2-33-4.8c-0.4-0.2-0.9-0.4-1.3-0.7
	c-0.5-0.2-0.9-0.5-1.4-0.7c-1.6-0.9-3.3-1.7-4.9-2.6c-6.1-3.3-12.4-6.7-19.2-8.8c-3-1-6.1-1.7-9.2-2.1c2-4.7,6.6-8.9,12.5-11.4
	c8.5-3.6,19.3-2,32.9,4.9c0.5,0.2,0.9,0.5,1.4,0.7c0.4,0.2,0.9,0.4,1.3,0.7c1.6,0.8,3.1,1.7,4.7,2.5c6.2,3.3,12.6,6.8,19.5,8.9
	c3.1,1,6.1,1.6,9.2,2.1C298.9,437.9,294.3,442.1,288.4,444.6z"/>
</svg>
