<?xml version="1.0" encoding="utf-8"?>
<!-- Generator: Adobe Illustrator 22.0.1, SVG Export Plug-In . SVG Version: 6.00 Build 0)  -->
<svg version="1.1" id="Capa_1" xmlns="http://www.w3.org/2000/svg" xmlns:xlink="http://www.w3.org/1999/xlink" x="0px" y="0px"
	 viewBox="0 0 603.5 197.1" style="enable-background:new 0 0 603.5 197.1;" xml:space="preserve">
<style type="text/css">
	.st0{fill:url(#SVGID_1_);}
	.st1{fill:url(#SVGID_2_);}
	.st2{fill:url(#SVGID_3_);}
	.st3{fill:url(#SVGID_4_);}
	.st4{fill:url(#SVGID_5_);}
	.st5{fill:none;stroke:url(#SVGID_6_);stroke-width:2;stroke-miterlimit:10;}
	.st6{fill:url(#SVGID_7_);}
	.st7{fill:url(#SVGID_8_);}
	.st8{fill:url(#SVGID_9_);}
	.st9{fill:url(#SVGID_10_);}
	.st10{fill:url(#SVGID_11_);}
	.st11{fill:url(#SVGID_12_);}
	.st12{fill:url(#SVGID_13_);}
	.st13{fill:url(#SVGID_14_);}
	.st14{fill:url(#SVGID_15_);}
	.st15{fill:url(#SVGID_16_);}
	.st16{fill:url(#SVGID_17_);}
	.st17{fill:url(#SVGID_18_);}
	.st18{fill:url(#SVGID_19_);}
	.st19{fill:url(#SVGID_20_);}
	.st20{fill:url(#SVGID_21_);}
	.st21{fill:url(#SVGID_22_);}
	.st22{fill:url(#SVGID_23_);}
	.st23{fill:url(#SVGID_24_);}
	.st24{fill:url(#SVGID_25_);}
	.st25{fill:url(#SVGID_26_);}
	.st26{fill:url(#SVGID_27_);}
	.st27{fill:url(#SVGID_28_);}
	.st28{fill:url(#SVGID_29_);}
	.st29{fill:url(#SVGID_30_);}
	.st30{fill:url(#SVGID_31_);}
	.st31{fill:url(#SVGID_32_);}
	.st32{fill:url(#SVGID_33_);}
	.st33{fill:url(#SVGID_34_);}
	.st34{fill:url(#SVGID_35_);}
	.st35{fill:url(#SVGID_36_);}
	.st36{fill:url(#SVGID_37_);}
	.st37{fill:url(#SVGID_38_);}
	.st38{fill:url(#SVGID_39_);}
	.st39{fill:url(#SVGID_40_);}
</style>
<linearGradient id="SVGID_1_" gradientUnits="userSpaceOnUse" x1="350.7968" y1="181.5619" x2="545.6057" y2="181.5619" gradientTransform="matrix(0 -1 1 0 53.2736 547.2113)">
	<stop  offset="0" style="stop-color:#563218"/>
	<stop  offset="0.2781" style="stop-color:#947635"/>
	<stop  offset="0.7869" style="stop-color:#997F4B"/>
	<stop  offset="1" style="stop-color:#684623"/>
</linearGradient>
<path class="st0" d="M235.1,2.3c-1,1-1,2.6,0,3.6c0.4,0.4,1,0.7,1.6,0.7c0,19.4,0,54.9,0,64.9c0,2.8-0.1,5.2-0.4,7.6
	c-0.3-0.1-0.7-0.2-1-0.2c-2.4-0.4-4.7,0.3-6.4,1.9c-2.2,2.1-3.3,5.4-3,8.6c0.3,2.6,1.6,4.8,3.7,6.2c-0.1,0.1-0.1,0.3-0.2,0.4
	c-0.1,0.2-0.2,0.4-0.3,0.6c-3.3,6.6-4.1,11.8-2.3,16c1.3,3,3.5,5.3,5.9,6.3c-0.4,2.7-0.4,5.4-0.4,7.8l0,64.7c-0.5,0.1-1,0.3-1.5,0.7
	c-1,1-1,2.6,0,3.5c1,1,2.6,1,3.6,0c1-1,1-2.6,0-3.5c-0.4-0.4-1-0.6-1.5-0.7v-64.7c0-2.3,0-5,0.4-7.6c0.3,0.1,0.6,0.2,1,0.2
	c2.4,0.4,4.7-0.3,6.4-2c0,0,0.1-0.1,0.1-0.1c2.1-2,3.2-5.3,2.8-8.4c-0.3-2.6-1.6-4.8-3.7-6.2c0.1-0.1,0.1-0.3,0.2-0.4
	c0.1-0.2,0.2-0.4,0.3-0.6c3.3-6.6,4.1-11.9,2.3-16c-1.3-3-3.5-5.3-5.9-6.3c0.3-2.4,0.4-4.9,0.4-7.8c0-10,0-45.5,0-65
	c0.5-0.1,1-0.3,1.4-0.7c1-1,1-2.6,0-3.5C237.7,1.4,236.1,1.4,235.1,2.3 M226.6,89.4c-0.3-3,0.8-6.1,2.8-8.1c1.1-1.1,3.1-2.2,5.9-1.8
	c0.3,0,0.6,0.1,1,0.2c-0.2,1.5-0.5,2.9-1,4.4c-1,3.2-2.6,6.2-4.2,9c-0.3,0.6-0.7,1.3-1,1.9C228.1,93.8,226.9,91.8,226.6,89.4
	 M243.1,108.9c0.3,3-0.7,6.1-2.8,8.1c-1.1,1.1-3.1,2.2-5.9,1.8c-0.4,0-0.7-0.1-1-0.2c0.2-1.5,0.6-3,1-4.4c1-3.1,2.6-6.1,4.2-8.9
	c0.4-0.7,0.7-1.3,1.1-2C241.6,104.5,242.8,106.5,243.1,108.9 M242.2,85.8c1.7,4,0.9,9.1-2.3,15.5c-0.1,0.2-0.2,0.4-0.3,0.6
	c-0.1,0.2-0.2,0.4-0.3,0.6c-0.4,0.8-0.8,1.5-1.3,2.3c-1.6,2.9-3.2,5.8-4.2,9c-0.5,1.4-0.8,2.8-1,4.3c-2.2-0.9-4.2-3.1-5.4-5.9
	c-1.7-4-0.9-9.1,2.3-15.5c0.1-0.2,0.2-0.4,0.3-0.6c0.1-0.2,0.2-0.4,0.3-0.6c0.4-0.7,0.8-1.5,1.2-2.2c1.6-2.9,3.2-5.9,4.3-9.2
	c0.5-1.5,0.8-2.9,1-4.3C239.1,80.9,241.1,83,242.2,85.8"/>
<g>
	<linearGradient id="SVGID_2_" gradientUnits="userSpaceOnUse" x1="107.5079" y1="52.8215" x2="214.5672" y2="52.8215">
		<stop  offset="0" style="stop-color:#563218"/>
		<stop  offset="0.2781" style="stop-color:#947635"/>
		<stop  offset="0.7869" style="stop-color:#997F4B"/>
		<stop  offset="1" style="stop-color:#684623"/>
	</linearGradient>
	<path class="st1" d="M214.6,49.8c0,0,0-0.1,0-0.1c0,0,0,0,0,0c0,0,0-0.1-0.1-0.1c0,0,0,0,0,0c-8.1-6.9-13.7-2-14.5-1.2
		c-1.2,0.1-2.3,0.3-3.2,0.6c0.8-0.6,1.5-1.2,2.2-1.8c0,0,0.1,0,0.1,0c0,0,0,0,0.1,0c14.6-4.4,11.5-17.6,11.4-17.7c0,0,0,0,0,0
		c0,0,0-0.1,0-0.1c0,0,0,0,0,0c0,0,0,0-0.1-0.1c0,0,0,0,0,0c0,0,0,0,0,0c0,0,0,0,0,0c0,0-0.1,0-0.1,0c0,0,0,0,0,0
		c-0.1,0-0.1,0-0.2,0c0,0,0,0,0,0c-4.4,2.5-11.7,8.8-11.4,17.3c-1.4,1.2-2.9,2.4-4.5,3.5c0,0,0,0,0,0c0,0,0,0,0,0
		c-2.9,2.2-6.2,4-10,5.4c0.8-1.2,1.5-2.7,2.1-4.3c2-0.8,3.2-2.9,3.4-4.7c0-0.2-0.1-0.4-0.3-0.4c-0.2,0-0.4,0.1-0.4,0.3
		c-0.2,1.4-1,3-2.4,3.8c0.6-2.4,0.8-5,0.3-7.3c0.4-0.2,0.7-0.6,0.8-1.1c0.2-0.9-0.3-1.8-1.3-2.1c-0.9-0.2-1.8,0.3-2.1,1.3
		c-0.2,0.9,0.3,1.8,1.3,2.1c0.2,0,0.4,0.1,0.5,0c1,4.4-0.8,9.8-3.2,12.7c-4,1.4-8.6,2.3-14,2.9c-0.3,0-0.6,0.1-1,0.1
		c4.9-5.1,6.3-14.2,5.1-20.6c0,0,0,0,0,0c0-0.1,0-0.1-0.1-0.1c0,0,0,0,0,0c0,0,0,0-0.1-0.1c0,0,0,0,0,0c0,0,0,0,0,0c0,0,0,0,0,0
		c0,0-0.1,0-0.1,0c0,0,0,0-0.1,0c0,0-0.1,0-0.1,0c0,0,0,0,0,0c0,0,0,0,0,0c0,0,0,0,0,0c-3,1.8-5.4,5.2-6.4,9.2
		c-1.1,4-0.9,8.6,0.4,11.8c-3.5,0.3-7,0.5-10.5,0.6h0h0c-1,0-1.9,0.1-2.9,0.1c-2.5,0.1-5.1,0.2-7.6,0.3c1.3-0.8,2.6-2,3.7-3.5
		c1.7-0.6,3.2-1.4,4.5-2.5c0,0,0,0,0,0c0,0,4.6-2.3,7.6-0.4c0.1,0,0.2,0.1,0.2,0.1c0.1,0,0.2-0.1,0.3-0.2c0.1-0.2,0.1-0.4-0.1-0.5
		c-2.1-1.3-4.8-0.9-6.5-0.3c1.6-1.8,2.8-4,3.4-6.7c0.1,0,0.2,0,0.3,0c1-0.1,1.9-0.8,2.2-1.9c0.3-1.3-0.5-2.7-1.8-3
		c-1.3-0.3-2.7,0.5-3,1.8c-0.3,1.3,0.4,2.5,1.6,2.9c-1,4.7-3.6,7.8-7.9,9.6c1.1-1.7,2-3.6,2.5-5.5c0.1,0,0.1,0,0.2,0
		c0.8-0.1,1.4-0.6,1.6-1.4c0.2-1-0.4-2-1.4-2.2c-0.5-0.1-1,0-1.4,0.2c-0.4,0.3-0.7,0.7-0.8,1.1c-0.2,0.9,0.3,1.8,1.1,2.1
		c-0.6,2.2-1.6,4.3-3,6.2c-1.4,1.9-3.1,3.4-4.9,4.1c-2.6,0.2-5.1,0.4-7.7,0.7c0,0,0,0-0.1,0h0c0,0,0,0,0,0c-1.2,0.1-2.3,0.3-3.5,0.5
		c-1.1,0.2-2.1,0.4-3.1,0.6c0.9-0.8,1.7-1.8,2.4-3c1.8-3.4,2.1-7.7,0.7-11.2c0,0,0,0,0,0c0,0,0,0,0-0.1c0,0,0,0,0,0c0,0,0,0,0,0
		c0,0,0,0,0,0c0,0,0,0,0,0c0,0,0,0,0,0c0,0-0.1,0-0.1,0c0,0,0,0-0.1,0c0,0-0.1,0-0.1,0c0,0,0,0,0,0c0,0,0,0,0,0c0,0,0,0,0,0
		c-3.7,1.9-6.4,5.5-7.3,9.6c-0.4,1.6-0.6,3.9,0.4,6.1c-6.9,2.2-12.9,5.6-17.2,9.9c-0.1,0.1-0.1,0.4,0,0.5c0.1,0.1,0.2,0.1,0.3,0.1
		c0.1,0,0.2,0,0.2-0.1c5.7-5.7,14.3-9.8,24.4-11.5c1-0.2,2.1-0.3,3.1-0.5c0.3,6.5,3.9,10.8,11.3,13.5h0c0.1,0,0.1,0,0.2,0
		c0.1,0,0.1,0,0.2-0.1c0,0,0,0,0,0c0,0,0,0,0,0c0,0,0,0,0,0c0,0,0,0,0,0c0,0,0,0,0-0.1c0,0,0-0.1,0-0.1c0,0,0,0,0,0
		c0.1-4.4-1-9.9-9.9-13.4c5.2-0.6,10.4-0.7,15.5-0.9c0.9,0,1.9-0.1,2.9-0.1c2.1,0.1,4.1,0.8,6,2c2.5,2.1,1.7,7.5-0.1,10.1
		c0,0-0.1,0-0.1,0c-0.6-0.1-1.1,0-1.6,0.3c-0.5,0.3-0.8,0.8-1,1.3c-0.3,1.1,0.4,2.3,1.6,2.6c0.2,0.1,0.5,0.1,0.7,0.1
		c0.9-0.1,1.7-0.7,1.9-1.6c0.1-0.6,0-1.1-0.3-1.6c-0.1-0.2-0.3-0.4-0.5-0.6c1.5-2.3,2.3-6.3,1.2-9c1.4,1.2,2.6,2.7,3.6,4.4
		c-0.3,0.2-0.5,0.6-0.6,1c-0.2,1,0.4,2,1.4,2.2c0.2,0,0.4,0.1,0.6,0c0.3,0,0.5-0.1,0.8-0.3c0.4-0.3,0.7-0.7,0.8-1.1
		c0.1-0.5,0-1-0.2-1.4c-0.3-0.4-0.7-0.7-1.1-0.8c-0.3-0.1-0.6-0.1-0.9,0c-1.4-2.5-3.4-4.6-5.7-6.1c-1-0.7-2.1-1.2-3.2-1.6
		c2.6-0.1,5.1-0.3,7.7-0.5c0,0,0,0,0,0l0,0v0c0,0,0,0,0,0c0.7-0.1,1.3-0.1,2-0.2c1.8-0.2,3.5-0.5,5.2-0.8c-0.1,1.4,0.4,5.3,6.6,8.3
		c4.2,2,7.1,2.3,9.1,2.2c2.2-0.2,3.1-1.1,3.2-1.1c0,0,0,0,0,0l0,0c0.1-0.1,0.1-0.1,0.1-0.2c0,0,0,0,0,0c0,0,0,0,0,0c0,0,0-0.1,0-0.1
		c0,0,0,0,0,0c0,0,0-0.1,0-0.1c0,0,0,0,0,0c0,0,0,0,0,0c-3-4.7-9.7-8.6-15.6-9.4c2-0.5,3.9-1,5.6-1.6c0,0,0.1,0,0.1,0
		c1.2-0.4,2.3-0.8,3.4-1.3c0,0,0,0,0,0c2.7-1.3,5.6-1.1,7.6-0.8c1.4,0.2,2.8,0.7,4.1,1.1c0.3,0.1,0.6,0.2,0.9,0.3c0,0,0,0,0,0
		c1.1,0.3,2.6,1.2,3.4,2.3c0,0,0,0,0,0c0.7,1.1,1,2.2,0.3,4.5c-0.2,0-0.4,0-0.6,0c-0.5,0.1-0.9,0.4-1.2,0.8
		c-0.3,0.4-0.4,0.9-0.3,1.4c0.2,0.9,1,1.5,1.9,1.4c0.1,0,0.1,0,0.2,0c0.5-0.1,0.9-0.4,1.2-0.8c0.3-0.4,0.4-0.9,0.3-1.4
		c-0.1-0.5-0.4-0.9-0.9-1.2c0.3-0.9,0.4-1.7,0.4-2.4c0.9,0.9,2.4,2.1,4.5,1.9c0.2,0,0.4,0,0.6-0.1c0.2,0,0.3-0.2,0.3-0.4
		c0-0.2-0.2-0.3-0.4-0.3c-3.1,0.6-4.9-2.2-5.1-2.5c-0.1-0.5-0.3-0.9-0.6-1.3c0,0,0,0,0,0c-0.3-0.4-0.7-0.8-1.1-1.2
		c1.5,0.3,2.8,0.4,4,0.3c0.4,0,0.7-0.1,1-0.2c0,0,0,0.1,0.1,0.1c0.3,0.4,0.7,0.7,1.2,0.9c0.2,0,0.4,0.1,0.6,0c0.3,0,0.6-0.1,0.8-0.3
		c0.4-0.3,0.7-0.7,0.9-1.2c0.1-0.5,0-1-0.2-1.5c-0.3-0.4-0.7-0.7-1.2-0.9c-1-0.3-2.1,0.4-2.3,1.4c-0.1,0.2-0.1,0.4,0,0.6
		c-1.5,0.3-3.3,0.2-5.4-0.3c-1-0.2-2.1-0.5-3.1-0.8c-1.4-0.4-2.8-0.8-4.2-1.1c-1.2-0.2-2.7-0.4-4.3-0.2c1.6-0.9,3.1-1.9,4.5-2.9
		c1.1-0.6,3.2-1.1,5.6-1.4c2.2,2.5,5.3,2.9,8.1,2.7c3.2-0.3,6-1.5,6.2-1.6c0,0,0,0,0,0c0,0,0.1-0.1,0.1-0.1c0,0,0,0,0,0c0,0,0,0,0,0
		C214.5,50,214.6,49.9,214.6,49.8C214.6,49.9,214.6,49.9,214.6,49.8C214.6,49.8,214.6,49.8,214.6,49.8 M185,41.8
		c-0.1-0.2-0.2-0.5-0.1-0.7c0.1-0.3,0.2-0.5,0.4-0.6c0.1-0.1,0.3-0.1,0.4-0.1c0.1,0,0.2,0,0.3,0c0.3,0.1,0.5,0.2,0.6,0.4
		c0.1,0.2,0.2,0.5,0.1,0.7c-0.1,0.3-0.2,0.5-0.4,0.6c-0.2,0.1-0.5,0.2-0.7,0.1C185.4,42.2,185.2,42,185,41.8 M156.9,44.3
		c-0.2-0.4-0.3-0.9-0.2-1.3c0.1-0.4,0.4-0.8,0.8-1.1c0.2-0.1,0.5-0.2,0.7-0.2c0.2,0,0.4,0,0.6,0c0.4,0.1,0.8,0.4,1.1,0.8
		c0.2,0.4,0.3,0.9,0.2,1.3c-0.1,0.4-0.4,0.8-0.8,1.1c-0.4,0.2-0.9,0.3-1.3,0.2C157.6,45,157.2,44.7,156.9,44.3 M151.2,47.8
		c0.1-0.3,0.2-0.5,0.5-0.7c0.1-0.1,0.3-0.1,0.5-0.2c0.1,0,0.2,0,0.4,0c0.3,0.1,0.5,0.2,0.7,0.5c0.2,0.3,0.2,0.5,0.1,0.8
		c-0.1,0.3-0.2,0.5-0.5,0.7c-0.3,0.2-0.5,0.2-0.8,0.1C151.4,48.9,151.1,48.4,151.2,47.8 M131,58.5c-0.7,1.3-1.5,2.3-2.5,3
		c-0.9,0.7-1.8,1-2.8,1.2c1.7-6.7,5-12.3,6.1-14.1C132.9,51.8,132.6,55.5,131,58.5 M125.1,57.2c0.8-3.3,2.8-6.3,5.6-8.3
		c-1.4,2.3-4.1,7.2-5.6,13C124.7,60.2,124.8,58.4,125.1,57.2 M136.4,62.5c1.5,2.2,4.9,7,9,11.2C139.8,71.2,137,67.6,136.4,62.5
		 M146.7,73.8c-4.6-4.4-8.4-9.9-9.8-12C141.8,63.6,146.5,66.6,146.7,73.8 M162.6,74.8c-0.2,0.7-0.9,1.2-1.7,1
		c-0.7-0.2-1.2-0.9-1-1.7c0.1-0.4,0.3-0.7,0.6-0.9c0.2-0.1,0.4-0.2,0.6-0.2c0.1,0,0.3,0,0.5,0c0.4,0.1,0.7,0.3,0.9,0.6
		C162.6,74,162.7,74.4,162.6,74.8 M168.7,68.5c0.3,0.1,0.5,0.2,0.7,0.5c0.2,0.2,0.2,0.5,0.1,0.8c-0.1,0.3-0.2,0.5-0.5,0.7
		c-0.3,0.2-0.5,0.2-0.8,0.1c-0.6-0.1-0.9-0.7-0.8-1.3c0.1-0.3,0.3-0.6,0.6-0.7c0,0,0,0,0,0c0,0,0,0,0,0
		C168.2,68.5,168.5,68.4,168.7,68.5 M167.4,58.3c1-10.1,3.9-16.6,5.1-18.9C173.3,45.5,171.9,53.7,167.4,58.3 M166.7,47.3
		c0.9-3.2,2.7-6.1,4.9-7.9c-1.3,2.6-3.9,8.9-4.9,18.2C165.8,54.6,165.8,50.7,166.7,47.3 M203.6,64.9c-0.2,0.2-0.4,0.4-0.7,0.5
		c-0.6,0.1-1.1-0.3-1.3-0.8c-0.1-0.3,0-0.6,0.2-0.8c0.2-0.2,0.4-0.4,0.7-0.5c0,0,0.1,0,0.1,0c0.5,0,1,0.3,1.1,0.9
		C203.8,64.4,203.7,64.7,203.6,64.9 M207.8,55.3c0.1-0.5,0.6-0.9,1-0.9c0.1,0,0.3,0,0.4,0c0.3,0.1,0.6,0.3,0.7,0.5
		c0.2,0.3,0.2,0.6,0.1,0.9c-0.1,0.3-0.3,0.6-0.5,0.7c-0.3,0.2-0.6,0.2-0.9,0.1c-0.3-0.1-0.6-0.3-0.7-0.5
		C207.7,55.9,207.7,55.6,207.8,55.3 M211.9,48.5c-2.8-0.6-6.9-0.7-10.6-0.4C202.9,47,206.6,45.2,211.9,48.5 M200.2,45.9
		c5.8-5.7,8.8-12.3,9.9-15C210.5,34.1,210.3,42.2,200.2,45.9 M209.5,30.3c-0.9,2.5-4,9.5-10.1,15.4C199.5,41.7,201.8,35,209.5,30.3
		 M181,66.2c-5.4-2.5-6.1-5.8-6.1-7.2c1.9,1.8,8.2,7.1,16.8,8.8C190.4,68.5,187.1,69.1,181,66.2 M191.9,67.1
		c-8.4-1.6-14.5-6.8-16.5-8.6C181.1,58.7,188.5,62.5,191.9,67.1 M201,49c4.6-0.5,10-0.3,12.3,0.7C211.2,50.6,204.8,52.6,201,49"/>
	<linearGradient id="SVGID_3_" gradientUnits="userSpaceOnUse" x1="107.7593" y1="28.5485" x2="172.2111" y2="28.5485">
		<stop  offset="0" style="stop-color:#563218"/>
		<stop  offset="0.2781" style="stop-color:#947635"/>
		<stop  offset="0.7869" style="stop-color:#997F4B"/>
		<stop  offset="1" style="stop-color:#684623"/>
	</linearGradient>
	<path class="st2" d="M167.2,16.6c-1.3,0.2-2.6,0.9-4.1,2.1c-0.5,0.4-1,0.9-1.4,1.3c-0.6,0.6-1.3,1.2-2,1.7c-1.3,1-2.7,2-4.4,2.5
		c-0.9-0.1-1.9-0.1-2.9,0c0.8-0.4,1.4-0.9,1.9-1.4c0.6-0.5,1.1-1.2,1.6-1.8c0.4-0.4,0.8-0.9,1.2-1.3c0.8-0.8,1.6-1.4,2.4-1.7
		c0.1,0.1,0.1,0.2,0.2,0.3c0.4,0.4,1.1,0.4,1.5,0c0.2-0.2,0.3-0.5,0.3-0.8c0-0.3-0.1-0.6-0.3-0.8c-0.4-0.4-1.1-0.4-1.5,0
		c0,0,0,0-0.1,0.1c-0.2,0.2-0.2,0.4-0.2,0.7c0,0,0,0,0,0.1c-0.8,0.3-1.5,0.8-2.3,1.5c0.1-0.2,0.1-0.5,0.1-0.7c1-1.4,0.8-3.6,0.7-4.3
		c-0.1-0.7-0.5-1.4-1.2-1.6c-0.4-0.1-0.7,0-0.9,0.3c-0.2,0.2-0.3,0.4-0.3,0.6c-0.3-0.2-0.6-0.5-1-0.5c-0.4-0.1-0.8,0-1,0.2
		c-0.3,0.3-0.5,0.6-0.4,1c0,0,0,0.1,0,0.1c-0.3,0-0.6,0.1-0.8,0.3c0,0-0.1,0.1-0.1,0.1c-0.2,0.4-0.2,0.7-0.1,0.9
		c0.2,0.5,0.9,0.8,1.5,1c1.7,0.4,3,1.5,3.2,1.8c0,0,0,0,0,0c0,0.8-0.5,1.6-0.9,2.1c0,0,0,0,0,0c-0.1,0.1-0.2,0.3-0.3,0.4
		c-0.5,0.6-1,1.2-1.6,1.7c-0.8,0.8-2.1,1.7-3.8,1.9h0c-0.7,0.1-1.3,0.2-2,0.4c0,0,0,0,0,0c-1,0.2-2,0.6-3,0.9c2.5-2.2,4.4-6,4.4-9.1
		c0,0,0,0,0-0.1c0,0,0,0,0,0c0,0,0-0.1,0-0.1l0,0c0,0,0,0,0,0c0,0,0,0,0,0c0,0,0,0,0,0c0,0,0,0,0,0c-0.1,0-1.9-0.3-4.5,2.8
		c-0.3,0.4-0.6,0.8-1,1.3c-2,3-1,5.1-0.6,5.8c-0.9,0.4-1.7,0.8-2.7,1.2c-0.3,0.2-0.7,0.3-1,0.5c0,0,0,0,0,0c-1.3,0.6-2.5,1.3-3.7,2
		c0.4-0.5,0.7-1,1-1.6c0.6-1.3,0.9-3,0.8-4.5c0.2-0.1,0.3-0.1,0.4-0.3c0.2-0.2,0.3-0.5,0.3-0.7c0-0.3-0.1-0.5-0.3-0.7
		c-0.2-0.2-0.5-0.3-0.7-0.3c-0.3,0-0.5,0.1-0.7,0.3c0,0,0,0-0.1,0.1c-0.3,0.4-0.3,1,0.1,1.4c0.2,0.2,0.4,0.3,0.6,0.3
		c0,1-0.1,2.1-0.3,3c-0.4-1.6-1.9-3.2-3.3-3.8c0.2-0.4,0.1-0.9-0.3-1.3c-0.5-0.5-1.2-0.4-1.7,0c0,0,0,0-0.1,0.1
		c-0.4,0.5-0.4,1.2,0.1,1.6c0.5,0.5,1.2,0.4,1.7,0c0,0,0,0,0,0c1.6,0.7,3.6,2.9,3,4.7c-0.5,1.2-1.3,2.1-2.2,2.7
		c-0.5,0.3-0.9,0.5-1.4,0.8c-2.4,1.4-4.9,2.9-7.5,4.2c3.1-4.3,1.9-7.2,0.6-9.2c0,0,0,0,0,0c0,0,0,0-0.1,0c0,0,0,0,0,0c0,0,0,0,0,0
		c0,0,0,0,0,0c0,0,0,0,0,0c0,0,0,0-0.1,0c0,0,0,0,0,0c0,0-0.1,0-0.1,0.1c0,0,0,0,0,0c-2.6,3.5-3,6.6-1.3,9.7c-0.5,0.2-1,0.5-1.6,0.7
		c-5.2,2.2-10.5,2.9-14.8,1.9c-0.1,0-0.2,0-0.2,0.1c0,0,0,0.1,0,0.1c0,0.1,0,0.2,0.2,0.3c3.3,0.7,7.1,0.5,11-0.5
		c0.2,1.3,1,2.3,1.7,3c1.6,1.6,4,2.5,6.3,2.3c0,0,0,0,0,0c0,0,0,0,0.1,0c0,0,0,0,0,0c0,0,0,0,0,0c0,0,0,0,0,0c0,0,0,0,0,0
		c0,0,0,0,0,0c0,0,0,0,0,0c0,0,0,0,0,0c0,0,0,0,0,0c0,0,0,0,0,0c-0.4-2.1-1.8-4-3.7-5.1c-0.7-0.4-1.3-0.6-2-0.7
		c0.5-0.2,1.1-0.4,1.6-0.6c0.6-0.3,1.2-0.5,1.8-0.8c0,0,0,0,0,0c1.3-0.6,2.6-1.3,3.8-2c1-0.2,2.3,0,3.5,0.5c1.2,0.4,2.3,1.1,3.3,2
		c-0.1,0.2-0.2,0.4-0.2,0.6c0,0.3,0.1,0.5,0.3,0.7c0.2,0.2,0.5,0.3,0.7,0.3c0.3,0,0.5-0.1,0.7-0.3c0.2-0.2,0.3-0.5,0.3-0.7
		c0-0.3-0.1-0.5-0.3-0.7c-0.4-0.3-0.9-0.4-1.3-0.1c-0.8-0.7-1.7-1.3-2.7-1.8c2.5-0.4,4.6,0.3,6.5,2.1c-0.2,0.3-0.3,0.6-0.3,0.9
		c0,0.4,0.2,0.7,0.4,1c0.3,0.3,0.6,0.4,1,0.4c0.4,0,0.7-0.2,1-0.4c0.3-0.3,0.4-0.6,0.4-1c0-0.4-0.2-0.7-0.4-1
		c-0.5-0.5-1.2-0.5-1.7-0.2c-1.1-1.1-2.2-1.8-3.5-2.1c1-0.3,2.3-0.9,2.9-2.1c0.1-0.1,0-0.2-0.1-0.3c-0.1-0.1-0.2,0-0.3,0.1
		c-0.8,1.8-3.6,2.1-3.7,2.1c0,0,0,0,0,0c-0.9-0.1-1.9,0-2.9,0.2c-0.9-0.3-1.8-0.5-2.7-0.5c1.2-0.7,2.4-1.4,3.6-2.1
		c0.5-0.3,0.9-0.5,1.4-0.8h0c1.6-1,3.3-1.9,5-2.8c0.4,1.9,1.7,4.1,3.4,5.6c1.7,1.6,3.9,2.4,5.8,2.4h0c0,0,0,0,0,0c0,0,0,0,0,0
		c0,0,0,0,0.1,0c0,0,0,0,0,0c0,0,0,0,0.1,0c0,0,0,0,0,0c0,0,0,0,0,0c0,0,0,0,0,0c0,0,0,0,0-0.1c0,0,0,0,0,0c0,0,0-0.1,0-0.1
		c0,0,0,0,0,0c-1.3-3.4-4.7-7.2-8.5-8.1c0.1-0.1,0.3-0.1,0.4-0.2c2.7-1.3,5.1-2.2,7.4-2.8c2,0.6,4.5,2.6,5.3,5
		c-0.1,0-0.2,0.1-0.2,0.2c0,0,0,0-0.1,0.1c-0.3,0.4-0.3,1,0.1,1.3c0.2,0.2,0.4,0.3,0.7,0.3c0.3,0,0.5-0.1,0.7-0.3
		c0.4-0.4,0.4-1,0-1.4c-0.2-0.2-0.5-0.3-0.7-0.3c-0.4-1.2-1.3-2.4-2.3-3.3c0.9,0,1.7,0.5,2.2,1.1c0.1,0.1,0.2,0.1,0.3,0
		c0.1-0.1,0.1-0.2,0-0.3c-0.6-0.8-1.9-1.4-3-1.2c-0.7-0.6-1.5-1-2.2-1.4c2.2-0.5,4.2-0.6,6.2-0.5c0,0,0,0,0,0c0,0,0,0,0,0
		c0.8,0.5,1.3,1.4,1.5,2.5c0.2,1.1,0.1,2.2-0.1,3.2l0,0.3c-0.1,1-0.3,2-0.2,3.1c0.1,0.8,0.3,1.5,0.7,2c0.5,0.7,1.2,1,2,1
		c0.6-0.1,1.1-0.5,1.4-1c0.5,0.6,1.3,0.9,2.1,0.8c0.8-0.2,1.5-1,1.5-1.9c0.1,0,0.2,0.1,0.3,0.1c0.5,0.2,0.9,0.1,1.3-0.1
		c0.4-0.2,0.7-0.6,0.7-1.2c0-0.3,0-0.6,0-0.9c1,0.4,2.2,0.1,2.9-0.8c0.7-0.9,0.6-2.2-0.1-3c0.5-0.1,1-0.3,1.4-0.6
		c0.6-0.4,1-1.1,1-1.7c0-0.9-0.4-1.6-1-2c0.3,0,0.6-0.1,0.8-0.3c0.4-0.3,0.7-0.8,0.7-1.3c0-0.5-0.3-1-0.7-1.3
		c-0.1-0.1-0.3-0.2-0.5-0.3c0.5-0.3,0.9-0.9,1-1.5c0.1-0.6-0.1-1.3-0.6-1.8C170.6,16.9,168.9,16.4,167.2,16.6 M154.4,30.8
		c0.2,0.2,0.2,0.5,0,0.7c0,0,0,0,0,0c-0.1,0.1-0.2,0.2-0.4,0.2c-0.1,0-0.3,0-0.4-0.1c-0.2-0.2-0.2-0.5,0-0.7
		C153.8,30.6,154.1,30.6,154.4,30.8 M139.6,38.5c0-0.3,0.1-0.5,0.3-0.7c0.2-0.2,0.4-0.3,0.7-0.3c0.3,0,0.5,0.1,0.7,0.3
		c0.2,0.2,0.3,0.4,0.3,0.7c0,0.2-0.1,0.4-0.2,0.6c0,0,0,0-0.1,0.1c-0.2,0.2-0.4,0.3-0.7,0.3c-0.3,0-0.5-0.1-0.7-0.3
		C139.7,38.9,139.6,38.7,139.6,38.5 M135.7,38.1c0-0.2,0.1-0.3,0.2-0.4c0.2-0.2,0.6-0.2,0.8,0c0.1,0.1,0.2,0.3,0.2,0.4
		c0,0.1,0,0.3-0.1,0.4c0,0,0,0,0,0c-0.1,0.1-0.3,0.2-0.4,0.2c-0.2,0-0.3-0.1-0.4-0.2C135.7,38.4,135.7,38.3,135.7,38.1 M126.5,43.9
		c-1.1-0.5-4.3-2.1-7-4.7c0.5-0.2,1-0.3,1.6-0.3c0.7,0.1,1.4,0.3,2.1,0.7C124.8,40.5,126.1,42.2,126.5,43.9 M120.9,42
		c-0.5-0.5-1.1-1.2-1.4-2.1c2.4,2.2,5.1,3.6,6.4,4.3C124,44,122.2,43.3,120.9,42 M125.4,28.3c-0.7,3.1-0.8,6.3-0.9,7.8
		C123.3,33.5,123.6,31.1,125.4,28.3 M125,36.2c0-1.4,0.2-5.1,1-8.5C128,31.2,126.7,33.9,125,36.2 M133.1,23.6
		c-0.3,0.3-0.8,0.3-1.1,0c-0.3-0.3-0.3-0.8,0-1.1c0.3-0.3,0.8-0.3,1.1,0C133.4,22.8,133.4,23.3,133.1,23.6 M137.4,23.8
		c-0.2,0-0.3-0.1-0.4-0.2c-0.1-0.1-0.2-0.3-0.2-0.4c0-0.2,0.1-0.3,0.2-0.4c0.1-0.1,0.3-0.2,0.4-0.2c0.2,0,0.3,0.1,0.4,0.2
		c0.1,0.1,0.2,0.3,0.2,0.4c0,0.1,0,0.3-0.1,0.4c0,0,0,0,0,0C137.7,23.7,137.6,23.8,137.4,23.8 M148.3,36.1c-1.3-0.8-4.5-2.9-8-7.3
		C143.7,29.7,146.8,33,148.3,36.1 M143.3,34.1c-1.4-1.3-2.6-3.1-3.1-4.7c3.2,3.9,6.2,6.1,7.6,6.9C146.3,36.1,144.6,35.4,143.3,34.1
		 M160,18.1c-0.1-0.1-0.2-0.3-0.2-0.4c0-0.2,0.1-0.3,0.2-0.5c0.2-0.3,0.6-0.3,0.9,0c0.2,0.2,0.3,0.6,0.1,0.9c0,0,0,0,0,0
		C160.7,18.3,160.3,18.3,160,18.1 M157.4,17.2c0-0.5-0.2-1-0.6-1.7c-0.1-0.1-0.2-0.1-0.3-0.1c0,0,0,0-0.1,0c-0.1,0.1-0.1,0.2,0,0.3
		c0.3,0.5,0.4,0.9,0.5,1.3c-0.3-0.6-0.9-1.1-1.8-1.8c-0.1-0.1-0.2-0.1-0.3,0c0,0,0,0,0,0c-0.1,0.1,0,0.2,0,0.3
		c1.2,0.9,1.7,1.5,1.9,2.1c-0.6-0.5-1.7-1.2-3-1.5c-0.5-0.1-1-0.4-1.2-0.7c-0.1-0.2,0-0.3,0.1-0.5c0.2-0.3,0.7-0.2,1-0.1
		c0.1,0.1,0.2,0,0.3-0.1c0.1-0.1,0-0.2-0.1-0.3c-0.2-0.1-0.2-0.2-0.3-0.4c0-0.2,0.1-0.4,0.3-0.6c0.2-0.1,0.4-0.2,0.7-0.1
		c0.5,0.1,1,0.6,1.1,0.8c0.1,0.1,0.2,0.1,0.3,0.1c0.1-0.1,0.2-0.2,0.1-0.3c-0.1-0.2,0-0.7,0.2-0.9c0.1-0.2,0.3-0.2,0.5-0.2
		c0.4,0.1,0.7,0.7,0.9,1.3C157.6,14.8,157.8,16.1,157.4,17.2 M163.7,33.9c-1.2-1.1-2-2.5-2.7-3.9c-0.2-0.3-0.3-0.6-0.5-0.9
		c-0.7-1.3-1.6-2.6-2.9-3.6c-0.1-0.1-0.2-0.2-0.4-0.3c3.2,1.1,5.7,4.4,5.7,4.4c0.1,0.1,0.2,0.1,0.3,0c0.1-0.1,0.1-0.2,0-0.3
		c-0.1-0.2-2.8-3.6-6.3-4.6c4.5-0.3,7.4,1.5,7.5,1.5c0.1,0.1,0.2,0,0.3-0.1c0.1-0.1,0-0.2-0.1-0.3c-0.1-0.1-2.2-1.4-5.7-1.6
		c3.2-0.5,7.7-0.9,10.4,0.2c1,0.5,2,1,2,2.3c0,0.6-0.4,1.1-0.8,1.3c-0.5,0.3-1.1,0.5-1.6,0.6c-0.1,0-0.1,0.1-0.2,0.2
		c0,0.1,0,0.2,0.1,0.2c0.7,0.7,0.9,1.9,0.3,2.7c-0.6,0.8-1.8,1-2.7,0.5c-0.1,0-0.2,0-0.2,0c-0.1,0-0.1,0.1-0.1,0.2
		c0.1,0.4,0.1,0.8,0,1.1c-0.1,0.4-0.3,0.7-0.5,0.8c-0.2,0.1-0.6,0.2-0.9,0C164.2,34.3,163.9,34.1,163.7,33.9 M157.3,27.2
		c-0.1-0.4-0.2-0.7-0.3-1.1c2.2,2.4,1.8,5.3,1.8,5.5c0,0.1,0.1,0.2,0.2,0.3c0.1,0,0.2-0.1,0.3-0.2c0,0,0.5-3.4-2-6
		c0.1,0,0.1,0.1,0.2,0.1c1.3,0.9,2.1,2.2,2.8,3.5c0.2,0.3,0.3,0.6,0.5,0.9c0.8,1.4,1.6,2.9,2.8,4c0.1,0.1,0.2,0.2,0.3,0.2
		c0.1,0.8-0.4,1.5-1.2,1.7c-0.7,0.2-1.6-0.3-1.8-1c0-0.1-0.1-0.2-0.3-0.1c-0.1,0-0.2,0.1-0.2,0.2c0,0.5-0.5,1.1-1.1,1.1
		c-0.6,0.1-1.2-0.3-1.6-0.8c-0.3-0.4-0.5-1.1-0.6-1.8c-0.1-1,0-2,0.2-3l0-0.3C157.3,29.5,157.5,28.3,157.3,27.2 M148.7,17.1
		c-0.5,0.5-0.9,1-1.3,1.5c-2.5,3-3.5,6.3-3.8,7.6c-0.4-0.8-1-2.6,0.7-5.1C146.2,18.1,147.9,17.3,148.7,17.1 M144,26.2
		c0.4-1.5,1.7-5.6,5.1-8.8C148.8,20.5,146.6,24.5,144,26.2 M171.1,18.4c0.4,0.5,0.5,1,0.5,1.5c-0.1,0.7-0.7,1.3-1.4,1.4
		c0,0-0.1,0-0.1,0c-0.1,0-0.2,0.1-0.2,0.3c0,0.1,0.1,0.2,0.2,0.2c0,0,0.1,0,0.1,0c0.3,0,0.7,0.1,1,0.3c0.3,0.3,0.5,0.6,0.5,1
		c0,0.4-0.2,0.7-0.5,0.9c-0.4,0.3-0.9,0.3-1.4,0.2c-0.1-0.1-0.3-0.1-0.4-0.2c-2.5-1.1-6.6-0.8-9.7-0.4c2.7-1.3,4.4-3,4.5-3.1
		c0.1-0.1,0.1-0.2,0-0.3c-0.1-0.1-0.2-0.1-0.3,0c0,0-2.6,2.7-6.5,3.8c-0.1,0-0.2,0-0.3,0.1c1-0.5,2-1.2,2.8-1.9
		c0.7-0.5,1.4-1.2,2-1.7c0.5-0.4,0.9-0.9,1.4-1.3c1.4-1.2,2.6-1.8,3.9-2C168.8,16.8,170.3,17.3,171.1,18.4"/>
	<linearGradient id="SVGID_4_" gradientUnits="userSpaceOnUse" x1="0.1102" y1="145.8418" x2="107.1698" y2="145.8418">
		<stop  offset="0" style="stop-color:#563218"/>
		<stop  offset="0.2781" style="stop-color:#947635"/>
		<stop  offset="0.7869" style="stop-color:#997F4B"/>
		<stop  offset="1" style="stop-color:#684623"/>
	</linearGradient>
	<path class="st3" d="M0.1,148.8c0,0,0,0.1,0,0.1c0,0,0,0,0,0c0,0,0,0.1,0.1,0.1c0,0,0,0,0,0c8.1,6.9,13.7,2,14.5,1.2
		c1.2-0.1,2.3-0.3,3.2-0.6c-0.8,0.6-1.5,1.2-2.2,1.8c0,0-0.1,0-0.1,0c0,0,0,0-0.1,0C0.9,156,4.1,169.2,4.1,169.3c0,0,0,0,0,0
		c0,0,0,0.1,0,0.1c0,0,0,0,0,0c0,0,0,0,0.1,0.1c0,0,0,0,0,0c0,0,0,0,0,0c0,0,0,0,0,0c0,0,0.1,0,0.1,0c0,0,0,0,0,0c0.1,0,0.1,0,0.1,0
		c0,0,0,0,0,0c4.4-2.5,11.7-8.8,11.4-17.3c1.4-1.2,2.9-2.4,4.5-3.5c0,0,0,0,0,0c0,0,0,0,0,0c2.9-2.2,6.2-4,10-5.4
		c-0.8,1.2-1.5,2.7-2.1,4.3c-2,0.8-3.2,2.9-3.4,4.7c0,0.2,0.1,0.4,0.3,0.4c0.2,0,0.4-0.1,0.4-0.3c0.2-1.4,1-3,2.4-3.8
		c-0.6,2.4-0.8,5-0.3,7.3c-0.4,0.2-0.7,0.6-0.8,1.1c-0.2,0.9,0.3,1.8,1.3,2.1c0.9,0.2,1.8-0.3,2.1-1.3c0.2-0.9-0.3-1.8-1.3-2.1
		c-0.2,0-0.4-0.1-0.5,0c-1-4.4,0.8-9.8,3.2-12.7c4-1.4,8.6-2.3,14-2.9c0.3,0,0.6-0.1,1-0.1c-4.9,5.1-6.3,14.2-5.1,20.6c0,0,0,0,0,0
		c0,0.1,0,0.1,0.1,0.1c0,0,0,0,0,0c0,0,0,0,0.1,0.1c0,0,0,0,0,0c0,0,0,0,0,0c0,0,0,0,0,0c0,0,0.1,0,0.1,0c0,0,0,0,0.1,0
		c0,0,0.1,0,0.1,0c0,0,0,0,0,0c0,0,0,0,0,0c0,0,0,0,0,0c3-1.8,5.4-5.2,6.4-9.2c1.1-4,0.9-8.6-0.4-11.8c3.5-0.3,7-0.5,10.5-0.6h0
		c0,0,0,0,0,0c1,0,1.9-0.1,2.9-0.1c2.5-0.1,5.1-0.2,7.6-0.3c-1.3,0.8-2.6,2-3.7,3.5c-1.7,0.6-3.2,1.4-4.5,2.5c0,0,0,0,0,0
		c0,0-4.6,2.3-7.6,0.4c-0.1,0-0.2-0.1-0.2-0.1c-0.1,0-0.2,0.1-0.3,0.2c-0.1,0.2-0.1,0.4,0.1,0.5c2.1,1.3,4.8,0.9,6.5,0.3
		c-1.6,1.8-2.8,4-3.4,6.7c-0.1,0-0.2,0-0.3,0c-1,0.1-1.9,0.8-2.2,1.9c-0.3,1.3,0.5,2.7,1.8,3c1.3,0.3,2.7-0.5,3-1.8
		c0.3-1.3-0.4-2.5-1.6-2.9c1-4.7,3.6-7.8,7.9-9.6c-1.1,1.7-2,3.6-2.5,5.5c-0.1,0-0.1,0-0.2,0c-0.8,0.1-1.4,0.6-1.6,1.4
		c-0.2,1,0.4,2,1.4,2.2c0.5,0.1,1,0,1.4-0.2c0.4-0.3,0.7-0.7,0.8-1.1c0.2-0.9-0.3-1.8-1.1-2.1c0.6-2.2,1.6-4.3,3-6.2
		c1.4-1.9,3.1-3.4,4.9-4.1c2.6-0.2,5.1-0.4,7.7-0.7c0,0,0,0,0.1,0h0c0,0,0,0,0,0c1.2-0.1,2.3-0.3,3.5-0.5c1.1-0.2,2.1-0.4,3.1-0.6
		c-0.9,0.8-1.7,1.8-2.4,3c-1.8,3.4-2.1,7.7-0.7,11.2c0,0,0,0,0,0c0,0,0,0,0,0.1c0,0,0,0,0,0c0,0,0,0,0,0c0,0,0,0,0,0c0,0,0,0,0,0
		c0,0,0,0,0,0c0,0,0.1,0,0.1,0c0,0,0,0,0.1,0c0,0,0.1,0,0.1,0c0,0,0,0,0,0c0,0,0,0,0,0c0,0,0,0,0,0c3.7-1.9,6.4-5.5,7.3-9.6
		c0.4-1.6,0.6-3.9-0.4-6.1c6.9-2.2,12.9-5.6,17.2-9.9c0.1-0.1,0.1-0.4,0-0.5c-0.1-0.1-0.2-0.1-0.3-0.1c-0.1,0-0.2,0-0.2,0.1
		c-5.7,5.7-14.3,9.8-24.4,11.5c-1,0.2-2.1,0.3-3.1,0.5c-0.3-6.5-3.9-10.8-11.3-13.5c0,0,0,0,0,0c0,0-0.1,0-0.2,0
		c-0.1,0-0.1,0-0.2,0.1c0,0,0,0,0,0c0,0,0,0,0,0c0,0,0,0,0,0c0,0,0,0,0,0c0,0,0,0,0,0.1c0,0,0,0.1,0,0.1c0,0,0,0,0,0
		c-0.1,4.4,1,9.9,9.9,13.4c-5.2,0.6-10.4,0.7-15.5,0.9c-0.9,0-1.9,0.1-2.9,0.1c-2.1-0.1-4.1-0.8-6-2c-2.5-2.1-1.7-7.5,0.1-10.1
		c0,0,0.1,0,0.1,0c0.6,0.1,1.1,0,1.6-0.3c0.5-0.3,0.8-0.8,1-1.3c0.3-1.1-0.4-2.3-1.6-2.6c-0.2-0.1-0.5-0.1-0.7-0.1
		c-0.9,0.1-1.7,0.7-1.9,1.6c-0.1,0.6,0,1.1,0.3,1.6c0.1,0.2,0.3,0.4,0.5,0.6c-1.5,2.3-2.3,6.3-1.2,9c-1.4-1.2-2.6-2.7-3.6-4.4
		c0.3-0.2,0.5-0.6,0.6-1c0.2-1-0.4-2-1.4-2.2c-0.2,0-0.4-0.1-0.6,0c-0.3,0-0.5,0.1-0.8,0.3c-0.4,0.3-0.7,0.7-0.8,1.1
		c-0.1,0.5,0,1,0.2,1.4c0.3,0.4,0.7,0.7,1.1,0.8c0.3,0.1,0.6,0.1,0.9,0c1.4,2.5,3.4,4.6,5.7,6.1c1,0.7,2.1,1.2,3.2,1.5
		c-2.6,0.1-5.1,0.3-7.7,0.5c0,0,0,0,0,0h0h0c0,0,0,0,0,0c-0.7,0.1-1.3,0.1-2,0.2c-1.8,0.2-3.5,0.5-5.2,0.8c0.1-1.4-0.4-5.3-6.6-8.3
		c-4.2-2-7.1-2.3-9.1-2.2c-2.2,0.2-3.1,1.1-3.2,1.2l0,0c0,0,0,0,0,0c-0.1,0.1-0.1,0.1-0.1,0.2c0,0,0,0,0,0v0c0,0,0,0.1,0,0.1
		c0,0,0,0,0,0c0,0,0,0.1,0,0.1c0,0,0,0,0,0l0,0c3,4.7,9.7,8.6,15.6,9.4c-2,0.5-3.9,1-5.6,1.6c0,0-0.1,0-0.1,0
		c-1.2,0.4-2.3,0.8-3.4,1.3h0c-2.7,1.3-5.6,1.1-7.6,0.8c-1.4-0.2-2.8-0.7-4.1-1.1c-0.3-0.1-0.6-0.2-0.9-0.3c0,0,0,0,0,0
		c-1.1-0.3-2.6-1.2-3.4-2.3c0,0,0,0,0,0c-0.7-1.1-1-2.2-0.3-4.5c0.2,0,0.4,0,0.6,0c0.5-0.1,0.9-0.4,1.2-0.8c0.3-0.4,0.4-0.9,0.3-1.4
		c-0.2-0.9-1-1.5-1.9-1.4c-0.1,0-0.1,0-0.2,0c-0.5,0.1-0.9,0.4-1.2,0.8c-0.3,0.4-0.4,0.9-0.3,1.4c0.1,0.5,0.4,0.9,0.8,1.2
		c-0.3,0.9-0.4,1.7-0.4,2.4c-0.9-0.9-2.4-2.1-4.5-1.9c-0.2,0-0.4,0-0.6,0.1c-0.2,0-0.3,0.2-0.3,0.4c0,0.2,0.2,0.3,0.4,0.3
		c3.1-0.6,4.9,2.2,5.1,2.5c0.1,0.5,0.3,0.9,0.6,1.3c0,0,0,0,0,0c0.3,0.4,0.7,0.8,1.1,1.2c-1.5-0.3-2.8-0.4-4-0.3
		c-0.4,0-0.7,0.1-1,0.2c0,0,0-0.1-0.1-0.1c-0.3-0.4-0.7-0.7-1.2-0.9c-0.2,0-0.4-0.1-0.6,0c-0.3,0-0.6,0.1-0.8,0.3
		c-0.4,0.3-0.7,0.7-0.9,1.2c-0.1,0.5,0,1,0.2,1.5c0.3,0.4,0.7,0.7,1.2,0.9c1,0.2,2.1-0.4,2.3-1.4c0-0.2,0.1-0.4,0-0.6
		c1.5-0.3,3.3-0.2,5.4,0.3c1,0.2,2.1,0.5,3.1,0.8c1.4,0.4,2.8,0.8,4.2,1.1c1.2,0.2,2.7,0.4,4.3,0.2c-1.6,0.9-3.1,1.9-4.5,2.9
		c-1.1,0.6-3.2,1.1-5.6,1.4c-2.2-2.5-5.3-2.9-8.1-2.7c-3.2,0.3-6,1.5-6.2,1.6c0,0,0,0,0,0c0,0-0.1,0.1-0.1,0.1c0,0,0,0,0,0
		c0,0,0,0,0,0C0.1,148.7,0.1,148.7,0.1,148.8C0.1,148.8,0.1,148.8,0.1,148.8C0.1,148.8,0.1,148.8,0.1,148.8 M29.6,156.9
		c0.1,0.2,0.2,0.5,0.1,0.7c-0.1,0.3-0.2,0.5-0.4,0.6c-0.1,0.1-0.3,0.1-0.4,0.1c-0.1,0-0.2,0-0.3,0c-0.3-0.1-0.5-0.2-0.6-0.4
		c-0.1-0.2-0.2-0.5-0.1-0.7c0.1-0.3,0.2-0.5,0.4-0.6s0.5-0.2,0.7-0.1C29.3,156.5,29.5,156.6,29.6,156.9 M57.7,154.4
		c0.2,0.4,0.3,0.9,0.2,1.3c-0.1,0.4-0.4,0.8-0.8,1.1c-0.2,0.1-0.5,0.2-0.7,0.2c-0.2,0-0.4,0-0.6,0c-0.4-0.1-0.8-0.4-1.1-0.8
		c-0.2-0.4-0.3-0.9-0.2-1.3c0.1-0.5,0.4-0.8,0.8-1.1c0.4-0.2,0.9-0.3,1.3-0.2C57.1,153.7,57.5,154,57.7,154.4 M63.5,150.9
		c-0.1,0.3-0.2,0.5-0.5,0.7c-0.1,0.1-0.3,0.1-0.5,0.2c-0.1,0-0.2,0-0.4,0c-0.3-0.1-0.5-0.2-0.7-0.5c-0.2-0.3-0.2-0.5-0.1-0.8
		c0.1-0.3,0.2-0.5,0.5-0.7c0.3-0.2,0.5-0.2,0.8-0.1C63.3,149.7,63.6,150.3,63.5,150.9 M83.7,140.2c0.7-1.3,1.5-2.3,2.5-3
		c0.9-0.7,1.8-1,2.8-1.2c-1.7,6.7-5,12.3-6.1,14.1C81.8,146.9,82.1,143.2,83.7,140.2 M89.5,141.5c-0.8,3.3-2.8,6.3-5.6,8.3
		c1.4-2.3,4.1-7.2,5.6-13C90,138.5,89.8,140.2,89.5,141.5 M78.3,136.2c-1.5-2.2-4.9-7-9-11.2C74.9,127.5,77.7,131,78.3,136.2
		 M68,124.8c4.6,4.4,8.4,9.9,9.8,12C72.9,135,68.2,132,68,124.8 M52.1,123.9c0.2-0.7,0.9-1.2,1.7-1c0.7,0.2,1.2,0.9,1,1.7
		c-0.1,0.4-0.3,0.7-0.6,0.9c-0.2,0.1-0.4,0.2-0.6,0.2c-0.2,0-0.3,0-0.5,0c-0.4-0.1-0.7-0.3-0.9-0.6C52.1,124.6,52,124.2,52.1,123.9
		 M45.9,130.2c-0.3-0.1-0.5-0.2-0.7-0.5c-0.2-0.2-0.2-0.5-0.1-0.8c0.1-0.3,0.2-0.5,0.5-0.7c0.3-0.2,0.5-0.2,0.8-0.1
		c0.6,0.1,0.9,0.7,0.8,1.3c-0.1,0.3-0.3,0.6-0.6,0.7c0,0,0,0,0,0c0,0,0,0,0,0C46.4,130.2,46.2,130.2,45.9,130.2 M47.3,140.4
		c-1,10.1-3.9,16.6-5.1,18.9C41.4,153.2,42.8,145,47.3,140.4 M48,151.4c-0.9,3.2-2.7,6.1-4.9,7.9c1.3-2.6,3.9-8.9,4.9-18.2
		C48.9,144,48.9,147.9,48,151.4 M11.1,133.8c0.2-0.2,0.4-0.4,0.7-0.5c0.6-0.1,1.2,0.3,1.3,0.8c0.1,0.3,0,0.6-0.2,0.8
		c-0.2,0.2-0.4,0.4-0.7,0.5c0,0-0.1,0-0.1,0c-0.5,0-1-0.3-1.1-0.9C10.9,134.3,10.9,134,11.1,133.8 M6.9,143.3
		c-0.1,0.5-0.6,0.9-1,0.9c-0.1,0-0.3,0-0.4,0c-0.3-0.1-0.6-0.3-0.7-0.5c-0.2-0.3-0.2-0.6-0.1-0.9c0.1-0.3,0.3-0.6,0.5-0.7
		c0.3-0.2,0.6-0.2,0.9-0.1c0.3,0.1,0.6,0.3,0.7,0.5C6.9,142.7,7,143,6.9,143.3 M2.8,150.1c2.8,0.6,6.9,0.7,10.6,0.4
		C11.8,151.7,8,153.5,2.8,150.1 M14.5,152.8c-5.8,5.7-8.8,12.3-9.9,15C4.2,164.6,4.4,156.4,14.5,152.8 M5.2,168.4
		c0.9-2.5,4-9.5,10.1-15.4C15.2,157,12.9,163.7,5.2,168.4 M33.6,132.4c5.4,2.5,6.1,5.8,6.1,7.2c-1.9-1.8-8.2-7.1-16.8-8.8
		C24.3,130.2,27.6,129.6,33.6,132.4 M22.7,131.5c8.4,1.6,14.5,6.8,16.5,8.6C33.5,140,26.2,136.1,22.7,131.5 M13.7,149.7
		c-4.6,0.5-10,0.3-12.3-0.7C3.5,148.1,9.9,146.1,13.7,149.7"/>
	<linearGradient id="SVGID_5_" gradientUnits="userSpaceOnUse" x1="42.4676" y1="170.1148" x2="106.9193" y2="170.1148">
		<stop  offset="0" style="stop-color:#563218"/>
		<stop  offset="0.2781" style="stop-color:#947635"/>
		<stop  offset="0.7869" style="stop-color:#997F4B"/>
		<stop  offset="1" style="stop-color:#684623"/>
	</linearGradient>
	<path class="st4" d="M47.5,182c1.3-0.2,2.6-0.9,4.1-2.1c0.5-0.4,1-0.9,1.4-1.3c0.6-0.6,1.3-1.2,2-1.7c1.3-1,2.7-2,4.4-2.5
		c0.9,0.1,1.9,0.1,2.9,0c-0.8,0.4-1.4,0.9-1.9,1.4c-0.6,0.5-1.1,1.2-1.6,1.8c-0.4,0.4-0.8,0.9-1.2,1.3c-0.8,0.8-1.6,1.4-2.4,1.7
		c-0.1-0.1-0.1-0.2-0.2-0.3c-0.4-0.4-1.1-0.4-1.5,0c-0.2,0.2-0.3,0.5-0.3,0.8c0,0.3,0.1,0.6,0.3,0.8c0.4,0.4,1.1,0.4,1.5,0
		c0,0,0,0,0.1-0.1c0.2-0.2,0.2-0.4,0.2-0.7c0,0,0,0,0-0.1c0.8-0.3,1.5-0.8,2.3-1.5c-0.1,0.2-0.1,0.5-0.1,0.7c-1,1.4-0.8,3.6-0.7,4.3
		c0.1,0.7,0.5,1.4,1.2,1.6c0.4,0.1,0.7,0,1-0.3c0.2-0.2,0.3-0.4,0.3-0.6c0.3,0.2,0.6,0.5,1,0.5c0.4,0.1,0.8,0,1-0.2
		c0.3-0.3,0.5-0.6,0.4-1c0,0,0-0.1,0-0.1c0.3,0,0.6-0.1,0.8-0.3c0,0,0.1-0.1,0.1-0.1c0.2-0.4,0.2-0.7,0.1-0.9
		c-0.2-0.5-0.9-0.8-1.5-1c-1.7-0.4-3-1.5-3.2-1.8h0c0,0,0,0,0,0c0-0.8,0.5-1.6,0.9-2.1c0,0,0,0,0,0c0.1-0.1,0.2-0.3,0.3-0.4
		c0.5-0.6,1-1.2,1.6-1.7c0.8-0.8,2.1-1.7,3.8-1.9h0c0.7-0.1,1.3-0.2,2-0.4c0,0,0,0,0,0c1-0.2,2-0.6,3-0.9c-2.5,2.2-4.4,6-4.4,9.1
		c0,0,0,0,0,0.1c0,0,0,0,0,0c0,0,0,0,0,0.1c0,0,0,0,0,0c0,0,0,0,0,0c0,0,0,0,0,0c0,0,0,0,0,0c0,0,0,0,0,0c0.1,0,1.9,0.3,4.5-2.8
		c0.3-0.4,0.6-0.8,1-1.3c2-3,1-5.1,0.6-5.8c0.9-0.4,1.7-0.8,2.7-1.2c0.3-0.2,0.7-0.3,1-0.5c0,0,0,0,0,0c1.3-0.6,2.5-1.3,3.7-2
		c-0.4,0.5-0.7,1-1,1.6c-0.6,1.3-0.9,3-0.8,4.5c-0.2,0.1-0.3,0.1-0.4,0.3c-0.2,0.2-0.3,0.5-0.3,0.7c0,0.3,0.1,0.5,0.3,0.7
		c0.2,0.2,0.5,0.3,0.7,0.3c0.3,0,0.5-0.1,0.7-0.3c0,0,0,0,0.1-0.1c0.3-0.4,0.3-1-0.1-1.4c-0.2-0.2-0.4-0.3-0.6-0.3
		c0-1,0.1-2.1,0.3-3c0.4,1.6,1.9,3.2,3.3,3.8c-0.2,0.4-0.1,0.9,0.3,1.3c0.5,0.5,1.2,0.4,1.7,0c0,0,0,0,0.1-0.1
		c0.4-0.5,0.4-1.2-0.1-1.6c-0.5-0.5-1.2-0.4-1.7,0c0,0,0,0,0,0c-1.6-0.7-3.6-2.9-3-4.7c0.5-1.2,1.3-2.1,2.2-2.7
		c0.5-0.3,0.9-0.5,1.4-0.8c2.4-1.4,4.9-2.9,7.5-4.2c-3.1,4.3-1.9,7.2-0.6,9.2c0,0,0,0,0,0c0,0,0,0,0.1,0c0,0,0,0,0,0c0,0,0,0,0,0
		c0,0,0,0,0,0c0,0,0,0,0,0c0,0,0,0,0.1,0c0,0,0,0,0,0c0,0,0.1,0,0.1-0.1c0,0,0,0,0,0c2.6-3.5,3-6.6,1.3-9.7c0.5-0.2,1-0.5,1.6-0.7
		c5.2-2.2,10.5-2.9,14.8-1.9c0.1,0,0.2,0,0.2-0.1c0,0,0-0.1,0-0.1c0-0.1,0-0.2-0.2-0.3c-3.3-0.7-7.1-0.5-11,0.5
		c-0.2-1.3-1-2.3-1.7-3c-1.6-1.6-4-2.5-6.3-2.3c0,0,0,0,0,0c0,0,0,0-0.1,0c0,0,0,0,0,0c0,0,0,0,0,0c0,0,0,0,0,0c0,0,0,0,0,0
		c0,0,0,0,0,0c0,0,0,0,0,0c0,0,0,0,0,0c0,0,0,0,0,0c0,0,0,0,0,0c0.4,2.1,1.8,4,3.7,5.1c0.7,0.4,1.3,0.6,2,0.7
		c-0.5,0.2-1.1,0.4-1.6,0.6c-0.6,0.3-1.2,0.5-1.8,0.8c0,0,0,0,0,0c-1.3,0.6-2.6,1.3-3.8,2c-1,0.2-2.3,0-3.5-0.5
		c-1.2-0.4-2.3-1.1-3.3-2c0.1-0.2,0.2-0.4,0.2-0.6c0-0.3-0.1-0.5-0.3-0.7c-0.2-0.2-0.5-0.3-0.7-0.3c-0.3,0-0.5,0.1-0.7,0.3
		c-0.2,0.2-0.3,0.5-0.3,0.7c0,0.3,0.1,0.5,0.3,0.7c0.4,0.3,0.9,0.4,1.3,0.1c0.8,0.7,1.7,1.3,2.7,1.8c-2.5,0.4-4.6-0.3-6.5-2.1
		c0.2-0.3,0.3-0.6,0.3-0.9c0-0.4-0.2-0.7-0.4-1c-0.3-0.3-0.6-0.4-1-0.4c-0.4,0-0.7,0.2-1,0.4c-0.3,0.3-0.4,0.6-0.4,1
		c0,0.4,0.2,0.7,0.4,1c0.5,0.5,1.2,0.5,1.7,0.2c1.1,1.1,2.2,1.8,3.5,2.1c-1,0.3-2.3,0.9-2.9,2.1c-0.1,0.1,0,0.2,0.1,0.3
		c0.1,0.1,0.2,0,0.3-0.1c0.8-1.8,3.6-2.1,3.7-2.1c0,0,0,0,0,0c0.9,0.1,1.9,0,2.9-0.2c0.9,0.3,1.8,0.5,2.7,0.5
		c-1.2,0.7-2.4,1.4-3.6,2.1c-0.5,0.3-0.9,0.5-1.4,0.8c-1.7,1-3.3,1.9-5,2.8c-0.4-1.9-1.7-4.1-3.4-5.6c-1.7-1.6-3.9-2.4-5.8-2.4h0
		c0,0,0,0,0,0c0,0,0,0,0,0c0,0,0,0-0.1,0c0,0,0,0,0,0c0,0,0,0,0,0c0,0,0,0,0,0c0,0,0,0,0,0c0,0,0,0,0,0c0,0,0,0,0,0.1c0,0,0,0,0,0
		c0,0,0,0.1,0,0.1v0c1.3,3.4,4.7,7.2,8.5,8.1c-0.1,0.1-0.3,0.2-0.4,0.2c-2.7,1.3-5.1,2.2-7.4,2.8c-2-0.6-4.5-2.6-5.3-5
		c0.1,0,0.2-0.1,0.2-0.2c0,0,0,0,0.1-0.1c0.3-0.4,0.3-1-0.1-1.3c-0.2-0.2-0.4-0.3-0.7-0.3c-0.3,0-0.5,0.1-0.7,0.3
		c-0.4,0.4-0.4,1,0,1.4c0.2,0.2,0.5,0.3,0.7,0.3c0.4,1.2,1.3,2.4,2.3,3.3c-0.9,0-1.7-0.5-2.2-1.1c-0.1-0.1-0.2-0.1-0.3,0
		c-0.1,0.1-0.1,0.2,0,0.3c0.6,0.8,1.9,1.4,3,1.2c0.7,0.6,1.5,1,2.2,1.4c-2.2,0.5-4.2,0.6-6.2,0.5c0,0,0,0,0,0c0,0,0,0,0,0
		c-0.8-0.5-1.3-1.4-1.5-2.5c-0.2-1.1-0.1-2.2,0.1-3.2l0-0.3c0.1-1,0.3-2,0.2-3.1c-0.1-0.8-0.3-1.5-0.7-2c-0.5-0.7-1.2-1-2-1
		c-0.6,0.1-1.1,0.5-1.4,1c-0.5-0.6-1.3-0.9-2.1-0.8c-0.8,0.2-1.5,1-1.5,1.9c-0.1,0-0.2-0.1-0.3-0.1c-0.5-0.2-0.9-0.1-1.3,0.1
		c-0.4,0.2-0.7,0.6-0.7,1.2c0,0.3,0,0.6,0,0.9c-1-0.4-2.2-0.1-2.9,0.8c-0.7,0.9-0.6,2.2,0.1,3c-0.5,0.1-1,0.3-1.4,0.6
		c-0.6,0.4-1,1.1-1,1.7c0,1,0.4,1.6,1,2c-0.3,0-0.6,0.2-0.8,0.3c-0.4,0.3-0.7,0.8-0.7,1.3c0,0.5,0.3,1,0.7,1.3
		c0.1,0.1,0.3,0.2,0.5,0.3c-0.5,0.3-0.9,0.9-1,1.5c-0.1,0.6,0.1,1.3,0.6,1.8C44.1,181.7,45.8,182.3,47.5,182 M60.3,167.8
		c-0.2-0.2-0.2-0.5,0-0.7c0,0,0,0,0,0c0.1-0.1,0.2-0.2,0.4-0.2c0.1,0,0.3,0,0.4,0.1v0c0.2,0.2,0.2,0.5,0,0.7
		C60.9,168,60.5,168,60.3,167.8 M75.1,160.2c0,0.3-0.1,0.5-0.3,0.7c-0.2,0.2-0.4,0.3-0.7,0.3c-0.3,0-0.5-0.1-0.7-0.3
		c-0.2-0.2-0.3-0.4-0.3-0.7c0-0.2,0.1-0.4,0.2-0.6c0,0,0,0,0.1-0.1c0.2-0.2,0.4-0.3,0.7-0.3c0.3,0,0.5,0.1,0.7,0.3
		C75,159.7,75.1,160,75.1,160.2 M79,160.5c0,0.2-0.1,0.3-0.2,0.4c-0.2,0.2-0.6,0.2-0.8,0c-0.1-0.1-0.2-0.3-0.2-0.4
		c0-0.1,0-0.3,0.1-0.4c0,0,0,0,0,0c0.1-0.1,0.3-0.2,0.4-0.2c0.2,0,0.3,0.1,0.4,0.2C78.9,160.2,79,160.4,79,160.5 M88.2,154.7
		c1.1,0.5,4.3,2.1,7,4.7c-0.5,0.2-1,0.3-1.6,0.3c-0.7-0.1-1.4-0.3-2.1-0.7C89.9,158.1,88.6,156.5,88.2,154.7 M93.8,156.7
		c0.5,0.5,1.1,1.2,1.4,2.1c-2.4-2.2-5.1-3.6-6.4-4.3C90.7,154.6,92.5,155.4,93.8,156.7 M89.3,170.4c0.7-3.1,0.8-6.3,0.9-7.8
		C91.4,165.1,91.1,167.6,89.3,170.4 M89.7,162.4c0,1.4-0.2,5.1-1,8.5C86.7,167.5,88,164.7,89.7,162.4 M81.6,175.1
		c0.3-0.3,0.8-0.3,1.1,0c0.3,0.3,0.3,0.8,0,1.1c-0.3,0.3-0.8,0.3-1.1,0C81.3,175.8,81.3,175.4,81.6,175.1 M77.3,174.9
		c0.2,0,0.3,0.1,0.4,0.2c0.1,0.1,0.2,0.3,0.2,0.4c0,0.2-0.1,0.3-0.2,0.4c-0.1,0.1-0.3,0.2-0.4,0.2c-0.2,0-0.3-0.1-0.4-0.2
		c-0.1-0.1-0.2-0.3-0.2-0.4c0-0.1,0-0.3,0.1-0.4c0,0,0,0,0,0C77,174.9,77.1,174.9,77.3,174.9 M66.4,162.6c1.3,0.8,4.5,2.9,8,7.3
		C70.9,169,67.8,165.7,66.4,162.6 M71.4,164.5c1.4,1.3,2.6,3.1,3.1,4.7c-3.2-3.9-6.2-6.1-7.6-6.9C68.4,162.5,70.1,163.3,71.4,164.5
		 M54.6,180.6c0.1,0.1,0.2,0.3,0.2,0.4c0,0.2-0.1,0.3-0.2,0.5c-0.2,0.3-0.7,0.3-0.9,0c-0.2-0.2-0.3-0.6-0.1-0.9c0,0,0,0,0,0
		C54,180.3,54.4,180.3,54.6,180.6 M57.3,181.5c0,0.5,0.2,1,0.6,1.7c0.1,0.1,0.2,0.1,0.3,0.1c0,0,0,0,0.1,0c0.1-0.1,0.1-0.2,0-0.3
		c-0.3-0.5-0.5-0.9-0.5-1.3c0.3,0.6,0.9,1.1,1.8,1.8c0.1,0.1,0.2,0.1,0.3,0c0,0,0,0,0,0c0.1-0.1,0-0.2-0.1-0.3
		c-1.2-0.9-1.7-1.5-1.9-2.1c0.6,0.5,1.7,1.2,3,1.5c0.5,0.1,1,0.4,1.2,0.7c0.1,0.2,0,0.3-0.1,0.5c-0.2,0.3-0.7,0.2-1,0.1
		c-0.1-0.1-0.2,0-0.3,0.1c-0.1,0.1,0,0.2,0.1,0.3c0.2,0.1,0.2,0.2,0.3,0.4c0,0.2-0.1,0.4-0.3,0.6c-0.2,0.1-0.4,0.2-0.7,0.1
		c-0.5-0.1-1-0.6-1.1-0.8c-0.1-0.1-0.2-0.1-0.3-0.1c-0.1,0.1-0.2,0.2-0.1,0.3c0.1,0.2,0,0.7-0.2,0.9c-0.1,0.2-0.3,0.2-0.5,0.2
		c-0.4-0.1-0.7-0.7-0.9-1.3C57.1,183.9,56.9,182.6,57.3,181.5 M51,164.8c1.2,1.1,2,2.5,2.7,3.9c0.2,0.3,0.3,0.6,0.5,0.9
		c0.7,1.3,1.6,2.6,2.9,3.6c0.1,0.1,0.2,0.2,0.4,0.3c-3.2-1.1-5.7-4.4-5.7-4.4c-0.1-0.1-0.2-0.1-0.3,0c-0.1,0.1-0.1,0.2,0,0.3
		c0.1,0.2,2.8,3.6,6.3,4.6c-4.5,0.3-7.4-1.5-7.5-1.5c-0.1-0.1-0.2,0-0.3,0.1c-0.1,0.1,0,0.2,0.1,0.3c0.1,0.1,2.2,1.4,5.7,1.6
		c-3.2,0.5-7.7,1-10.4-0.2c-1-0.5-2-1-2-2.3c0-0.6,0.4-1.1,0.8-1.3c0.5-0.3,1.1-0.5,1.6-0.6c0.1,0,0.1-0.1,0.2-0.2
		c0-0.1,0-0.2-0.1-0.2c-0.7-0.7-0.9-1.9-0.3-2.7c0.6-0.8,1.8-1,2.7-0.5c0.1,0,0.2,0,0.2,0c0.1,0,0.1-0.1,0.1-0.2
		c-0.1-0.4-0.1-0.8,0-1.1c0.1-0.4,0.3-0.7,0.5-0.8c0.2-0.1,0.6-0.2,0.9,0C50.4,164.3,50.7,164.6,51,164.8 M57.4,171.5
		c0.1,0.4,0.2,0.7,0.3,1.1c-2.2-2.4-1.8-5.3-1.8-5.5c0-0.1-0.1-0.2-0.2-0.3c-0.1,0-0.2,0.1-0.3,0.2c0,0-0.5,3.4,2,6
		c-0.1,0-0.1-0.1-0.2-0.1c-1.3-0.9-2.1-2.2-2.8-3.5c-0.2-0.3-0.3-0.6-0.5-0.9c-0.8-1.4-1.6-2.9-2.8-4c-0.1-0.1-0.2-0.2-0.3-0.2
		c-0.1-0.8,0.4-1.6,1.2-1.7c0.7-0.2,1.6,0.3,1.8,1c0,0.1,0.1,0.2,0.3,0.1c0.1,0,0.2-0.1,0.2-0.2c0-0.5,0.5-1.1,1.1-1.1
		c0.6-0.1,1.2,0.3,1.6,0.8c0.3,0.4,0.5,1.1,0.6,1.8c0.1,1,0,2-0.2,3l0,0.3C57.3,169.2,57.2,170.4,57.4,171.5 M66,181.6
		c0.5-0.5,0.9-1,1.3-1.5c2.5-3,3.5-6.3,3.8-7.6c0.4,0.8,1,2.6-0.7,5.1C68.4,180.6,66.8,181.3,66,181.6 M70.7,172.5
		c-0.4,1.5-1.7,5.6-5.1,8.8C65.8,178.1,68.1,174.2,70.7,172.5 M43.6,180.3c-0.4-0.5-0.5-1-0.5-1.5c0.1-0.7,0.7-1.3,1.4-1.4
		c0,0,0.1,0,0.1,0c0.1,0,0.2-0.1,0.2-0.3c0-0.1-0.1-0.2-0.2-0.2c0,0-0.1,0-0.1,0c-0.3,0-0.7-0.1-1-0.3c-0.3-0.3-0.5-0.6-0.5-1
		c0-0.4,0.2-0.7,0.5-0.9c0.4-0.3,0.9-0.3,1.4-0.2c0.1,0.1,0.3,0.1,0.4,0.2c2.5,1.1,6.6,0.8,9.7,0.4c-2.7,1.3-4.4,3-4.5,3.1
		c-0.1,0.1-0.1,0.2,0,0.3c0.1,0.1,0.2,0.1,0.3,0c0,0,2.6-2.7,6.5-3.8c0.1,0,0.2,0,0.3-0.1c-1,0.5-2,1.2-2.8,1.9
		c-0.7,0.5-1.4,1.2-2,1.7c-0.5,0.4-0.9,0.9-1.4,1.3c-1.4,1.2-2.6,1.8-3.9,2C45.9,181.8,44.4,181.3,43.6,180.3"/>
	<linearGradient id="SVGID_6_" gradientUnits="userSpaceOnUse" x1="106.3628" y1="100.1165" x2="108.3628" y2="100.1165">
		<stop  offset="0.7814" style="stop-color:#B6A169"/>
		<stop  offset="0.8302" style="stop-color:#AD9760"/>
		<stop  offset="0.903" style="stop-color:#997F4B"/>
	</linearGradient>
	<line class="st5" x1="107.4" y1="1.6" x2="107.4" y2="198.6"/>
	<linearGradient id="SVGID_7_" gradientUnits="userSpaceOnUse" x1="60.2171" y1="57.5598" x2="107.3628" y2="57.5598">
		<stop  offset="0" style="stop-color:#563218"/>
		<stop  offset="0.224" style="stop-color:#947635"/>
		<stop  offset="0.4152" style="stop-color:#DAD28F"/>
		<stop  offset="0.4545" style="stop-color:#E9E5A2"/>
		<stop  offset="0.5191" style="stop-color:#F0EEB0"/>
		<stop  offset="0.6182" style="stop-color:#D2C586"/>
		<stop  offset="0.7814" style="stop-color:#B6A169"/>
		<stop  offset="0.8302" style="stop-color:#AD9760"/>
		<stop  offset="0.903" style="stop-color:#997F4B"/>
		<stop  offset="1" style="stop-color:#684623"/>
	</linearGradient>
	<path class="st6" d="M107.4,56.3c-0.7-0.9-1.5-1.7-2.4-2.3c-2.8-1.9-7.9-3.8-15.2-5.7c-11.1-2.8-16.6-7.5-16.6-14
		c0-4.2,1-7.6,3.1-10.2c2.4-3.1,5.9-4.6,10.5-4.6c6,0,10.9,2.3,14.7,6.8c2.8,3.3,4.6,7.3,5.5,12h0.4V16.6h-0.4c-0.8,1-1.6,1.6-2.3,2
		c-0.7,0.4-1.4,0.5-2.2,0.5c-2.5-0.6-5-1.2-7.4-1.7c-2.7-0.5-5.3-0.8-7.7-0.8c-7.7,0-14,2.1-18.9,6.3c-5.4,4.6-8.1,10.8-8.1,18.8
		c0,9.4,3.4,16,10.2,19.6c6.3,2.1,12.7,4.2,19,6.3c6.8,2.6,10.2,7.2,10.2,13.9c0,5.2-1.7,9-5,11.4c-2.5,1.9-5.6,2.8-9.4,2.8
		c-6,0-10.9-1.9-14.7-5.8c-3.6-3.6-6.3-9-8.1-16.4L62,73.6v24.9h0.4c1.3-1.2,2.4-1.9,3.3-2.3c0.8-0.4,1.5-0.6,2-0.6
		c0.7,0,2.9,0.5,6.5,1.4c3.7,1,7.1,1.4,10.4,1.4c8,0,14.5-2.4,19.5-7.3c1.2-1.2,2.3-2.4,3.2-3.8V56.3z"/>
	<linearGradient id="SVGID_8_" gradientUnits="userSpaceOnUse" x1="107.4714" y1="150.6178" x2="167.4226" y2="150.6178">
		<stop  offset="0" style="stop-color:#563218"/>
		<stop  offset="0.224" style="stop-color:#947635"/>
		<stop  offset="0.4152" style="stop-color:#DAD28F"/>
		<stop  offset="0.4545" style="stop-color:#E9E5A2"/>
		<stop  offset="0.5191" style="stop-color:#F0EEB0"/>
		<stop  offset="0.6182" style="stop-color:#D2C586"/>
		<stop  offset="0.7814" style="stop-color:#B6A169"/>
		<stop  offset="0.8302" style="stop-color:#AD9760"/>
		<stop  offset="0.903" style="stop-color:#997F4B"/>
		<stop  offset="1" style="stop-color:#684623"/>
	</linearGradient>
	<path class="st7" d="M142,154.2v0.4c1.3,0.5,2.4,1.5,3.3,3c0.9,1.5,1.3,3,1.3,4.5v22c0,1.2-0.7,2.2-2.2,3.2c-1.5,1-3.1,1.4-4.8,1.4
		c-5.1,0-9-1.7-11.7-5.2c-2.3-2.9-3.9-7.4-4.7-13.3c-0.6-4.1-0.9-10.1-0.9-18c0-9,0.3-16.1,0.8-21.5c0.5-5.4,1.8-9.6,3.8-12.8
		c2.2-3.6,5.5-5.4,9.8-5.4c6.1,0,11.4,3.3,16.1,10c3.1,4.5,5.4,9.6,6.7,15.2h0.4v-28.1h-0.4c-2.1,1.5-4.3,2.3-6.8,2.3
		c-3.6-0.5-7.1-1-10.6-1.5c-3.5-0.5-5.9-0.8-7.4-0.8c-9.7,0-17.5,4.4-23.3,13.3c-1.6,2.4-2.9,5-4,7.7v42.8c0.8,1.8,1.6,3.5,2.6,5.1
		c5.4,8.7,13.9,13.1,25.2,13.1c4.2,0,8.2-0.5,11.8-1.6c3.7-1.1,7.4-2.3,11.3-3.6c0.4,0,1,0.1,1.6,0.3c0.6,0.2,1.1,0.6,1.6,1h1.3
		v-25.7c0-1.4,0.5-2.9,1.4-4.5c0.9-1.6,2-2.6,3.2-3v-0.4H142z"/>
</g>
<g>
	<g>
		<linearGradient id="SVGID_9_" gradientUnits="userSpaceOnUse" x1="266.9769" y1="80.4446" x2="601.4568" y2="80.4446">
			<stop  offset="0" style="stop-color:#563218"/>
			<stop  offset="0.2781" style="stop-color:#947635"/>
			<stop  offset="0.7869" style="stop-color:#997F4B"/>
			<stop  offset="1" style="stop-color:#684623"/>
		</linearGradient>
		<path class="st8" d="M280.2,68.9v7.6h-0.6c-0.2-1.5-0.5-2.6-1.1-3.5c-0.5-0.9-1.2-1.6-2.2-2.1c-0.9-0.5-1.9-0.8-2.9-0.8
			c-1.1,0-2.1,0.3-2.8,1c-0.7,0.7-1.1,1.5-1.1,2.4c0,0.7,0.2,1.3,0.7,1.8c0.7,0.8,2.3,1.9,4.8,3.3c2.1,1.1,3.5,2,4.2,2.6
			c0.8,0.6,1.3,1.3,1.7,2.1c0.4,0.8,0.6,1.6,0.6,2.5c0,1.7-0.6,3.1-1.9,4.3c-1.3,1.2-3,1.8-5,1.8c-0.6,0-1.2,0-1.8-0.1
			c-0.3-0.1-1-0.3-2.1-0.6c-1.1-0.3-1.7-0.5-2-0.5c-0.3,0-0.5,0.1-0.6,0.2c-0.2,0.2-0.3,0.5-0.4,1h-0.6v-7.6h0.6
			c0.3,1.6,0.7,2.8,1.1,3.6c0.5,0.8,1.2,1.4,2.2,2c1,0.5,2.1,0.8,3.2,0.8c1.4,0,2.4-0.4,3.2-1.1c0.8-0.7,1.2-1.6,1.2-2.5
			c0-0.5-0.1-1.1-0.4-1.6c-0.3-0.6-0.8-1.1-1.4-1.5c-0.4-0.3-1.6-1-3.5-2.1c-1.9-1.1-3.2-1.9-4-2.5c-0.8-0.6-1.4-1.3-1.8-2.1
			c-0.4-0.8-0.6-1.6-0.6-2.5c0-1.6,0.6-3,1.8-4.1c1.2-1.1,2.8-1.7,4.6-1.7c1.2,0,2.4,0.3,3.7,0.9c0.6,0.3,1,0.4,1.3,0.4
			c0.3,0,0.5-0.1,0.7-0.3c0.2-0.2,0.3-0.5,0.4-1H280.2z"/>
		<linearGradient id="SVGID_10_" gradientUnits="userSpaceOnUse" x1="266.9769" y1="80.4446" x2="601.4568" y2="80.4446">
			<stop  offset="0" style="stop-color:#563218"/>
			<stop  offset="0.2781" style="stop-color:#947635"/>
			<stop  offset="0.7869" style="stop-color:#997F4B"/>
			<stop  offset="1" style="stop-color:#684623"/>
		</linearGradient>
		<path class="st9" d="M296.7,84.1h-8.6l-1.5,3.5c-0.4,0.9-0.6,1.5-0.6,1.9c0,0.3,0.2,0.6,0.5,0.9s1,0.4,2.1,0.5v0.6h-7v-0.6
			c0.9-0.2,1.5-0.4,1.8-0.6c0.6-0.5,1.2-1.6,1.8-3.2l7.8-18.2h0.6l7.7,18.4c0.6,1.5,1.2,2.4,1.7,2.9c0.5,0.4,1.2,0.7,2.1,0.7v0.6
			h-8.7v-0.6c0.9,0,1.5-0.2,1.8-0.4c0.3-0.2,0.5-0.6,0.5-0.9c0-0.5-0.2-1.2-0.7-2.3L296.7,84.1z M296.3,82.9l-3.8-8.9l-3.8,8.9
			H296.3z"/>
		<linearGradient id="SVGID_11_" gradientUnits="userSpaceOnUse" x1="266.9769" y1="80.4446" x2="601.4568" y2="80.4446">
			<stop  offset="0" style="stop-color:#563218"/>
			<stop  offset="0.2781" style="stop-color:#947635"/>
			<stop  offset="0.7869" style="stop-color:#997F4B"/>
			<stop  offset="1" style="stop-color:#684623"/>
		</linearGradient>
		<path class="st10" d="M322.7,85.4l0.5,0.1l-1.9,6h-17.1v-0.6h0.8c0.9,0,1.6-0.3,2-0.9c0.2-0.3,0.3-1.2,0.3-2.4V73.3
			c0-1.4-0.2-2.2-0.5-2.6c-0.4-0.5-1.1-0.7-1.9-0.7h-0.8v-0.6h10V70c-1.2,0-2,0.1-2.5,0.3c-0.5,0.2-0.8,0.5-1,0.9s-0.3,1.2-0.3,2.5
			v13.9c0,0.9,0.1,1.5,0.3,1.9c0.1,0.2,0.3,0.4,0.6,0.5c0.3,0.1,1.1,0.2,2.5,0.2h1.6c1.7,0,2.9-0.1,3.6-0.4c0.7-0.2,1.3-0.7,1.9-1.3
			C321.6,87.8,322.1,86.8,322.7,85.4z"/>
		<linearGradient id="SVGID_12_" gradientUnits="userSpaceOnUse" x1="266.9769" y1="80.4446" x2="601.4568" y2="80.4446">
			<stop  offset="0" style="stop-color:#563218"/>
			<stop  offset="0.2781" style="stop-color:#947635"/>
			<stop  offset="0.7869" style="stop-color:#997F4B"/>
			<stop  offset="1" style="stop-color:#684623"/>
		</linearGradient>
		<path class="st11" d="M334.2,68.9c2.9,0,5.4,1.1,7.5,3.3c2.1,2.2,3.2,4.9,3.2,8.2c0,3.4-1.1,6.1-3.2,8.4c-2.1,2.2-4.7,3.3-7.7,3.3
			c-3,0-5.6-1.1-7.7-3.2c-2.1-2.2-3.1-5-3.1-8.4c0-3.5,1.2-6.4,3.6-8.6C328.8,69.8,331.3,68.9,334.2,68.9z M333.9,70.1
			c-2,0-3.6,0.7-4.8,2.2c-1.5,1.8-2.2,4.5-2.2,8c0,3.6,0.8,6.4,2.3,8.3c1.2,1.5,2.8,2.2,4.7,2.2c2.1,0,3.8-0.8,5.1-2.4s2-4.2,2-7.7
			c0-3.8-0.7-6.6-2.2-8.5C337.6,70.8,336,70.1,333.9,70.1z"/>
		<linearGradient id="SVGID_13_" gradientUnits="userSpaceOnUse" x1="266.9769" y1="80.4446" x2="601.4568" y2="80.4446">
			<stop  offset="0" style="stop-color:#563218"/>
			<stop  offset="0.2781" style="stop-color:#947635"/>
			<stop  offset="0.7869" style="stop-color:#997F4B"/>
			<stop  offset="1" style="stop-color:#684623"/>
		</linearGradient>
		<path class="st12" d="M343.6,69.4h6L363.2,86V73.2c0-1.4-0.2-2.2-0.5-2.5c-0.4-0.5-1-0.7-1.9-0.7H360v-0.6h7.7V70h-0.8
			c-0.9,0-1.6,0.3-2,0.8c-0.2,0.3-0.4,1.1-0.4,2.4v18.6H364l-14.6-17.8v13.6c0,1.4,0.1,2.2,0.4,2.5c0.4,0.5,1,0.7,1.9,0.7h0.8v0.6
			h-7.7v-0.6h0.8c0.9,0,1.6-0.3,2-0.8c0.2-0.3,0.4-1.1,0.4-2.4V72.3c-0.6-0.8-1.1-1.2-1.5-1.5c-0.3-0.2-0.8-0.5-1.5-0.7
			c-0.3-0.1-0.8-0.1-1.4-0.1V69.4z"/>
		<linearGradient id="SVGID_14_" gradientUnits="userSpaceOnUse" x1="266.9769" y1="80.4446" x2="601.4568" y2="80.4446">
			<stop  offset="0" style="stop-color:#563218"/>
			<stop  offset="0.2781" style="stop-color:#947635"/>
			<stop  offset="0.7869" style="stop-color:#997F4B"/>
			<stop  offset="1" style="stop-color:#684623"/>
		</linearGradient>
		<path class="st13" d="M373.2,70.6v8.7h4.9c1.3,0,2.1-0.2,2.5-0.6c0.6-0.5,0.9-1.4,0.9-2.6h0.6v7.7h-0.6c-0.2-1.1-0.3-1.8-0.5-2.1
			c-0.2-0.4-0.5-0.7-1-0.9c-0.4-0.2-1.1-0.3-2.1-0.3h-4.9v7.3c0,1,0,1.6,0.1,1.8c0.1,0.2,0.2,0.4,0.5,0.5s0.6,0.2,1.2,0.2h3.8
			c1.2,0,2.2-0.1,2.7-0.3c0.6-0.2,1.1-0.5,1.6-1c0.7-0.7,1.4-1.7,2.1-3h0.7l-1.9,5.5h-17v-0.6h0.8c0.5,0,1-0.1,1.5-0.4
			c0.3-0.2,0.6-0.4,0.7-0.8c0.1-0.3,0.2-1.1,0.2-2.1V73.2c0-1.4-0.1-2.3-0.4-2.6c-0.4-0.4-1-0.7-2-0.7h-0.8v-0.6h17l0.2,4.8h-0.6
			c-0.2-1.2-0.5-2-0.8-2.4c-0.3-0.4-0.7-0.8-1.2-1c-0.4-0.2-1.2-0.2-2.3-0.2H373.2z"/>
		<linearGradient id="SVGID_15_" gradientUnits="userSpaceOnUse" x1="266.9769" y1="80.4446" x2="601.4568" y2="80.4446">
			<stop  offset="0" style="stop-color:#563218"/>
			<stop  offset="0.2781" style="stop-color:#947635"/>
			<stop  offset="0.7869" style="stop-color:#997F4B"/>
			<stop  offset="1" style="stop-color:#684623"/>
		</linearGradient>
		<path class="st14" d="M399.9,68.9v7.6h-0.6c-0.2-1.5-0.5-2.6-1.1-3.5c-0.5-0.9-1.2-1.6-2.2-2.1c-0.9-0.5-1.9-0.8-2.9-0.8
			c-1.1,0-2.1,0.3-2.8,1c-0.7,0.7-1.1,1.5-1.1,2.4c0,0.7,0.2,1.3,0.7,1.8c0.7,0.8,2.3,1.9,4.8,3.3c2.1,1.1,3.5,2,4.2,2.6
			c0.8,0.6,1.3,1.3,1.7,2.1c0.4,0.8,0.6,1.6,0.6,2.5c0,1.7-0.7,3.1-1.9,4.3s-3,1.8-5,1.8c-0.6,0-1.2,0-1.8-0.1
			c-0.3-0.1-1-0.3-2.1-0.6c-1.1-0.3-1.7-0.5-2-0.5c-0.3,0-0.5,0.1-0.6,0.2c-0.2,0.2-0.3,0.5-0.4,1h-0.6v-7.6h0.6
			c0.3,1.6,0.7,2.8,1.1,3.6c0.5,0.8,1.2,1.4,2.2,2c1,0.5,2.1,0.8,3.2,0.8c1.4,0,2.4-0.4,3.2-1.1c0.8-0.7,1.2-1.6,1.2-2.5
			c0-0.5-0.2-1.1-0.4-1.6c-0.3-0.6-0.8-1.1-1.4-1.5c-0.4-0.3-1.6-1-3.5-2.1c-1.9-1.1-3.2-1.9-4-2.5c-0.8-0.6-1.4-1.3-1.8-2.1
			c-0.4-0.8-0.6-1.6-0.6-2.5c0-1.6,0.6-3,1.8-4.1c1.2-1.1,2.8-1.7,4.6-1.7c1.2,0,2.4,0.3,3.7,0.9c0.6,0.3,1,0.4,1.3,0.4
			c0.3,0,0.5-0.1,0.7-0.3c0.2-0.2,0.3-0.5,0.4-1H399.9z"/>
		<linearGradient id="SVGID_16_" gradientUnits="userSpaceOnUse" x1="266.9769" y1="80.4446" x2="601.4568" y2="80.4446">
			<stop  offset="0" style="stop-color:#563218"/>
			<stop  offset="0.2781" style="stop-color:#947635"/>
			<stop  offset="0.7869" style="stop-color:#997F4B"/>
			<stop  offset="1" style="stop-color:#684623"/>
		</linearGradient>
		<path class="st15" d="M430.5,68.9v7.8h-0.6c-0.7-2.1-1.8-3.8-3.3-4.9s-3-1.7-4.8-1.7c-1.7,0-3,0.5-4.1,1.4s-1.9,2.2-2.3,3.9
			c-0.5,1.7-0.7,3.4-0.7,5.1c0,2.1,0.2,4,0.8,5.6c0.5,1.6,1.3,2.8,2.4,3.5c1.1,0.8,2.4,1.1,4,1.1c0.5,0,1.1-0.1,1.6-0.2
			s1.1-0.3,1.7-0.5v-4.6c0-0.9-0.1-1.4-0.2-1.7c-0.1-0.3-0.4-0.5-0.7-0.7s-0.8-0.3-1.4-0.3h-0.6v-0.6h10.7v0.6
			c-0.8,0.1-1.4,0.2-1.7,0.3c-0.3,0.2-0.6,0.4-0.7,0.8c-0.1,0.2-0.1,0.7-0.1,1.5v4.6c-1.4,0.6-2.9,1.1-4.4,1.4
			c-1.5,0.3-3.1,0.5-4.8,0.5c-2.1,0-3.8-0.3-5.2-0.9c-1.4-0.6-2.6-1.3-3.7-2.2c-1.1-0.9-1.9-2-2.5-3.1c-0.8-1.5-1.1-3.2-1.1-5
			c0-3.3,1.2-6.1,3.5-8.4c2.3-2.3,5.3-3.4,8.8-3.4c1.1,0,2.1,0.1,3,0.3c0.5,0.1,1.3,0.3,2.3,0.7c1.1,0.4,1.7,0.6,1.9,0.6
			c0.3,0,0.6-0.1,0.8-0.3c0.3-0.2,0.5-0.6,0.7-1.3H430.5z"/>
		<linearGradient id="SVGID_17_" gradientUnits="userSpaceOnUse" x1="266.9769" y1="80.4446" x2="601.4568" y2="80.4446">
			<stop  offset="0" style="stop-color:#563218"/>
			<stop  offset="0.2781" style="stop-color:#947635"/>
			<stop  offset="0.7869" style="stop-color:#997F4B"/>
			<stop  offset="1" style="stop-color:#684623"/>
		</linearGradient>
		<path class="st16" d="M432.2,69.4h11.4V70h-0.6c-0.9,0-1.4,0.1-1.8,0.3c-0.3,0.2-0.5,0.4-0.7,0.7c-0.1,0.3-0.2,1.1-0.2,2.4v10.8
			c0,2,0.1,3.3,0.4,3.9s0.8,1.2,1.5,1.6s1.5,0.6,2.6,0.6c1.2,0,2.2-0.3,3.1-0.8c0.8-0.5,1.5-1.3,1.9-2.2c0.4-0.9,0.6-2.6,0.6-4.9v-9
			c0-1-0.1-1.7-0.3-2.1c-0.2-0.4-0.5-0.7-0.8-0.9c-0.5-0.2-1.2-0.4-2.1-0.4v-0.6h7.6V70h-0.5c-0.6,0-1.1,0.1-1.5,0.4
			s-0.7,0.6-0.9,1.1c-0.1,0.3-0.2,1-0.2,1.9v8.4c0,2.6-0.2,4.5-0.5,5.6c-0.3,1.2-1.2,2.2-2.5,3.2c-1.3,1-3.1,1.5-5.4,1.5
			c-1.9,0-3.4-0.3-4.4-0.8c-1.4-0.7-2.4-1.6-3-2.7s-0.9-2.5-0.9-4.4V73.4c0-1.3-0.1-2.1-0.2-2.4c-0.1-0.3-0.4-0.6-0.7-0.7
			c-0.3-0.2-1-0.3-1.9-0.3V69.4z"/>
		<linearGradient id="SVGID_18_" gradientUnits="userSpaceOnUse" x1="266.9769" y1="80.4446" x2="601.4568" y2="80.4446">
			<stop  offset="0" style="stop-color:#563218"/>
			<stop  offset="0.2781" style="stop-color:#947635"/>
			<stop  offset="0.7869" style="stop-color:#997F4B"/>
			<stop  offset="1" style="stop-color:#684623"/>
		</linearGradient>
		<path class="st17" d="M467.5,85.2h-7.8l-0.9,2.2c-0.3,0.7-0.5,1.3-0.5,1.8c0,0.6,0.2,1.1,0.8,1.4c0.3,0.2,1,0.3,2.2,0.4v0.6h-7.4
			v-0.6c0.8-0.1,1.4-0.4,2-1c0.5-0.5,1.1-1.6,1.9-3.3l7.9-17.6h0.3l8,18.1c0.8,1.7,1.4,2.8,1.9,3.2c0.4,0.3,0.9,0.5,1.6,0.6v0.6
			h-10.7v-0.6h0.4c0.9,0,1.5-0.1,1.8-0.4c0.2-0.2,0.4-0.4,0.4-0.8c0-0.2,0-0.4-0.1-0.6c0-0.1-0.2-0.5-0.5-1.2L467.5,85.2z M466.9,84
			l-3.3-7.6l-3.4,7.6H466.9z"/>
		<linearGradient id="SVGID_19_" gradientUnits="userSpaceOnUse" x1="266.9769" y1="80.4446" x2="601.4568" y2="80.4446">
			<stop  offset="0" style="stop-color:#563218"/>
			<stop  offset="0.2781" style="stop-color:#947635"/>
			<stop  offset="0.7869" style="stop-color:#997F4B"/>
			<stop  offset="1" style="stop-color:#684623"/>
		</linearGradient>
		<path class="st18" d="M476.1,91.5v-0.6h0.7c0.6,0,1.1-0.1,1.5-0.3c0.3-0.2,0.6-0.5,0.8-0.8c0.1-0.2,0.1-0.9,0.1-2.1V73.2
			c0-1.1-0.1-1.8-0.2-2.1s-0.4-0.5-0.7-0.7s-0.9-0.3-1.5-0.3h-0.7v-0.6h9.9c2.6,0,4.8,0.4,6.4,1.1c2,0.9,3.5,2.2,4.5,4
			s1.5,3.8,1.5,6c0,1.6-0.2,3-0.8,4.3c-0.5,1.3-1.1,2.4-1.9,3.2c-0.8,0.9-1.7,1.5-2.7,2.1c-1,0.5-2.3,0.9-3.8,1.2
			c-0.7,0.1-1.7,0.2-3.1,0.2H476.1z M484.6,70.6v17.3c0,0.9,0,1.5,0.1,1.7s0.2,0.4,0.4,0.5c0.3,0.2,0.7,0.2,1.3,0.2
			c1.8,0,3.2-0.6,4.2-1.9c1.3-1.7,2-4.3,2-7.8c0-2.8-0.4-5.1-1.3-6.8c-0.7-1.3-1.6-2.2-2.7-2.7C487.7,70.8,486.4,70.6,484.6,70.6z"
			/>
		<linearGradient id="SVGID_20_" gradientUnits="userSpaceOnUse" x1="266.9769" y1="80.4446" x2="601.4568" y2="80.4446">
			<stop  offset="0" style="stop-color:#563218"/>
			<stop  offset="0.2781" style="stop-color:#947635"/>
			<stop  offset="0.7869" style="stop-color:#997F4B"/>
			<stop  offset="1" style="stop-color:#684623"/>
		</linearGradient>
		<path class="st19" d="M511.7,85.2h-7.8l-0.9,2.2c-0.3,0.7-0.5,1.3-0.5,1.8c0,0.6,0.2,1.1,0.8,1.4c0.3,0.2,1,0.3,2.2,0.4v0.6h-7.4
			v-0.6c0.8-0.1,1.4-0.4,2-1c0.5-0.5,1.1-1.6,1.9-3.3l7.9-17.6h0.3l8,18.1c0.8,1.7,1.4,2.8,1.9,3.2c0.4,0.3,0.9,0.5,1.6,0.6v0.6
			h-10.7v-0.6h0.4c0.9,0,1.5-0.1,1.8-0.4c0.2-0.2,0.4-0.4,0.4-0.8c0-0.2,0-0.4-0.1-0.6c0-0.1-0.2-0.5-0.5-1.2L511.7,85.2z M511.1,84
			l-3.3-7.6l-3.4,7.6H511.1z"/>
		<linearGradient id="SVGID_21_" gradientUnits="userSpaceOnUse" x1="266.9769" y1="80.4446" x2="601.4568" y2="80.4446">
			<stop  offset="0" style="stop-color:#563218"/>
			<stop  offset="0.2781" style="stop-color:#947635"/>
			<stop  offset="0.7869" style="stop-color:#997F4B"/>
			<stop  offset="1" style="stop-color:#684623"/>
		</linearGradient>
		<path class="st20" d="M541,83.7l-0.8,7.8h-19.6v-0.6h0.7c0.6,0,1.2-0.1,1.5-0.3c0.3-0.2,0.5-0.4,0.7-0.8c0.1-0.3,0.2-0.9,0.2-2.1
			V73.2c0-1.1-0.1-1.8-0.2-2.1c-0.1-0.3-0.4-0.5-0.7-0.7s-0.9-0.3-1.5-0.3h-0.7v-0.6h11.8V70h-1c-0.6,0-1.2,0.1-1.5,0.3
			c-0.3,0.2-0.5,0.4-0.7,0.8c-0.1,0.3-0.2,0.9-0.2,2.1v14.1c0,1.1,0.1,1.9,0.2,2.2c0.1,0.3,0.4,0.5,0.8,0.7c0.3,0.1,0.9,0.1,2,0.1
			h1.8c1.2,0,2.2-0.2,2.9-0.6c0.8-0.4,1.5-1.1,2-2c0.6-0.9,1.1-2.2,1.6-3.9H541z"/>
		<linearGradient id="SVGID_22_" gradientUnits="userSpaceOnUse" x1="266.9769" y1="80.4446" x2="601.4568" y2="80.4446">
			<stop  offset="0" style="stop-color:#563218"/>
			<stop  offset="0.2781" style="stop-color:#947635"/>
			<stop  offset="0.7869" style="stop-color:#997F4B"/>
			<stop  offset="1" style="stop-color:#684623"/>
		</linearGradient>
		<path class="st21" d="M541,69.4h11.4V70h-0.6c-0.9,0-1.4,0.1-1.8,0.3c-0.3,0.2-0.5,0.4-0.7,0.7c-0.1,0.3-0.2,1.1-0.2,2.4v10.8
			c0,2,0.1,3.3,0.4,3.9s0.8,1.2,1.5,1.6s1.5,0.6,2.6,0.6c1.2,0,2.2-0.3,3.1-0.8c0.8-0.5,1.5-1.3,1.9-2.2c0.4-0.9,0.6-2.6,0.6-4.9v-9
			c0-1-0.1-1.7-0.3-2.1c-0.2-0.4-0.5-0.7-0.8-0.9c-0.5-0.2-1.2-0.4-2.1-0.4v-0.6h7.6V70h-0.5c-0.6,0-1.1,0.1-1.5,0.4
			s-0.7,0.6-0.9,1.1c-0.1,0.3-0.2,1-0.2,1.9v8.4c0,2.6-0.2,4.5-0.5,5.6c-0.3,1.2-1.2,2.2-2.5,3.2c-1.3,1-3.1,1.5-5.4,1.5
			c-1.9,0-3.4-0.3-4.4-0.8c-1.4-0.7-2.4-1.6-3-2.7s-0.9-2.5-0.9-4.4V73.4c0-1.3-0.1-2.1-0.2-2.4c-0.1-0.3-0.4-0.6-0.7-0.7
			c-0.3-0.2-1-0.3-1.9-0.3V69.4z"/>
		<linearGradient id="SVGID_23_" gradientUnits="userSpaceOnUse" x1="266.9769" y1="80.4446" x2="601.4568" y2="80.4446">
			<stop  offset="0" style="stop-color:#563218"/>
			<stop  offset="0.2781" style="stop-color:#947635"/>
			<stop  offset="0.7869" style="stop-color:#997F4B"/>
			<stop  offset="1" style="stop-color:#684623"/>
		</linearGradient>
		<path class="st22" d="M571.3,81.5v6.1c0,1.2,0.1,1.9,0.2,2.3c0.1,0.3,0.4,0.6,0.8,0.7c0.4,0.2,1.1,0.3,2.1,0.3v0.6h-11.2v-0.6
			c1,0,1.7-0.1,2.1-0.3c0.4-0.2,0.6-0.4,0.8-0.7c0.1-0.3,0.2-1.1,0.2-2.2V73.3c0-1.2-0.1-1.9-0.2-2.3c-0.1-0.3-0.4-0.6-0.8-0.7
			c-0.4-0.2-1.1-0.3-2.1-0.3v-0.6h9.6c3.2,0,5.5,0.6,6.8,1.7c1.4,1.1,2.1,2.5,2.1,4.2c0,1.4-0.4,2.7-1.3,3.7c-0.9,1-2.1,1.7-3.7,2.1
			C575.6,81.4,573.8,81.5,571.3,81.5z M571.3,70.7v9.6c0.4,0,0.6,0,0.8,0c1.3,0,2.3-0.4,3.1-1.2c0.7-0.8,1.1-2,1.1-3.7
			c0-1.6-0.4-2.8-1.1-3.6c-0.7-0.8-1.8-1.1-3.2-1.1H571.3z"/>
		<linearGradient id="SVGID_24_" gradientUnits="userSpaceOnUse" x1="266.9769" y1="80.4446" x2="601.4568" y2="80.4446">
			<stop  offset="0" style="stop-color:#563218"/>
			<stop  offset="0.2781" style="stop-color:#947635"/>
			<stop  offset="0.7869" style="stop-color:#997F4B"/>
			<stop  offset="1" style="stop-color:#684623"/>
		</linearGradient>
		<path class="st23" d="M589.8,70.7v9h0.4c1.4,0,2.4-0.4,3-1.3c0.6-0.9,1-2.2,1.2-3.9h0.6V86h-0.6c-0.1-1.3-0.4-2.3-0.8-3.1
			c-0.4-0.8-0.9-1.3-1.5-1.6c-0.6-0.3-1.4-0.4-2.4-0.4v6.2c0,1.2,0.1,2,0.2,2.2c0.1,0.3,0.3,0.5,0.6,0.7c0.3,0.2,0.7,0.3,1.4,0.3
			h1.3c2.1,0,3.7-0.5,5-1.4c1.2-1,2.1-2.4,2.7-4.4h0.6l-1,7h-19.1v-0.6h0.7c0.6,0,1.2-0.1,1.5-0.3c0.3-0.2,0.5-0.4,0.7-0.8
			c0.1-0.3,0.2-0.9,0.2-2.1V73.2c0-1,0-1.6-0.1-1.8c-0.1-0.4-0.3-0.7-0.6-0.9c-0.4-0.3-1-0.5-1.7-0.5h-0.7v-0.6h18.5v6.5h-0.6
			c-0.3-1.6-0.8-2.7-1.3-3.4c-0.6-0.7-1.4-1.2-2.4-1.5c-0.6-0.2-1.8-0.3-3.4-0.3H589.8z"/>
	</g>
</g>
<g>
	<g>
		<linearGradient id="SVGID_25_" gradientUnits="userSpaceOnUse" x1="320.6815" y1="120.2356" x2="549.5008" y2="120.2356">
			<stop  offset="0" style="stop-color:#563218"/>
			<stop  offset="0.2781" style="stop-color:#947635"/>
			<stop  offset="0.7869" style="stop-color:#997F4B"/>
			<stop  offset="1" style="stop-color:#684623"/>
		</linearGradient>
		<path class="st24" d="M332.1,123.8c0,0.7-0.1,1.3-0.3,1.7c-0.2,0.5-0.5,0.9-0.9,1.3c-0.5,0.5-1.2,0.9-1.9,1.1
			c-0.8,0.2-1.6,0.4-2.5,0.4c-0.9,0-1.7-0.1-2.5-0.4c-0.7-0.3-1.4-0.7-1.9-1.3c-0.4-0.4-0.7-0.9-0.9-1.4c-0.2-0.5-0.4-1.1-0.5-1.7
			h1.2c0.1,0.5,0.2,0.9,0.4,1.3c0.2,0.4,0.5,0.8,0.7,1.1c0.4,0.4,0.9,0.7,1.5,1s1.2,0.3,1.9,0.3c0.7,0,1.3-0.1,2-0.3
			c0.6-0.2,1.2-0.5,1.6-0.9c0.3-0.3,0.5-0.6,0.7-0.9c0.2-0.4,0.3-0.8,0.3-1.3c0-0.4-0.1-0.7-0.2-1.1c-0.1-0.3-0.3-0.7-0.6-0.9
			c-0.3-0.3-0.6-0.5-1-0.7c-0.4-0.2-0.8-0.3-1.3-0.4l-2.9-0.4c-0.6-0.1-1.1-0.2-1.5-0.4s-0.9-0.5-1.2-0.8s-0.6-0.7-0.8-1.2
			c-0.2-0.5-0.3-1-0.3-1.6c0-0.7,0.1-1.2,0.4-1.7c0.3-0.5,0.6-0.9,1-1.3c0.5-0.4,1.1-0.8,1.7-1c0.7-0.2,1.4-0.4,2.1-0.4
			c0.8,0,1.6,0.2,2.4,0.5c0.8,0.3,1.4,0.7,1.8,1.2c0.3,0.4,0.6,0.8,0.8,1.2c0.2,0.4,0.3,0.9,0.4,1.5h-1.2c-0.1-0.4-0.2-0.8-0.3-1.1
			s-0.3-0.6-0.6-0.9c-0.3-0.4-0.8-0.8-1.4-1c-0.6-0.2-1.3-0.4-2-0.4c-0.6,0-1.1,0.1-1.6,0.2c-0.5,0.1-1,0.4-1.3,0.7
			c-0.3,0.3-0.5,0.6-0.7,0.9c-0.2,0.4-0.3,0.8-0.3,1.3c0,0.5,0.1,0.9,0.2,1.2c0.2,0.3,0.4,0.6,0.6,0.8s0.5,0.4,0.9,0.5
			s0.7,0.2,1,0.2l2.9,0.4c0.6,0.1,1.1,0.2,1.6,0.5c0.5,0.2,0.9,0.6,1.3,0.9s0.6,0.8,0.8,1.3C332,122.7,332.1,123.3,332.1,123.8z"/>
		<linearGradient id="SVGID_26_" gradientUnits="userSpaceOnUse" x1="320.6815" y1="120.2356" x2="549.5008" y2="120.2356">
			<stop  offset="0" style="stop-color:#563218"/>
			<stop  offset="0.2781" style="stop-color:#947635"/>
			<stop  offset="0.7869" style="stop-color:#997F4B"/>
			<stop  offset="1" style="stop-color:#684623"/>
		</linearGradient>
		<path class="st25" d="M345.3,128l-1.6-4.1h-7.5l-1.5,4.1h-1.2l5.9-15.6h1.1l6,15.6H345.3z M339.9,114l-3.3,8.8h6.7L339.9,114z"/>
		<linearGradient id="SVGID_27_" gradientUnits="userSpaceOnUse" x1="320.6815" y1="120.2356" x2="549.5008" y2="120.2356">
			<stop  offset="0" style="stop-color:#563218"/>
			<stop  offset="0.2781" style="stop-color:#947635"/>
			<stop  offset="0.7869" style="stop-color:#997F4B"/>
			<stop  offset="1" style="stop-color:#684623"/>
		</linearGradient>
		<path class="st26" d="M349.1,128v-15.6h1.1v14.5h8.1v1.1H349.1z"/>
		<linearGradient id="SVGID_28_" gradientUnits="userSpaceOnUse" x1="320.6815" y1="120.2356" x2="549.5008" y2="120.2356">
			<stop  offset="0" style="stop-color:#563218"/>
			<stop  offset="0.2781" style="stop-color:#947635"/>
			<stop  offset="0.7869" style="stop-color:#997F4B"/>
			<stop  offset="1" style="stop-color:#684623"/>
		</linearGradient>
		<path class="st27" d="M371.9,120.2c0,0.6,0,1.1-0.1,1.7s-0.1,1.2-0.3,1.7c-0.1,0.6-0.3,1.1-0.6,1.6c-0.3,0.5-0.6,1-1,1.4
			c-0.5,0.5-1.1,0.8-1.7,1.1c-0.7,0.3-1.4,0.4-2.3,0.4s-1.6-0.1-2.3-0.4c-0.7-0.3-1.2-0.7-1.7-1.1c-0.4-0.4-0.8-0.9-1-1.4
			c-0.3-0.5-0.5-1.1-0.6-1.6c-0.1-0.6-0.2-1.1-0.3-1.7c0-0.6-0.1-1.2-0.1-1.7s0-1.1,0.1-1.7c0-0.6,0.1-1.2,0.3-1.7
			c0.1-0.6,0.3-1.1,0.6-1.6c0.3-0.5,0.6-1,1-1.4c0.5-0.5,1.1-0.8,1.7-1.1c0.7-0.3,1.4-0.4,2.3-0.4s1.6,0.1,2.3,0.4
			c0.7,0.3,1.2,0.7,1.7,1.1c0.4,0.4,0.8,0.9,1,1.4c0.3,0.5,0.5,1.1,0.6,1.6c0.1,0.6,0.2,1.1,0.3,1.7S371.9,119.7,371.9,120.2z
			 M370.7,120.2c0-0.5,0-0.9,0-1.5c0-0.5-0.1-1-0.2-1.5s-0.3-1-0.5-1.5c-0.2-0.5-0.5-0.9-0.9-1.3c-0.4-0.4-0.9-0.7-1.4-0.9
			c-0.5-0.2-1.1-0.3-1.7-0.3s-1.2,0.1-1.7,0.3c-0.5,0.2-1,0.5-1.4,0.9c-0.4,0.4-0.7,0.8-0.9,1.3c-0.2,0.5-0.4,1-0.5,1.5
			c-0.1,0.5-0.2,1-0.2,1.5c0,0.5,0,1,0,1.5c0,0.5,0,1,0,1.5c0,0.5,0.1,1,0.2,1.5c0.1,0.5,0.3,1,0.5,1.5c0.2,0.5,0.5,0.9,0.9,1.3
			c0.4,0.4,0.9,0.7,1.4,0.9c0.5,0.2,1.1,0.3,1.7,0.3s1.2-0.1,1.7-0.3c0.5-0.2,1-0.5,1.4-0.9c0.4-0.4,0.7-0.8,0.9-1.3
			c0.2-0.5,0.4-1,0.5-1.5c0.1-0.5,0.2-1,0.2-1.5C370.7,121.2,370.7,120.7,370.7,120.2z"/>
		<linearGradient id="SVGID_29_" gradientUnits="userSpaceOnUse" x1="320.6815" y1="120.2356" x2="549.5008" y2="120.2356">
			<stop  offset="0" style="stop-color:#563218"/>
			<stop  offset="0.2781" style="stop-color:#947635"/>
			<stop  offset="0.7869" style="stop-color:#997F4B"/>
			<stop  offset="1" style="stop-color:#684623"/>
		</linearGradient>
		<path class="st28" d="M385.8,128l-9-13.8V128h-1.1v-15.6h1.3l9,13.8v-13.8h1.1V128H385.8z"/>
		<linearGradient id="SVGID_30_" gradientUnits="userSpaceOnUse" x1="320.6815" y1="120.2356" x2="549.5008" y2="120.2356">
			<stop  offset="0" style="stop-color:#563218"/>
			<stop  offset="0.2781" style="stop-color:#947635"/>
			<stop  offset="0.7869" style="stop-color:#997F4B"/>
			<stop  offset="1" style="stop-color:#684623"/>
		</linearGradient>
		<path class="st29" d="M391.9,128v-15.6h10v1.1h-8.8v5.7h7.7v1.1h-7.7v6.6h8.8v1.1H391.9z"/>
		<linearGradient id="SVGID_31_" gradientUnits="userSpaceOnUse" x1="320.6815" y1="120.2356" x2="549.5008" y2="120.2356">
			<stop  offset="0" style="stop-color:#563218"/>
			<stop  offset="0.2781" style="stop-color:#947635"/>
			<stop  offset="0.7869" style="stop-color:#997F4B"/>
			<stop  offset="1" style="stop-color:#684623"/>
		</linearGradient>
		<path class="st30" d="M415.6,123.8c0,0.7-0.1,1.3-0.3,1.7c-0.2,0.5-0.5,0.9-0.9,1.3c-0.5,0.5-1.2,0.9-1.9,1.1
			c-0.8,0.2-1.6,0.4-2.5,0.4c-0.9,0-1.7-0.1-2.5-0.4c-0.7-0.3-1.4-0.7-1.9-1.3c-0.4-0.4-0.7-0.9-0.9-1.4c-0.2-0.5-0.4-1.1-0.5-1.7
			h1.2c0.1,0.5,0.2,0.9,0.4,1.3c0.2,0.4,0.5,0.8,0.7,1.1c0.4,0.4,0.9,0.7,1.5,1s1.2,0.3,1.9,0.3c0.7,0,1.3-0.1,2-0.3
			c0.6-0.2,1.2-0.5,1.6-0.9c0.3-0.3,0.5-0.6,0.7-0.9c0.2-0.4,0.3-0.8,0.3-1.3c0-0.4-0.1-0.7-0.2-1.1c-0.1-0.3-0.3-0.7-0.6-0.9
			c-0.3-0.3-0.6-0.5-1-0.7c-0.4-0.2-0.8-0.3-1.3-0.4l-2.9-0.4c-0.6-0.1-1.1-0.2-1.5-0.4s-0.9-0.5-1.2-0.8s-0.6-0.7-0.8-1.2
			c-0.2-0.5-0.3-1-0.3-1.6c0-0.7,0.1-1.2,0.4-1.7c0.3-0.5,0.6-0.9,1-1.3c0.5-0.4,1.1-0.8,1.7-1c0.7-0.2,1.4-0.4,2.1-0.4
			c0.8,0,1.6,0.2,2.4,0.5c0.8,0.3,1.4,0.7,1.8,1.2c0.3,0.4,0.6,0.8,0.8,1.2c0.2,0.4,0.3,0.9,0.4,1.5h-1.2c-0.1-0.4-0.2-0.8-0.3-1.1
			s-0.3-0.6-0.6-0.9c-0.3-0.4-0.8-0.8-1.4-1c-0.6-0.2-1.3-0.4-2-0.4c-0.6,0-1.1,0.1-1.6,0.2c-0.5,0.1-1,0.4-1.3,0.7
			c-0.3,0.3-0.5,0.6-0.7,0.9c-0.2,0.4-0.3,0.8-0.3,1.3c0,0.5,0.1,0.9,0.2,1.2c0.2,0.3,0.4,0.6,0.6,0.8s0.5,0.4,0.9,0.5
			s0.7,0.2,1,0.2l2.9,0.4c0.6,0.1,1.1,0.2,1.6,0.5c0.5,0.2,0.9,0.6,1.3,0.9s0.6,0.8,0.8,1.3C415.5,122.7,415.6,123.3,415.6,123.8z"
			/>
		<linearGradient id="SVGID_32_" gradientUnits="userSpaceOnUse" x1="320.6815" y1="120.2356" x2="549.5008" y2="120.2356">
			<stop  offset="0" style="stop-color:#563218"/>
			<stop  offset="0.2781" style="stop-color:#947635"/>
			<stop  offset="0.7869" style="stop-color:#997F4B"/>
			<stop  offset="1" style="stop-color:#684623"/>
		</linearGradient>
		<path class="st31" d="M435,120.2c0,0.5,0,1.1-0.1,1.7c0,0.6-0.1,1.1-0.3,1.7c-0.1,0.5-0.3,1.1-0.6,1.6c-0.2,0.5-0.6,1-1,1.4
			c-0.5,0.5-1,0.8-1.7,1.1s-1.4,0.4-2.2,0.4H424v-15.6h5.2c0.8,0,1.6,0.1,2.2,0.4s1.2,0.7,1.7,1.1c0.4,0.4,0.8,0.9,1,1.4
			c0.2,0.5,0.4,1,0.6,1.6c0.1,0.5,0.2,1.1,0.3,1.7C434.9,119.1,435,119.7,435,120.2z M433.8,120.2c0-0.5,0-1,0-1.4
			c0-0.5-0.1-1-0.2-1.5c-0.1-0.5-0.3-0.9-0.5-1.4c-0.2-0.4-0.5-0.8-0.9-1.2c-0.4-0.4-0.9-0.7-1.4-0.9c-0.5-0.2-1.1-0.3-1.7-0.3h-4
			v13.3h4c0.6,0,1.1-0.1,1.7-0.3c0.5-0.2,1-0.5,1.4-0.9c0.4-0.4,0.7-0.8,0.9-1.2s0.4-0.9,0.5-1.4c0.1-0.5,0.2-1,0.2-1.5
			C433.8,121.2,433.8,120.7,433.8,120.2z"/>
		<linearGradient id="SVGID_33_" gradientUnits="userSpaceOnUse" x1="320.6815" y1="120.2356" x2="549.5008" y2="120.2356">
			<stop  offset="0" style="stop-color:#563218"/>
			<stop  offset="0.2781" style="stop-color:#947635"/>
			<stop  offset="0.7869" style="stop-color:#997F4B"/>
			<stop  offset="1" style="stop-color:#684623"/>
		</linearGradient>
		<path class="st32" d="M438.7,128v-15.6h10v1.1h-8.8v5.7h7.7v1.1h-7.7v6.6h8.8v1.1H438.7z"/>
		<linearGradient id="SVGID_34_" gradientUnits="userSpaceOnUse" x1="320.6815" y1="120.2356" x2="549.5008" y2="120.2356">
			<stop  offset="0" style="stop-color:#563218"/>
			<stop  offset="0.2781" style="stop-color:#947635"/>
			<stop  offset="0.7869" style="stop-color:#997F4B"/>
			<stop  offset="1" style="stop-color:#684623"/>
		</linearGradient>
		<path class="st33" d="M457,128v-15.6h10v1.1h-8.8v5.7h7.7v1.1h-7.7v6.6h8.8v1.1H457z"/>
		<linearGradient id="SVGID_35_" gradientUnits="userSpaceOnUse" x1="320.6815" y1="120.2356" x2="549.5008" y2="120.2356">
			<stop  offset="0" style="stop-color:#563218"/>
			<stop  offset="0.2781" style="stop-color:#947635"/>
			<stop  offset="0.7869" style="stop-color:#997F4B"/>
			<stop  offset="1" style="stop-color:#684623"/>
		</linearGradient>
		<path class="st34" d="M475.1,128H474l-5.6-15.6h1.2l4.9,13.9l4.9-13.9h1.2L475.1,128z"/>
		<linearGradient id="SVGID_36_" gradientUnits="userSpaceOnUse" x1="320.6815" y1="120.2356" x2="549.5008" y2="120.2356">
			<stop  offset="0" style="stop-color:#563218"/>
			<stop  offset="0.2781" style="stop-color:#947635"/>
			<stop  offset="0.7869" style="stop-color:#997F4B"/>
			<stop  offset="1" style="stop-color:#684623"/>
		</linearGradient>
		<path class="st35" d="M483.3,128v-15.6h10v1.1h-8.8v5.7h7.7v1.1h-7.7v6.6h8.8v1.1H483.3z"/>
		<linearGradient id="SVGID_37_" gradientUnits="userSpaceOnUse" x1="320.6815" y1="120.2356" x2="549.5008" y2="120.2356">
			<stop  offset="0" style="stop-color:#563218"/>
			<stop  offset="0.2781" style="stop-color:#947635"/>
			<stop  offset="0.7869" style="stop-color:#997F4B"/>
			<stop  offset="1" style="stop-color:#684623"/>
		</linearGradient>
		<path class="st36" d="M507,128l-9-13.8V128h-1.1v-15.6h1.3l9,13.8v-13.8h1.1V128H507z"/>
		<linearGradient id="SVGID_38_" gradientUnits="userSpaceOnUse" x1="320.6815" y1="120.2356" x2="549.5008" y2="120.2356">
			<stop  offset="0" style="stop-color:#563218"/>
			<stop  offset="0.2781" style="stop-color:#947635"/>
			<stop  offset="0.7869" style="stop-color:#997F4B"/>
			<stop  offset="1" style="stop-color:#684623"/>
		</linearGradient>
		<path class="st37" d="M517.2,113.6V128H516v-14.5h-4.9v-1.1h11v1.1H517.2z"/>
		<linearGradient id="SVGID_39_" gradientUnits="userSpaceOnUse" x1="320.6815" y1="120.2356" x2="549.5008" y2="120.2356">
			<stop  offset="0" style="stop-color:#563218"/>
			<stop  offset="0.2781" style="stop-color:#947635"/>
			<stop  offset="0.7869" style="stop-color:#997F4B"/>
			<stop  offset="1" style="stop-color:#684623"/>
		</linearGradient>
		<path class="st38" d="M535.7,120.2c0,0.6,0,1.1-0.1,1.7s-0.1,1.2-0.3,1.7c-0.1,0.6-0.3,1.1-0.6,1.6c-0.3,0.5-0.6,1-1,1.4
			c-0.5,0.5-1.1,0.8-1.7,1.1c-0.7,0.3-1.4,0.4-2.3,0.4s-1.6-0.1-2.3-0.4c-0.7-0.3-1.2-0.7-1.7-1.1c-0.4-0.4-0.8-0.9-1-1.4
			c-0.3-0.5-0.5-1.1-0.6-1.6c-0.1-0.6-0.2-1.1-0.3-1.7c0-0.6-0.1-1.2-0.1-1.7s0-1.1,0.1-1.7c0-0.6,0.1-1.2,0.3-1.7
			c0.1-0.6,0.3-1.1,0.6-1.6c0.3-0.5,0.6-1,1-1.4c0.5-0.5,1.1-0.8,1.7-1.1c0.7-0.3,1.4-0.4,2.3-0.4s1.6,0.1,2.3,0.4
			c0.7,0.3,1.2,0.7,1.7,1.1c0.4,0.4,0.8,0.9,1,1.4c0.3,0.5,0.5,1.1,0.6,1.6c0.1,0.6,0.2,1.1,0.3,1.7S535.7,119.7,535.7,120.2z
			 M534.5,120.2c0-0.5,0-0.9,0-1.5c0-0.5-0.1-1-0.2-1.5s-0.3-1-0.5-1.5c-0.2-0.5-0.5-0.9-0.9-1.3c-0.4-0.4-0.9-0.7-1.4-0.9
			c-0.5-0.2-1.1-0.3-1.7-0.3s-1.2,0.1-1.7,0.3c-0.5,0.2-1,0.5-1.4,0.9c-0.4,0.4-0.7,0.8-0.9,1.3c-0.2,0.5-0.4,1-0.5,1.5
			c-0.1,0.5-0.2,1-0.2,1.5c0,0.5,0,1,0,1.5c0,0.5,0,1,0,1.5c0,0.5,0.1,1,0.2,1.5c0.1,0.5,0.3,1,0.5,1.5c0.2,0.5,0.5,0.9,0.9,1.3
			c0.4,0.4,0.9,0.7,1.4,0.9c0.5,0.2,1.1,0.3,1.7,0.3s1.2-0.1,1.7-0.3c0.5-0.2,1-0.5,1.4-0.9c0.4-0.4,0.7-0.8,0.9-1.3
			c0.2-0.5,0.4-1,0.5-1.5c0.1-0.5,0.2-1,0.2-1.5C534.5,121.2,534.5,120.7,534.5,120.2z"/>
		<linearGradient id="SVGID_40_" gradientUnits="userSpaceOnUse" x1="320.6815" y1="120.2356" x2="549.5008" y2="120.2356">
			<stop  offset="0" style="stop-color:#563218"/>
			<stop  offset="0.2781" style="stop-color:#947635"/>
			<stop  offset="0.7869" style="stop-color:#997F4B"/>
			<stop  offset="1" style="stop-color:#684623"/>
		</linearGradient>
		<path class="st39" d="M549.5,123.8c0,0.7-0.1,1.3-0.3,1.7c-0.2,0.5-0.5,0.9-0.9,1.3c-0.5,0.5-1.2,0.9-1.9,1.1
			c-0.8,0.2-1.6,0.4-2.5,0.4c-0.9,0-1.7-0.1-2.5-0.4c-0.7-0.3-1.4-0.7-1.9-1.3c-0.4-0.4-0.7-0.9-0.9-1.4c-0.2-0.5-0.4-1.1-0.5-1.7
			h1.2c0.1,0.5,0.2,0.9,0.4,1.3c0.2,0.4,0.5,0.8,0.7,1.1c0.4,0.4,0.9,0.7,1.5,1s1.2,0.3,1.9,0.3c0.7,0,1.3-0.1,2-0.3
			c0.6-0.2,1.2-0.5,1.6-0.9c0.3-0.3,0.5-0.6,0.7-0.9c0.2-0.4,0.3-0.8,0.3-1.3c0-0.4-0.1-0.7-0.2-1.1c-0.1-0.3-0.3-0.7-0.6-0.9
			c-0.3-0.3-0.6-0.5-1-0.7c-0.4-0.2-0.8-0.3-1.3-0.4l-2.9-0.4c-0.6-0.1-1.1-0.2-1.5-0.4s-0.9-0.5-1.2-0.8s-0.6-0.7-0.8-1.2
			c-0.2-0.5-0.3-1-0.3-1.6c0-0.7,0.1-1.2,0.4-1.7c0.3-0.5,0.6-0.9,1-1.3c0.5-0.4,1.1-0.8,1.7-1c0.7-0.2,1.4-0.4,2.1-0.4
			c0.8,0,1.6,0.2,2.4,0.5c0.8,0.3,1.4,0.7,1.8,1.2c0.3,0.4,0.6,0.8,0.8,1.2c0.2,0.4,0.3,0.9,0.4,1.5H548c-0.1-0.4-0.2-0.8-0.3-1.1
			s-0.3-0.6-0.6-0.9c-0.3-0.4-0.8-0.8-1.4-1c-0.6-0.2-1.3-0.4-2-0.4c-0.6,0-1.1,0.1-1.6,0.2c-0.5,0.1-1,0.4-1.3,0.7
			c-0.3,0.3-0.5,0.6-0.7,0.9c-0.2,0.4-0.3,0.8-0.3,1.3c0,0.5,0.1,0.9,0.2,1.2c0.2,0.3,0.4,0.6,0.6,0.8s0.5,0.4,0.9,0.5
			s0.7,0.2,1,0.2l2.9,0.4c0.6,0.1,1.1,0.2,1.6,0.5c0.5,0.2,0.9,0.6,1.3,0.9s0.6,0.8,0.8,1.3C549.4,122.7,549.5,123.3,549.5,123.8z"
			/>
	</g>
</g>
</svg>
